<?xml version="1.0" encoding="utf-8"?>
<svg xmlns="http://www.w3.org/2000/svg" fill="none" height="49" viewBox="0 0 48 49" width="48">
<circle cx="24" cy="24" fill="#0098FD" r="24"/>
<g filter="url(#filter0_d_2426_222)">
<g filter="url(#filter1_ddi_2426_222)">
<path d="M8.40001 24C8.40001 15.3844 15.3844 8.4 24 8.4C32.6157 8.4 39.6 15.3844 39.6 24C39.6 32.6156 32.6157 39.6 24 39.6C15.3844 39.6 8.40001 32.6156 8.40001 24Z" fill="#60B3FF"/>
<path d="M8.40001 24C8.40001 15.3844 15.3844 8.4 24 8.4C32.6157 8.4 39.6 15.3844 39.6 24C39.6 32.6156 32.6157 39.6 24 39.6C15.3844 39.6 8.40001 32.6156 8.40001 24Z" fill="url(#paint0_linear_2426_222)" fill-opacity="0.2"/>
</g>
</g>
<g filter="url(#filter2_d_2426_222)">
<circle cx="24" cy="22.7598" fill="white" r="5.30391"/>
<path clip-rule="evenodd" d="M19.2358 25.0449L24.0067 24.4233H24.0067L28.7775 25.0449C28.471 25.815 28.0466 26.5277 27.6117 27.2579C26.856 28.5269 26.0686 29.849 25.8137 31.6177C25.7132 32.3144 25.1555 32.8912 24.4515 32.8912L24.0067 32.8912L24.0067 32.8912L23.5618 32.8912C22.8579 32.8912 22.3001 32.3144 22.1997 31.6177C21.9447 29.849 21.1574 28.5269 20.4016 27.2579C19.9667 26.5277 19.5423 25.815 19.2358 25.0449Z" fill="white" fill-rule="evenodd"/>
</g>
<g filter="url(#filter3_dd_2426_222)">
<path d="M14.7745 21.4989H16.951" stroke="#FBFCFD" stroke-linecap="round"/>
<path d="M31.049 21.4989H33.2255" stroke="#FBFCFD" stroke-linecap="round"/>
<path d="M24.0067 14.9416L24.0067 12.446" stroke="#FBFCFD" stroke-linecap="round"/>
<path d="M18.512 17.1173L16.6801 15.2854" stroke="#FBFCFD" stroke-linecap="round"/>
<path d="M29.488 17.1173L31.3199 15.2854" stroke="#FBFCFD" stroke-linecap="round"/>
</g>
<defs>
<filter color-interpolation-filters="sRGB" filterUnits="userSpaceOnUse" height="35.2" id="filter0_d_2426_222" width="35.2" x="6.40001" y="7.4">
<feFlood flood-opacity="0" result="BackgroundImageFix"/>
<feColorMatrix in="SourceAlpha" result="hardAlpha" type="matrix" values="0 0 0 0 0 0 0 0 0 0 0 0 0 0 0 0 0 0 127 0"/>
<feOffset dy="1"/>
<feGaussianBlur stdDeviation="1"/>
<feComposite in2="hardAlpha" operator="out"/>
<feColorMatrix type="matrix" values="0 0 0 0 0 0 0 0 0 0 0 0 0 0 0 0 0 0 0.1 0"/>
<feBlend in2="BackgroundImageFix" mode="normal" result="effect1_dropShadow_2426_222"/>
<feBlend in="SourceGraphic" in2="effect1_dropShadow_2426_222" mode="normal" result="shape"/>
</filter>
<filter color-interpolation-filters="sRGB" filterUnits="userSpaceOnUse" height="41.2" id="filter1_ddi_2426_222" width="39.2" x="4.40001" y="7.4">
<feFlood flood-opacity="0" result="BackgroundImageFix"/>
<feColorMatrix in="SourceAlpha" result="hardAlpha" type="matrix" values="0 0 0 0 0 0 0 0 0 0 0 0 0 0 0 0 0 0 127 0"/>
<feOffset dy="3"/>
<feGaussianBlur stdDeviation="2"/>
<feColorMatrix type="matrix" values="0 0 0 0 0 0 0 0 0 0 0 0 0 0 0 0 0 0 0.05 0"/>
<feBlend in2="BackgroundImageFix" mode="multiply" result="effect1_dropShadow_2426_222"/>
<feColorMatrix in="SourceAlpha" result="hardAlpha" type="matrix" values="0 0 0 0 0 0 0 0 0 0 0 0 0 0 0 0 0 0 127 0"/>
<feOffset dy="5"/>
<feGaussianBlur stdDeviation="2"/>
<feColorMatrix type="matrix" values="0 0 0 0 0 0 0 0 0 0 0 0 0 0 0 0 0 0 0.05 0"/>
<feBlend in2="effect1_dropShadow_2426_222" mode="multiply" result="effect2_dropShadow_2426_222"/>
<feBlend in="SourceGraphic" in2="effect2_dropShadow_2426_222" mode="normal" result="shape"/>
<feColorMatrix in="SourceAlpha" result="hardAlpha" type="matrix" values="0 0 0 0 0 0 0 0 0 0 0 0 0 0 0 0 0 0 127 0"/>
<feOffset dy="0.5"/>
<feComposite in2="hardAlpha" k2="-1" k3="1" operator="arithmetic"/>
<feColorMatrix type="matrix" values="0 0 0 0 1 0 0 0 0 1 0 0 0 0 1 0 0 0 0.1 0"/>
<feBlend in2="shape" mode="normal" result="effect3_innerShadow_2426_222"/>
</filter>
<filter color-interpolation-filters="sRGB" filterUnits="userSpaceOnUse" height="19.4353" id="filter2_d_2426_222" width="14.6078" x="16.6961" y="16.4559">
<feFlood flood-opacity="0" result="BackgroundImageFix"/>
<feColorMatrix in="SourceAlpha" result="hardAlpha" type="matrix" values="0 0 0 0 0 0 0 0 0 0 0 0 0 0 0 0 0 0 127 0"/>
<feOffset dy="1"/>
<feGaussianBlur stdDeviation="1"/>
<feColorMatrix type="matrix" values="0 0 0 0 0 0 0 0 0 0 0 0 0 0 0 0 0 0 0.1 0"/>
<feBlend in2="BackgroundImageFix" mode="multiply" result="effect1_dropShadow_2426_222"/>
<feBlend in="SourceGraphic" in2="effect1_dropShadow_2426_222" mode="normal" result="shape"/>
</filter>
<filter color-interpolation-filters="sRGB" filterUnits="userSpaceOnUse" height="14.0529" id="filter3_dd_2426_222" width="23.451" x="12.2745" y="10.946">
<feFlood flood-opacity="0" result="BackgroundImageFix"/>
<feColorMatrix in="SourceAlpha" result="hardAlpha" type="matrix" values="0 0 0 0 0 0 0 0 0 0 0 0 0 0 0 0 0 0 127 0"/>
<feOffset dy="1"/>
<feGaussianBlur stdDeviation="1"/>
<feComposite in2="hardAlpha" operator="out"/>
<feColorMatrix type="matrix" values="0 0 0 0 0 0 0 0 0 0 0 0 0 0 0 0 0 0 0.1 0"/>
<feBlend in2="BackgroundImageFix" mode="normal" result="effect1_dropShadow_2426_222"/>
<feColorMatrix in="SourceAlpha" result="hardAlpha" type="matrix" values="0 0 0 0 0 0 0 0 0 0 0 0 0 0 0 0 0 0 127 0"/>
<feOffset dy="1"/>
<feGaussianBlur stdDeviation="1"/>
<feColorMatrix type="matrix" values="0 0 0 0 0 0 0 0 0 0 0 0 0 0 0 0 0 0 0.1 0"/>
<feBlend in2="effect1_dropShadow_2426_222" mode="multiply" result="effect2_dropShadow_2426_222"/>
<feBlend in="SourceGraphic" in2="effect2_dropShadow_2426_222" mode="normal" result="shape"/>
</filter>
<linearGradient gradientUnits="userSpaceOnUse" id="paint0_linear_2426_222" x1="24" x2="24" y1="8.4" y2="39.6">
<stop stop-color="white"/>
<stop offset="1" stop-color="white" stop-opacity="0"/>
</linearGradient>
</defs>
</svg>