<?xml version="1.0" encoding="utf-8"?>
<svg xmlns="http://www.w3.org/2000/svg" fill="none" height="80" viewBox="0 0 80 80" width="80">
<g clip-path="url(#clip0_1334_214)">
<rect fill="#EDFFD9" height="80" rx="40" width="80"/>
<path d="M52.3925 41.0899C52.2585 40.9349 52.1281 40.7763 52.0048 40.6177C51.8814 40.7763 51.751 40.9349 51.6171 41.0899C48.8118 44.3675 44.7167 46.5102 40.1211 46.7393C41.7035 53.7172 46.1616 59.5992 52.1845 63.0776C58.2004 59.5992 62.655 53.7208 64.2374 46.7498C59.4973 46.6194 55.2682 44.4485 52.3925 41.0899Z" fill="#016001"/>
<g filter="url(#filter0_bd_1334_214)">
<path d="M67.86 28.484C67.9375 28.1774 68.0045 27.8672 68.0609 27.5536C68.2195 26.6937 68.3005 25.8091 68.3005 24.9034C68.3005 16.8082 61.7384 10.2461 53.6468 10.2461C48.0997 10.2461 43.275 13.3263 40.7834 17.869C38.5878 16.5545 36.0186 15.7968 33.2732 15.7968C26.4715 15.7968 20.7516 20.4346 19.0988 26.7183C18.6477 26.669 18.1895 26.6443 17.7279 26.6443C16.0644 26.6443 14.4715 26.965 13.016 27.5501C11.7895 28.0399 10.6583 28.7131 9.65737 29.5412C6.83447 31.8708 5.03711 35.395 5.03711 39.3351C5.03711 43.2752 6.83447 46.7994 9.65385 49.1254C11.8459 50.9333 14.6583 52.0223 17.7243 52.0223H61.2768C68.2829 52.0223 73.964 46.3412 73.964 39.3351C73.964 34.7395 71.5182 30.7113 67.86 28.484Z" fill="url(#paint0_radial_1334_214)" shape-rendering="crispEdges"/>
</g>
</g>
<defs>
<filter color-interpolation-filters="sRGB" filterUnits="userSpaceOnUse" height="112.261" id="filter0_bd_1334_214" width="139.411" x="-30.2052" y="-24.9962">
<feFlood flood-opacity="0" result="BackgroundImageFix"/>
<feGaussianBlur in="BackgroundImageFix" stdDeviation="1"/>
<feComposite in2="SourceAlpha" operator="in" result="effect1_backgroundBlur_1334_214"/>
<feColorMatrix in="SourceAlpha" result="hardAlpha" type="matrix" values="0 0 0 0 0 0 0 0 0 0 0 0 0 0 0 0 0 0 127 0"/>
<feOffset/>
<feGaussianBlur stdDeviation="17.6211"/>
<feComposite in2="hardAlpha" operator="out"/>
<feColorMatrix type="matrix" values="0 0 0 0 0 0 0 0 0 0 0 0 0 0 0 0 0 0 0.05 0"/>
<feBlend in2="effect1_backgroundBlur_1334_214" mode="normal" result="effect2_dropShadow_1334_214"/>
<feBlend in="SourceGraphic" in2="effect2_dropShadow_1334_214" mode="normal" result="shape"/>
</filter>
<radialGradient cx="0" cy="0" gradientTransform="translate(-50.491 -120.151) rotate(56.857) scale(227.639 114.756)" gradientUnits="userSpaceOnUse" id="paint0_radial_1334_214" r="1">
<stop offset="0.0555571" stop-color="#80FFC9" stop-opacity="0.8"/>
<stop offset="0.412252" stop-color="#D7DCDC" stop-opacity="0.4"/>
<stop offset="0.541037" stop-color="#80FFC9" stop-opacity="0.8"/>
<stop offset="0.610169" stop-color="#B7FF60"/>
<stop offset="0.873994" stop-color="#80FFC9" stop-opacity="0.8"/>
</radialGradient>
<clipPath id="clip0_1334_214">
<rect fill="white" height="80" rx="40" width="80"/>
</clipPath>
</defs>
</svg>