<?xml version="1.0" encoding="utf-8"?>
<svg xmlns="http://www.w3.org/2000/svg" fill="none" height="48" viewBox="0 0 48 48" width="48">
<circle cx="24" cy="24" fill="#FF5454" r="24"/>
<path d="M8.39999 24C8.39999 15.3844 15.3844 8.4 24 8.4V8.4C32.6156 8.4 39.6 15.3844 39.6 24V24C39.6 32.6156 32.6156 39.6 24 39.6V39.6C15.3844 39.6 8.39999 32.6156 8.39999 24V24Z" fill="#FF7272"/>
<path d="M8.39999 24C8.39999 15.3844 15.3844 8.4 24 8.4V8.4C32.6156 8.4 39.6 15.3844 39.6 24V24C39.6 32.6156 32.6156 39.6 24 39.6V39.6C15.3844 39.6 8.39999 32.6156 8.39999 24V24Z" fill="url(#paint0_linear_1_383)" fill-opacity="0.2"/>
<g clip-path="url(#clip0_1_383)">
<g filter="url(#filter0_d_1_383)">
<path d="M29.4518 25.0623L25.8253 27.4029C25.7968 27.4029 25.7968 27.435 25.7682 27.435L22.1418 29.7756C21.9705 29.9038 21.7421 30 21.5136 30C20.914 30 20.4 29.4549 20.4 28.7495V24.0042V19.2268C20.4 19.0023 20.4571 18.81 20.5428 18.6176C20.8569 18.0405 21.5136 17.816 22.0562 18.1687L25.7397 20.5414L29.3947 22.914C29.566 23.0102 29.7088 23.1706 29.823 23.3629C30.1656 23.9721 29.9943 24.7416 29.4518 25.0623Z" fill="white"/>
</g>
</g>
<defs>
<filter color-interpolation-filters="sRGB" filterUnits="userSpaceOnUse" height="16" id="filter0_d_1_383" width="13.6" x="18.4" y="17">
<feFlood flood-opacity="0" result="BackgroundImageFix"/>
<feColorMatrix in="SourceAlpha" result="hardAlpha" type="matrix" values="0 0 0 0 0 0 0 0 0 0 0 0 0 0 0 0 0 0 127 0"/>
<feOffset dy="1"/>
<feGaussianBlur stdDeviation="1"/>
<feColorMatrix type="matrix" values="0 0 0 0 0 0 0 0 0 0 0 0 0 0 0 0 0 0 0.1 0"/>
<feBlend in2="BackgroundImageFix" mode="multiply" result="effect1_dropShadow_1_383"/>
<feBlend in="SourceGraphic" in2="effect1_dropShadow_1_383" mode="normal" result="shape"/>
</filter>
<linearGradient gradientUnits="userSpaceOnUse" id="paint0_linear_1_383" x1="24" x2="24" y1="8.4" y2="39.6">
<stop stop-color="white"/>
<stop offset="1" stop-color="white" stop-opacity="0"/>
</linearGradient>
<clipPath id="clip0_1_383">
<rect fill="white" height="14.4" transform="translate(16.8 16.8)" width="14.4"/>
</clipPath>
</defs>
</svg>