<?xml version="1.0" encoding="utf-8"?>
<svg xmlns="http://www.w3.org/2000/svg" fill="none" height="48" viewBox="0 0 48 48" width="48">
<circle cx="24" cy="24" fill="#FF8A00" r="24"/>
<g filter="url(#filter0_ddi_1_365)">
<path d="M9.60001 23.04C9.60001 18.3356 9.60001 15.9833 10.5156 14.1865C11.3209 12.6059 12.6059 11.3209 14.1865 10.5155C15.9833 9.6 18.3356 9.6 23.04 9.6H24.96C29.6644 9.6 32.0167 9.6 33.8135 10.5155C35.3941 11.3209 36.6791 12.6059 37.4845 14.1865C38.4 15.9833 38.4 18.3356 38.4 23.04V24.96C38.4 29.6644 38.4 32.0167 37.4845 33.8135C36.6791 35.3941 35.3941 36.6791 33.8135 37.4845C32.0167 38.4 29.6644 38.4 24.96 38.4H23.04C18.3356 38.4 15.9833 38.4 14.1865 37.4845C12.6059 36.6791 11.3209 35.3941 10.5156 33.8135C9.60001 32.0167 9.60001 29.6644 9.60001 24.96V23.04Z" fill="#FFA73F"/>
<path d="M9.60001 23.04C9.60001 18.3356 9.60001 15.9833 10.5156 14.1865C11.3209 12.6059 12.6059 11.3209 14.1865 10.5155C15.9833 9.6 18.3356 9.6 23.04 9.6H24.96C29.6644 9.6 32.0167 9.6 33.8135 10.5155C35.3941 11.3209 36.6791 12.6059 37.4845 14.1865C38.4 15.9833 38.4 18.3356 38.4 23.04V24.96C38.4 29.6644 38.4 32.0167 37.4845 33.8135C36.6791 35.3941 35.3941 36.6791 33.8135 37.4845C32.0167 38.4 29.6644 38.4 24.96 38.4H23.04C18.3356 38.4 15.9833 38.4 14.1865 37.4845C12.6059 36.6791 11.3209 35.3941 10.5156 33.8135C9.60001 32.0167 9.60001 29.6644 9.60001 24.96V23.04Z" fill="url(#paint0_linear_1_365)" fill-opacity="0.2"/>
</g>
<g filter="url(#filter1_d_1_365)">
<path d="M19.2 21.6C20.5255 21.6 21.6 20.5255 21.6 19.2C21.6 17.8745 20.5255 16.8 19.2 16.8C17.8745 16.8 16.8 17.8745 16.8 19.2C16.8 20.5255 17.8745 21.6 19.2 21.6Z" stroke="white" stroke-linecap="round" stroke-linejoin="round" stroke-width="2"/>
<path d="M19.2 31.2C20.5255 31.2 21.6 30.1255 21.6 28.8C21.6 27.4745 20.5255 26.4 19.2 26.4C17.8745 26.4 16.8 27.4745 16.8 28.8C16.8 30.1255 17.8745 31.2 19.2 31.2Z" stroke="white" stroke-linecap="round" stroke-linejoin="round" stroke-width="2"/>
<path d="M30.4 17.6L20.896 27.104" stroke="white" stroke-linecap="round" stroke-linejoin="round" stroke-width="2"/>
<path d="M25.976 25.984L30.4 30.4" stroke="white" stroke-linecap="round" stroke-linejoin="round" stroke-width="2"/>
<path d="M20.896 20.896L24 24" stroke="white" stroke-linecap="round" stroke-linejoin="round" stroke-width="2"/>
</g>
<defs>
<filter color-interpolation-filters="sRGB" filterUnits="userSpaceOnUse" height="38.8" id="filter0_ddi_1_365" width="36.8" x="5.60001" y="8.6">
<feFlood flood-opacity="0" result="BackgroundImageFix"/>
<feColorMatrix in="SourceAlpha" result="hardAlpha" type="matrix" values="0 0 0 0 0 0 0 0 0 0 0 0 0 0 0 0 0 0 127 0"/>
<feOffset dy="3"/>
<feGaussianBlur stdDeviation="2"/>
<feColorMatrix type="matrix" values="0 0 0 0 0 0 0 0 0 0 0 0 0 0 0 0 0 0 0.05 0"/>
<feBlend in2="BackgroundImageFix" mode="multiply" result="effect1_dropShadow_1_365"/>
<feColorMatrix in="SourceAlpha" result="hardAlpha" type="matrix" values="0 0 0 0 0 0 0 0 0 0 0 0 0 0 0 0 0 0 127 0"/>
<feOffset dy="5"/>
<feGaussianBlur stdDeviation="2"/>
<feColorMatrix type="matrix" values="0 0 0 0 0 0 0 0 0 0 0 0 0 0 0 0 0 0 0.05 0"/>
<feBlend in2="effect1_dropShadow_1_365" mode="multiply" result="effect2_dropShadow_1_365"/>
<feBlend in="SourceGraphic" in2="effect2_dropShadow_1_365" mode="normal" result="shape"/>
<feColorMatrix in="SourceAlpha" result="hardAlpha" type="matrix" values="0 0 0 0 0 0 0 0 0 0 0 0 0 0 0 0 0 0 127 0"/>
<feOffset dy="0.5"/>
<feComposite in2="hardAlpha" k2="-1" k3="1" operator="arithmetic"/>
<feColorMatrix type="matrix" values="0 0 0 0 1 0 0 0 0 1 0 0 0 0 1 0 0 0 0.1 0"/>
<feBlend in2="shape" mode="normal" result="effect3_innerShadow_1_365"/>
</filter>
<filter color-interpolation-filters="sRGB" filterUnits="userSpaceOnUse" height="23.2" id="filter1_d_1_365" width="23.2" x="12.4" y="13.4">
<feFlood flood-opacity="0" result="BackgroundImageFix"/>
<feColorMatrix in="SourceAlpha" result="hardAlpha" type="matrix" values="0 0 0 0 0 0 0 0 0 0 0 0 0 0 0 0 0 0 127 0"/>
<feOffset dy="1"/>
<feGaussianBlur stdDeviation="1"/>
<feColorMatrix type="matrix" values="0 0 0 0 0 0 0 0 0 0 0 0 0 0 0 0 0 0 0.1 0"/>
<feBlend in2="BackgroundImageFix" mode="multiply" result="effect1_dropShadow_1_365"/>
<feBlend in="SourceGraphic" in2="effect1_dropShadow_1_365" mode="normal" result="shape"/>
</filter>
<linearGradient gradientUnits="userSpaceOnUse" id="paint0_linear_1_365" x1="24" x2="24" y1="9.6" y2="38.4">
<stop stop-color="white"/>
<stop offset="1" stop-color="white" stop-opacity="0"/>
</linearGradient>
</defs>
</svg>