<?xml version="1.0" encoding="utf-8"?>
<svg xmlns="http://www.w3.org/2000/svg" fill="none" height="48" viewBox="0 0 48 48" width="48">
<circle cx="24" cy="24" fill="#FF5454" r="24"/>
<g filter="url(#filter0_ddi_1_367)">
<path d="M9.60001 24C9.60001 18.9595 9.60001 16.4393 10.5809 14.5141C11.4438 12.8206 12.8206 11.4438 14.5141 10.5809C16.4393 9.6 18.9595 9.6 24 9.6V9.6C29.0405 9.6 31.5607 9.6 33.4859 10.5809C35.1794 11.4438 36.5562 12.8206 37.4191 14.5141C38.4 16.4393 38.4 18.9595 38.4 24V24C38.4 29.0405 38.4 31.5607 37.4191 33.4859C36.5562 35.1794 35.1794 36.5562 33.4859 37.4191C31.5607 38.4 29.0405 38.4 24 38.4V38.4C18.9595 38.4 16.4393 38.4 14.5141 37.4191C12.8206 36.5562 11.4438 35.1794 10.5809 33.4859C9.60001 31.5607 9.60001 29.0405 9.60001 24V24Z" fill="#FF7272"/>
<path d="M9.60001 24C9.60001 18.9595 9.60001 16.4393 10.5809 14.5141C11.4438 12.8206 12.8206 11.4438 14.5141 10.5809C16.4393 9.6 18.9595 9.6 24 9.6V9.6C29.0405 9.6 31.5607 9.6 33.4859 10.5809C35.1794 11.4438 36.5562 12.8206 37.4191 14.5141C38.4 16.4393 38.4 18.9595 38.4 24V24C38.4 29.0405 38.4 31.5607 37.4191 33.4859C36.5562 35.1794 35.1794 36.5562 33.4859 37.4191C31.5607 38.4 29.0405 38.4 24 38.4V38.4C18.9595 38.4 16.4393 38.4 14.5141 37.4191C12.8206 36.5562 11.4438 35.1794 10.5809 33.4859C9.60001 31.5607 9.60001 29.0405 9.60001 24V24Z" fill="url(#paint0_linear_1_367)" fill-opacity="0.2"/>
</g>
<g filter="url(#filter1_d_1_367)">
<path clip-rule="evenodd" d="M14.05 19.75C14.05 17.6789 15.7289 16 17.8 16H26.3C28.3711 16 30.05 17.6789 30.05 19.75V19.7857L32.0671 18.6091C33.4337 17.8119 35.15 18.7977 35.15 20.3799V27.6201C35.15 29.2023 33.4337 30.1881 32.0671 29.3908L30.05 28.2142V28.25C30.05 30.3211 28.3711 32 26.3 32H17.8C15.7289 32 14.05 30.3211 14.05 28.25V19.75ZM30.05 25.4357L32.75 27.0107V20.9892L30.05 22.5642V25.4357ZM17.8 18.4C17.0544 18.4 16.45 19.0044 16.45 19.75V28.25C16.45 28.9956 17.0544 29.6 17.8 29.6H26.3C27.0456 29.6 27.65 28.9956 27.65 28.25V19.75C27.65 19.0044 27.0456 18.4 26.3 18.4H17.8Z" fill="white" fill-rule="evenodd"/>
</g>
<defs>
<filter color-interpolation-filters="sRGB" filterUnits="userSpaceOnUse" height="38.8" id="filter0_ddi_1_367" width="36.8" x="5.60001" y="8.6">
<feFlood flood-opacity="0" result="BackgroundImageFix"/>
<feColorMatrix in="SourceAlpha" result="hardAlpha" type="matrix" values="0 0 0 0 0 0 0 0 0 0 0 0 0 0 0 0 0 0 127 0"/>
<feOffset dy="3"/>
<feGaussianBlur stdDeviation="2"/>
<feColorMatrix type="matrix" values="0 0 0 0 0 0 0 0 0 0 0 0 0 0 0 0 0 0 0.05 0"/>
<feBlend in2="BackgroundImageFix" mode="multiply" result="effect1_dropShadow_1_367"/>
<feColorMatrix in="SourceAlpha" result="hardAlpha" type="matrix" values="0 0 0 0 0 0 0 0 0 0 0 0 0 0 0 0 0 0 127 0"/>
<feOffset dy="5"/>
<feGaussianBlur stdDeviation="2"/>
<feColorMatrix type="matrix" values="0 0 0 0 0 0 0 0 0 0 0 0 0 0 0 0 0 0 0.05 0"/>
<feBlend in2="effect1_dropShadow_1_367" mode="multiply" result="effect2_dropShadow_1_367"/>
<feBlend in="SourceGraphic" in2="effect2_dropShadow_1_367" mode="normal" result="shape"/>
<feColorMatrix in="SourceAlpha" result="hardAlpha" type="matrix" values="0 0 0 0 0 0 0 0 0 0 0 0 0 0 0 0 0 0 127 0"/>
<feOffset dy="0.5"/>
<feComposite in2="hardAlpha" k2="-1" k3="1" operator="arithmetic"/>
<feColorMatrix type="matrix" values="0 0 0 0 1 0 0 0 0 1 0 0 0 0 1 0 0 0 0.1 0"/>
<feBlend in2="shape" mode="normal" result="effect3_innerShadow_1_367"/>
</filter>
<filter color-interpolation-filters="sRGB" filterUnits="userSpaceOnUse" height="24.4" id="filter1_d_1_367" width="25.1" x="12.05" y="12.8">
<feFlood flood-opacity="0" result="BackgroundImageFix"/>
<feColorMatrix in="SourceAlpha" result="hardAlpha" type="matrix" values="0 0 0 0 0 0 0 0 0 0 0 0 0 0 0 0 0 0 127 0"/>
<feOffset dy="1"/>
<feGaussianBlur stdDeviation="1"/>
<feColorMatrix type="matrix" values="0 0 0 0 0 0 0 0 0 0 0 0 0 0 0 0 0 0 0.1 0"/>
<feBlend in2="BackgroundImageFix" mode="multiply" result="effect1_dropShadow_1_367"/>
<feBlend in="SourceGraphic" in2="effect1_dropShadow_1_367" mode="normal" result="shape"/>
</filter>
<linearGradient gradientUnits="userSpaceOnUse" id="paint0_linear_1_367" x1="24" x2="24" y1="9.6" y2="38.4">
<stop stop-color="white"/>
<stop offset="1" stop-color="white" stop-opacity="0"/>
</linearGradient>
</defs>
</svg>