<?xml version="1.0" encoding="utf-8"?>
<svg xmlns="http://www.w3.org/2000/svg" fill="none" height="48" viewBox="0 0 48 48" width="48">
<circle cx="24" cy="24" fill="#954CFF" r="24"/>
<g filter="url(#filter0_ddi_1_371)">
<path clip-rule="evenodd" d="M10.3848 13.5313C9.60001 15.0714 9.60001 17.0876 9.60001 21.12V26.88C9.60001 30.9124 9.60001 32.9286 10.3848 34.4687C11.075 35.8235 12.1765 36.925 13.5313 37.6152C15.0714 38.4 17.0876 38.4 21.12 38.4H26.88C30.9124 38.4 32.9286 38.4 34.4687 37.6152C35.8235 36.925 36.925 35.8235 37.6153 34.4687C38.4 32.9286 38.4 30.9124 38.4 26.88V21.12C38.4 17.0876 38.4 15.0714 37.6153 13.5313C36.925 12.1765 35.8235 11.075 34.4687 10.3848C32.9286 9.6 30.9124 9.6 26.88 9.6H21.12C17.0876 9.6 15.0714 9.6 13.5313 10.3848C12.1765 11.075 11.075 12.1765 10.3848 13.5313ZM16.8 30.1159C15.9302 30.1159 15.225 30.8211 15.225 31.6909C15.225 32.5608 15.9302 33.2659 16.8 33.2659H31.2C32.0699 33.2659 32.775 32.5608 32.775 31.6909C32.775 30.8211 32.0699 30.1159 31.2 30.1159H16.8Z" fill="#B079FF" fill-rule="evenodd"/>
<path clip-rule="evenodd" d="M10.3848 13.5313C9.60001 15.0714 9.60001 17.0876 9.60001 21.12V26.88C9.60001 30.9124 9.60001 32.9286 10.3848 34.4687C11.075 35.8235 12.1765 36.925 13.5313 37.6152C15.0714 38.4 17.0876 38.4 21.12 38.4H26.88C30.9124 38.4 32.9286 38.4 34.4687 37.6152C35.8235 36.925 36.925 35.8235 37.6153 34.4687C38.4 32.9286 38.4 30.9124 38.4 26.88V21.12C38.4 17.0876 38.4 15.0714 37.6153 13.5313C36.925 12.1765 35.8235 11.075 34.4687 10.3848C32.9286 9.6 30.9124 9.6 26.88 9.6H21.12C17.0876 9.6 15.0714 9.6 13.5313 10.3848C12.1765 11.075 11.075 12.1765 10.3848 13.5313ZM16.8 30.1159C15.9302 30.1159 15.225 30.8211 15.225 31.6909C15.225 32.5608 15.9302 33.2659 16.8 33.2659H31.2C32.0699 33.2659 32.775 32.5608 32.775 31.6909C32.775 30.8211 32.0699 30.1159 31.2 30.1159H16.8Z" fill="url(#paint0_linear_1_371)" fill-opacity="0.2" fill-rule="evenodd"/>
<path d="M15.225 31.6909C15.225 30.8211 15.9302 30.1159 16.8 30.1159H31.2C32.0699 30.1159 32.775 30.8211 32.775 31.6909C32.775 32.5608 32.0699 33.2659 31.2 33.2659H16.8C15.9302 33.2659 15.225 32.5608 15.225 31.6909Z" fill="#B079FF"/>
<path d="M15.225 31.6909C15.225 30.8211 15.9302 30.1159 16.8 30.1159H31.2C32.0699 30.1159 32.775 30.8211 32.775 31.6909C32.775 32.5608 32.0699 33.2659 31.2 33.2659H16.8C15.9302 33.2659 15.225 32.5608 15.225 31.6909Z" fill="url(#paint1_linear_1_371)" fill-opacity="0.2"/>
</g>
<g filter="url(#filter1_d_1_371)">
<path d="M15.225 31.6909C15.225 30.8211 15.9302 30.1159 16.8 30.1159H31.2C32.0699 30.1159 32.775 30.8211 32.775 31.6909C32.775 32.5608 32.0699 33.2659 31.2 33.2659H16.8C15.9302 33.2659 15.225 32.5608 15.225 31.6909Z" fill="white"/>
</g>
<defs>
<filter color-interpolation-filters="sRGB" filterUnits="userSpaceOnUse" height="38.8" id="filter0_ddi_1_371" width="36.8" x="5.60001" y="8.6">
<feFlood flood-opacity="0" result="BackgroundImageFix"/>
<feColorMatrix in="SourceAlpha" result="hardAlpha" type="matrix" values="0 0 0 0 0 0 0 0 0 0 0 0 0 0 0 0 0 0 127 0"/>
<feOffset dy="3"/>
<feGaussianBlur stdDeviation="2"/>
<feColorMatrix type="matrix" values="0 0 0 0 0 0 0 0 0 0 0 0 0 0 0 0 0 0 0.05 0"/>
<feBlend in2="BackgroundImageFix" mode="multiply" result="effect1_dropShadow_1_371"/>
<feColorMatrix in="SourceAlpha" result="hardAlpha" type="matrix" values="0 0 0 0 0 0 0 0 0 0 0 0 0 0 0 0 0 0 127 0"/>
<feOffset dy="5"/>
<feGaussianBlur stdDeviation="2"/>
<feColorMatrix type="matrix" values="0 0 0 0 0 0 0 0 0 0 0 0 0 0 0 0 0 0 0.05 0"/>
<feBlend in2="effect1_dropShadow_1_371" mode="multiply" result="effect2_dropShadow_1_371"/>
<feBlend in="SourceGraphic" in2="effect2_dropShadow_1_371" mode="normal" result="shape"/>
<feColorMatrix in="SourceAlpha" result="hardAlpha" type="matrix" values="0 0 0 0 0 0 0 0 0 0 0 0 0 0 0 0 0 0 127 0"/>
<feOffset dy="0.5"/>
<feComposite in2="hardAlpha" k2="-1" k3="1" operator="arithmetic"/>
<feColorMatrix type="matrix" values="0 0 0 0 1 0 0 0 0 1 0 0 0 0 1 0 0 0 0.1 0"/>
<feBlend in2="shape" mode="normal" result="effect3_innerShadow_1_371"/>
</filter>
<filter color-interpolation-filters="sRGB" filterUnits="userSpaceOnUse" height="32.8" id="filter1_d_1_371" width="32.8" x="7.60001" y="8.6">
<feFlood flood-opacity="0" result="BackgroundImageFix"/>
<feColorMatrix in="SourceAlpha" result="hardAlpha" type="matrix" values="0 0 0 0 0 0 0 0 0 0 0 0 0 0 0 0 0 0 127 0"/>
<feOffset dy="1"/>
<feGaussianBlur stdDeviation="1"/>
<feColorMatrix type="matrix" values="0 0 0 0 0 0 0 0 0 0 0 0 0 0 0 0 0 0 0.1 0"/>
<feBlend in2="BackgroundImageFix" mode="multiply" result="effect1_dropShadow_1_371"/>
<feBlend in="SourceGraphic" in2="effect1_dropShadow_1_371" mode="normal" result="shape"/>
</filter>
<linearGradient gradientUnits="userSpaceOnUse" id="paint0_linear_1_371" x1="24" x2="24" y1="9.6" y2="38.4">
<stop stop-color="white"/>
<stop offset="1" stop-color="white" stop-opacity="0"/>
</linearGradient>
<linearGradient gradientUnits="userSpaceOnUse" id="paint1_linear_1_371" x1="24" x2="24" y1="9.6" y2="38.4">
<stop stop-color="white"/>
<stop offset="1" stop-color="white" stop-opacity="0"/>
</linearGradient>
</defs>
</svg>