<?xml version="1.0" encoding="utf-8"?>
<svg xmlns="http://www.w3.org/2000/svg" fill="none" height="49" viewBox="0 0 48 49" width="48">
<circle cx="24" cy="24" fill="#FF7A00" r="24"/>
<g filter="url(#filter0_ddi_1_379)">
<path d="M8.39999 24C8.39999 15.3844 15.3844 8.4 24 8.4V8.4C32.6156 8.4 39.6 15.3844 39.6 24V24C39.6 32.6156 32.6156 39.6 24 39.6V39.6C15.3844 39.6 8.39999 32.6156 8.39999 24V24Z" fill="#FF9637"/>
<path d="M8.39999 24C8.39999 15.3844 15.3844 8.4 24 8.4V8.4C32.6156 8.4 39.6 15.3844 39.6 24V24C39.6 32.6156 32.6156 39.6 24 39.6V39.6C15.3844 39.6 8.39999 32.6156 8.39999 24V24Z" fill="url(#paint0_linear_1_379)" fill-opacity="0.2"/>
</g>
<g filter="url(#filter1_ddi_1_379)">
<path d="M21.0376 19.5L21.0376 31.0986C21.0376 31.2221 21.0055 31.3436 20.9444 31.4525C20.8832 31.5614 20.7947 31.6542 20.6869 31.7227L19.6048 32.4097C19.4998 32.4763 19.3796 32.518 19.2541 32.5311C19.1287 32.5443 19.0018 32.5285 18.884 32.4852C18.7663 32.4418 18.6613 32.3722 18.5778 32.2821C18.4942 32.192 18.4346 32.0841 18.404 31.9675L17.1001 27" fill="#FFC795"/>
<path d="M21.0376 19.5L21.0376 31.0986C21.0376 31.2221 21.0055 31.3436 20.9444 31.4525C20.8832 31.5614 20.7947 31.6542 20.6869 31.7227L19.6048 32.4097C19.4998 32.4763 19.3796 32.518 19.2541 32.5311C19.1287 32.5443 19.0018 32.5285 18.884 32.4852C18.7663 32.4418 18.6613 32.3722 18.5778 32.2821C18.4942 32.192 18.4346 32.0841 18.404 31.9675L17.1001 27" fill="url(#paint1_linear_1_379)" fill-opacity="0.2"/>
</g>
<g filter="url(#filter2_d_1_379)">
<path d="M17.1 27C16.0558 27 15.0542 26.6049 14.3158 25.9017C13.5774 25.1984 13.1625 24.2446 13.1625 23.25C13.1625 22.2554 13.5774 21.3016 14.3158 20.5983C15.0542 19.8951 16.0558 19.5 17.1 19.5L21.0375 19.5C21.0375 19.5 25.5287 19.5 30.6867 15.3799C30.8014 15.288 30.9413 15.2291 31.09 15.2103C31.2386 15.1915 31.3898 15.2135 31.5258 15.2737C31.6617 15.3339 31.7768 15.4298 31.8574 15.5502C31.9381 15.6706 31.981 15.8104 31.9811 15.9532L31.9811 30.5468C31.981 30.6896 31.9381 30.8294 31.8574 30.9498C31.7768 31.0702 31.6617 31.1661 31.5258 31.2263C31.3898 31.2865 31.2386 31.3085 31.09 31.2897C30.9413 31.2709 30.8014 31.212 30.6867 31.1201C25.5287 27 21.0375 27 21.0375 27L17.1 27Z" fill="white"/>
</g>
<g filter="url(#filter3_ddi_1_379)">
<path d="M21.0376 27L17.1001 27C16.0558 27 15.0543 26.6049 14.3158 25.9017C13.5774 25.1984 13.1626 24.2446 13.1626 23.25C13.1626 22.2554 13.5774 21.3016 14.3158 20.5983C15.0543 19.8951 16.0558 19.5 17.1001 19.5L21.0376 19.5L21.0376 27Z" fill="#FFC795"/>
<path d="M21.0376 27L17.1001 27C16.0558 27 15.0543 26.6049 14.3158 25.9017C13.5774 25.1984 13.1626 24.2446 13.1626 23.25C13.1626 22.2554 13.5774 21.3016 14.3158 20.5983C15.0543 19.8951 16.0558 19.5 17.1001 19.5L21.0376 19.5L21.0376 27Z" fill="url(#paint2_linear_1_379)" fill-opacity="0.2"/>
</g>
<defs>
<filter color-interpolation-filters="sRGB" filterUnits="userSpaceOnUse" height="41.2" id="filter0_ddi_1_379" width="39.2" x="4.39999" y="7.4">
<feFlood flood-opacity="0" result="BackgroundImageFix"/>
<feColorMatrix in="SourceAlpha" result="hardAlpha" type="matrix" values="0 0 0 0 0 0 0 0 0 0 0 0 0 0 0 0 0 0 127 0"/>
<feOffset dy="3"/>
<feGaussianBlur stdDeviation="2"/>
<feColorMatrix type="matrix" values="0 0 0 0 0 0 0 0 0 0 0 0 0 0 0 0 0 0 0.05 0"/>
<feBlend in2="BackgroundImageFix" mode="multiply" result="effect1_dropShadow_1_379"/>
<feColorMatrix in="SourceAlpha" result="hardAlpha" type="matrix" values="0 0 0 0 0 0 0 0 0 0 0 0 0 0 0 0 0 0 127 0"/>
<feOffset dy="5"/>
<feGaussianBlur stdDeviation="2"/>
<feColorMatrix type="matrix" values="0 0 0 0 0 0 0 0 0 0 0 0 0 0 0 0 0 0 0.05 0"/>
<feBlend in2="effect1_dropShadow_1_379" mode="multiply" result="effect2_dropShadow_1_379"/>
<feBlend in="SourceGraphic" in2="effect2_dropShadow_1_379" mode="normal" result="shape"/>
<feColorMatrix in="SourceAlpha" result="hardAlpha" type="matrix" values="0 0 0 0 0 0 0 0 0 0 0 0 0 0 0 0 0 0 127 0"/>
<feOffset dy="0.5"/>
<feComposite in2="hardAlpha" k2="-1" k3="1" operator="arithmetic"/>
<feColorMatrix type="matrix" values="0 0 0 0 1 0 0 0 0 1 0 0 0 0 1 0 0 0 0.1 0"/>
<feBlend in2="shape" mode="normal" result="effect3_innerShadow_1_379"/>
</filter>
<filter color-interpolation-filters="sRGB" filterUnits="userSpaceOnUse" height="23.0356" id="filter1_ddi_1_379" width="11.9375" x="13.1001" y="18.5">
<feFlood flood-opacity="0" result="BackgroundImageFix"/>
<feColorMatrix in="SourceAlpha" result="hardAlpha" type="matrix" values="0 0 0 0 0 0 0 0 0 0 0 0 0 0 0 0 0 0 127 0"/>
<feOffset dy="3"/>
<feGaussianBlur stdDeviation="2"/>
<feColorMatrix type="matrix" values="0 0 0 0 0 0 0 0 0 0 0 0 0 0 0 0 0 0 0.05 0"/>
<feBlend in2="BackgroundImageFix" mode="multiply" result="effect1_dropShadow_1_379"/>
<feColorMatrix in="SourceAlpha" result="hardAlpha" type="matrix" values="0 0 0 0 0 0 0 0 0 0 0 0 0 0 0 0 0 0 127 0"/>
<feOffset dy="5"/>
<feGaussianBlur stdDeviation="2"/>
<feColorMatrix type="matrix" values="0 0 0 0 0 0 0 0 0 0 0 0 0 0 0 0 0 0 0.05 0"/>
<feBlend in2="effect1_dropShadow_1_379" mode="multiply" result="effect2_dropShadow_1_379"/>
<feBlend in="SourceGraphic" in2="effect2_dropShadow_1_379" mode="normal" result="shape"/>
<feColorMatrix in="SourceAlpha" result="hardAlpha" type="matrix" values="0 0 0 0 0 0 0 0 0 0 0 0 0 0 0 0 0 0 127 0"/>
<feOffset dy="0.5"/>
<feComposite in2="hardAlpha" k2="-1" k3="1" operator="arithmetic"/>
<feColorMatrix type="matrix" values="0 0 0 0 1 0 0 0 0 1 0 0 0 0 1 0 0 0 0.1 0"/>
<feBlend in2="shape" mode="normal" result="effect3_innerShadow_1_379"/>
</filter>
<filter color-interpolation-filters="sRGB" filterUnits="userSpaceOnUse" height="20.0925" id="filter2_d_1_379" width="22.8185" x="11.1625" y="14.2038">
<feFlood flood-opacity="0" result="BackgroundImageFix"/>
<feColorMatrix in="SourceAlpha" result="hardAlpha" type="matrix" values="0 0 0 0 0 0 0 0 0 0 0 0 0 0 0 0 0 0 127 0"/>
<feOffset dy="1"/>
<feGaussianBlur stdDeviation="1"/>
<feColorMatrix type="matrix" values="0 0 0 0 0 0 0 0 0 0 0 0 0 0 0 0 0 0 0.1 0"/>
<feBlend in2="BackgroundImageFix" mode="multiply" result="effect1_dropShadow_1_379"/>
<feBlend in="SourceGraphic" in2="effect1_dropShadow_1_379" mode="normal" result="shape"/>
</filter>
<filter color-interpolation-filters="sRGB" filterUnits="userSpaceOnUse" height="17.5" id="filter3_ddi_1_379" width="15.875" x="9.16257" y="18.5">
<feFlood flood-opacity="0" result="BackgroundImageFix"/>
<feColorMatrix in="SourceAlpha" result="hardAlpha" type="matrix" values="0 0 0 0 0 0 0 0 0 0 0 0 0 0 0 0 0 0 127 0"/>
<feOffset dy="3"/>
<feGaussianBlur stdDeviation="2"/>
<feColorMatrix type="matrix" values="0 0 0 0 0 0 0 0 0 0 0 0 0 0 0 0 0 0 0.05 0"/>
<feBlend in2="BackgroundImageFix" mode="multiply" result="effect1_dropShadow_1_379"/>
<feColorMatrix in="SourceAlpha" result="hardAlpha" type="matrix" values="0 0 0 0 0 0 0 0 0 0 0 0 0 0 0 0 0 0 127 0"/>
<feOffset dy="5"/>
<feGaussianBlur stdDeviation="2"/>
<feColorMatrix type="matrix" values="0 0 0 0 0 0 0 0 0 0 0 0 0 0 0 0 0 0 0.05 0"/>
<feBlend in2="effect1_dropShadow_1_379" mode="multiply" result="effect2_dropShadow_1_379"/>
<feBlend in="SourceGraphic" in2="effect2_dropShadow_1_379" mode="normal" result="shape"/>
<feColorMatrix in="SourceAlpha" result="hardAlpha" type="matrix" values="0 0 0 0 0 0 0 0 0 0 0 0 0 0 0 0 0 0 127 0"/>
<feOffset dy="0.5"/>
<feComposite in2="hardAlpha" k2="-1" k3="1" operator="arithmetic"/>
<feColorMatrix type="matrix" values="0 0 0 0 1 0 0 0 0 1 0 0 0 0 1 0 0 0 0.1 0"/>
<feBlend in2="shape" mode="normal" result="effect3_innerShadow_1_379"/>
</filter>
<linearGradient gradientUnits="userSpaceOnUse" id="paint0_linear_1_379" x1="24" x2="24" y1="8.4" y2="39.6">
<stop stop-color="white"/>
<stop offset="1" stop-color="white" stop-opacity="0"/>
</linearGradient>
<linearGradient gradientUnits="userSpaceOnUse" id="paint1_linear_1_379" x1="19.0688" x2="19.0688" y1="19.5" y2="32.5356">
<stop stop-color="white"/>
<stop offset="1" stop-color="white" stop-opacity="0"/>
</linearGradient>
<linearGradient gradientUnits="userSpaceOnUse" id="paint2_linear_1_379" x1="17.1001" x2="17.1001" y1="19.5" y2="27">
<stop stop-color="white"/>
<stop offset="1" stop-color="white" stop-opacity="0"/>
</linearGradient>
</defs>
</svg>