<?xml version="1.0" encoding="utf-8"?>
<svg xmlns="http://www.w3.org/2000/svg" fill="none" height="29" viewBox="0 0 97 29" width="97">
<path clip-rule="evenodd" d="M59.9902 22.6283C54.4154 26.7344 46.323 28.9224 39.3695 28.9224C29.5986 28.9224 20.8169 25.3258 14.1931 19.3014C13.6836 18.8219 14.1331 18.1924 14.7625 18.5521C21.9258 22.7182 30.7975 25.2358 39.9689 25.2358C46.1431 25.2358 52.9468 23.9471 59.1809 21.3095C60.14 20.9199 60.9193 21.9389 59.9902 22.6283Z" fill="#1E1E23" fill-rule="evenodd"/>
<path clip-rule="evenodd" d="M62.3281 19.9617C61.6087 19.0625 57.6225 19.5421 55.8242 19.7519C55.2847 19.8118 55.1947 19.3323 55.6743 19.0026C58.8813 16.7547 64.0964 17.4141 64.6958 18.1634C65.2953 18.9127 64.546 24.1577 61.5488 26.6754C61.0992 27.065 60.6496 26.8552 60.8594 26.3457C61.5188 24.6373 63.0474 20.8908 62.3281 19.9617Z" fill="#1E1E23" fill-rule="evenodd"/>
<path clip-rule="evenodd" d="M55.9439 3.14669V0.988713C55.9439 0.659022 56.1837 0.449219 56.4834 0.449219H66.2543C66.554 0.449219 66.8237 0.688994 66.8237 0.988713V2.84697C66.8237 3.14669 66.554 3.5663 66.0744 4.22568L61.0092 11.4489C62.8974 11.4189 64.8755 11.6887 66.5839 12.6478C66.9736 12.8576 67.0635 13.1873 67.0935 13.487V15.8248C67.0935 16.1545 66.7338 16.5142 66.3741 16.3343C63.3769 14.7458 59.3907 14.596 56.0638 16.3643C55.7341 16.5441 55.3745 16.1845 55.3745 15.8548V13.6369C55.3745 13.2772 55.3744 12.6778 55.7341 12.1383L61.5786 3.74613H56.4834C56.1837 3.71616 55.9439 3.47638 55.9439 3.14669Z" fill="#1E1E23" fill-rule="evenodd"/>
<path clip-rule="evenodd" d="M20.3373 16.754H17.3701C17.1004 16.7241 16.8606 16.5143 16.8306 16.2445V0.988814C16.8306 0.689095 17.1004 0.44932 17.4001 0.44932H20.1575C20.4572 0.44932 20.667 0.689095 20.697 0.958842V2.93699H20.7569C21.4763 1.01879 22.825 0.119629 24.6533 0.119629C26.5116 0.119629 27.6805 1.01879 28.5197 2.93699C29.239 1.01879 30.8875 0.119629 32.6258 0.119629C33.8846 0.119629 35.2334 0.629151 36.0726 1.79806C37.0017 3.08685 36.8219 4.94511 36.8219 6.56359V16.1846C36.8219 16.4843 36.5521 16.7241 36.2524 16.7241H33.2852C32.9855 16.6941 32.7457 16.4543 32.7457 16.1846V8.09215C32.7457 7.46274 32.8057 5.84426 32.6558 5.24482C32.446 4.22578 31.7566 3.92606 30.9174 3.92606C30.1981 3.92606 29.4488 4.40561 29.1491 5.18488C28.8494 5.96415 28.8793 7.22297 28.8793 8.09215V16.1846C28.8793 16.4843 28.6096 16.7241 28.3099 16.7241H25.3426C25.0429 16.6941 24.8032 16.4543 24.8032 16.1846V8.09215C24.8032 6.38376 25.0729 3.89609 22.9749 3.89609C20.8469 3.89609 20.9368 6.32381 20.9368 8.09215V16.1846C20.9068 16.5143 20.6371 16.754 20.3373 16.754Z" fill="#1E1E23" fill-rule="evenodd"/>
<path clip-rule="evenodd" d="M75.2159 0.149902C79.6218 0.149902 82.0196 3.92636 82.0196 8.75184C82.0196 13.3975 79.382 17.084 75.2159 17.084C70.9 17.084 68.5322 13.3076 68.5322 8.57201C68.5322 3.83645 70.9299 0.149902 75.2159 0.149902ZM75.2459 3.26698C73.058 3.26698 72.9081 6.26417 72.9081 8.12243C72.9081 9.98069 72.8781 13.9669 75.2159 13.9669C77.5238 13.9669 77.6137 10.76 77.6137 8.81178C77.6137 7.52299 77.5537 5.99442 77.1641 4.76557C76.8644 3.68659 76.205 3.26698 75.2459 3.26698Z" fill="#1E1E23" fill-rule="evenodd"/>
<path clip-rule="evenodd" d="M87.7442 16.754H84.777C84.4773 16.7241 84.2375 16.4843 84.2375 16.2145V0.958842C84.2675 0.689095 84.5072 0.44932 84.807 0.44932H87.5644C87.8341 0.44932 88.0439 0.629151 88.1039 0.868926V3.20673H88.1638C89.003 1.1087 90.1719 0.119629 92.21 0.119629C93.5288 0.119629 94.8475 0.599179 95.6868 1.91794C96.466 3.14679 96.466 5.18488 96.466 6.6535V16.2445C96.436 16.5143 96.1963 16.7241 95.8966 16.7241H92.9293C92.6596 16.6941 92.4198 16.5143 92.3898 16.2445V8.00224C92.3898 6.32381 92.5697 3.89609 90.5316 3.89609C89.8123 3.89609 89.1529 4.37564 88.8232 5.12494C88.4036 6.05407 88.3436 6.98319 88.3436 8.00224V16.2145C88.3137 16.5143 88.0439 16.754 87.7442 16.754Z" fill="#1E1E23" fill-rule="evenodd"/>
<path clip-rule="evenodd" d="M48.1513 9.47112C48.1513 10.64 48.1812 11.5991 47.5818 12.6182C47.1022 13.4574 46.353 13.9669 45.5137 13.9669C44.3748 13.9669 43.7154 13.0977 43.7154 11.8089C43.7154 9.29129 45.9933 8.81174 48.1213 8.81174V9.47112H48.1513ZM51.1485 16.7243C50.9387 16.9042 50.6689 16.9042 50.4591 16.7843C49.47 15.975 49.2902 15.5854 48.7507 14.8061C47.1322 16.4546 45.9633 16.9641 43.8653 16.9641C41.3776 16.9641 39.4294 15.4056 39.4294 12.3484C39.4294 9.95067 40.7482 8.30222 42.6065 7.49297C44.2249 6.77365 46.4728 6.65376 48.1812 6.47393V6.08429C48.1812 5.36497 48.2412 4.55573 47.8216 3.92632C47.4619 3.38682 46.7726 3.14705 46.1431 3.14705C45.0042 3.14705 44.0151 3.71652 43.7454 4.94536C43.6855 5.21511 43.5056 5.48486 43.2359 5.48486L40.3586 5.18514C40.1188 5.12519 39.8491 4.94536 39.909 4.55573C40.5684 1.04902 43.7154 0 46.5328 0C47.9714 0 49.8597 0.389635 50.9986 1.46862C52.4373 2.81736 52.3174 4.61567 52.3174 6.59382V11.2095C52.3174 12.5882 52.8868 13.2176 53.4263 13.9669C53.6062 14.2367 53.6661 14.5663 53.4263 14.7462C52.8269 15.2557 51.7479 16.2148 51.1485 16.7243Z" fill="#1E1E23" fill-rule="evenodd"/>
<path clip-rule="evenodd" d="M9.21774 9.47112C9.21774 10.64 9.24771 11.5991 8.64827 12.6182C8.16872 13.4574 7.41942 13.9669 6.58021 13.9669C5.44128 13.9669 4.7819 13.0977 4.7819 11.8089C4.7819 9.29129 7.05976 8.81174 9.18777 8.81174V9.47112H9.21774ZM12.2149 16.7243C12.0051 16.9042 11.7354 16.9042 11.5256 16.7843C10.5365 15.975 10.3567 15.5854 9.81718 14.8061C8.19869 16.4546 7.02979 16.9641 4.93176 16.9641C2.41412 16.9641 0.465942 15.4355 0.465942 12.3484C0.465942 9.95067 1.78471 8.30222 3.64296 7.49297C5.26145 6.77365 7.50934 6.65376 9.21774 6.47393V6.08429C9.21774 5.36497 9.27768 4.55573 8.85808 3.92632C8.49841 3.38682 7.80906 3.14705 7.17965 3.14705C6.04072 3.14705 5.05164 3.71652 4.7819 4.94536C4.72195 5.21511 4.54212 5.48486 4.27237 5.48486L1.39507 5.18514C1.1553 5.12519 0.885549 4.94536 0.945493 4.55573C1.63485 1.04902 4.7819 0 7.59926 0C9.03791 0 10.9561 0.389635 12.095 1.46862C13.5337 2.81736 13.4138 4.61567 13.4138 6.59382V11.2095C13.4138 12.5882 13.9833 13.2176 14.5228 13.9669C14.7026 14.2367 14.7625 14.5663 14.5228 14.7462C13.8934 15.2557 12.8144 16.2148 12.2149 16.7243Z" fill="#1E1E23" fill-rule="evenodd"/>
</svg>