<?xml version="1.0" encoding="utf-8"?>
<svg xmlns="http://www.w3.org/2000/svg" fill="none" height="21" viewBox="0 0 121 21" width="121">
<g clip-path="url(#clip0_178_13448)">
<path d="M48.9739 0C47.9677 0 47.1503 0.820549 47.1503 1.83504C47.1503 2.84822 47.9677 3.66964 48.9739 3.66964C49.9835 3.66964 50.804 2.84822 50.804 1.83504C50.804 0.820549 49.9835 0 48.9739 0Z" fill="#1E1E23"/>
<path d="M77.8016 12.2041C76.7954 12.2041 75.9784 13.0255 75.9784 14.0404C75.9784 15.0527 76.7954 15.8751 77.8016 15.8751C78.8108 15.8751 79.6311 15.0527 79.6311 14.0404C79.6311 13.0255 78.8108 12.2041 77.8016 12.2041Z" fill="#1E1E23"/>
<path clip-rule="evenodd" d="M17.1669 4.49463C13.838 4.49463 11.4221 6.89756 11.4221 10.2067C11.4221 13.5159 13.838 15.9184 17.1669 15.9184C20.5084 15.9184 22.9343 13.5159 22.9343 10.2067C22.9343 6.89756 20.5084 4.49463 17.1669 4.49463ZM17.1669 13.2476C15.5935 13.2476 14.4999 11.9957 14.4999 10.2067C14.4999 8.41822 15.5935 7.16716 17.1669 7.16716C18.7494 7.16716 19.8549 8.41822 19.8549 10.2067C19.8549 12.024 18.7725 13.2476 17.1669 13.2476Z" fill="#1E1E23" fill-rule="evenodd"/>
<path d="M43.1772 9.87853C43.3352 10.0425 43.4836 10.249 43.613 10.493L44.8088 12.762L46.6124 15.7507H44.1907C43.2779 15.7507 42.7926 15.598 42.3057 14.7035L40.5625 11.4074C40.45 11.2113 40.2046 11.1696 39.8445 11.1696H39.5484V15.7507H36.3884L36.3859 0.478516H37.8742C38.7436 0.478516 39.5484 0.65463 39.5484 1.94872V8.41876H40.0515C40.4292 8.41876 40.6814 8.32613 40.8063 8.14263L43.0136 4.72042H46.5798L43.6421 9.09539C43.4915 9.31714 43.3352 9.50848 43.1825 9.6698L43.0766 9.77156L43.1772 9.87853Z" fill="#1E1E23"/>
<path d="M58.9552 4.46973C57.3479 4.46973 56.3224 5.18504 55.7476 5.78991L55.5557 5.98429L55.488 5.71991C55.3192 5.07199 54.7501 4.71541 53.8937 4.71541H52.4774L52.4863 15.7457H55.6248V10.6619C55.6248 10.1649 55.6894 9.73352 55.8205 9.33998C56.1699 8.14894 57.1443 7.4084 58.3624 7.4084C59.3421 7.4084 59.7249 7.9263 59.7249 9.26476V14.0689C59.7249 15.2112 60.2523 15.7457 61.3934 15.7457H62.887L62.8819 8.73034C62.8819 5.94298 61.5241 4.46973 58.9552 4.46973Z" fill="#1E1E23"/>
<path d="M47.5303 4.7207H49.0179L49.019 4.72071C50.1323 4.72071 50.6706 5.26731 50.6706 6.3953L50.6642 15.7444H50.6591V15.7488H49.9229L49.1833 15.7509C49.1733 15.7509 49.1644 15.7504 49.1554 15.7499L49.1437 15.7492C49.1384 15.749 49.133 15.7488 49.1273 15.7488H47.5394V13.2493L47.5303 4.7207Z" fill="#1E1E23"/>
<path clip-rule="evenodd" d="M29.4931 4.49463C26.1608 4.49463 23.7444 6.89756 23.7444 10.2067C23.7444 13.5159 26.1608 15.9184 29.4931 15.9184C32.831 15.9184 35.2609 13.5159 35.2609 10.2067C35.2609 6.89756 32.831 4.49463 29.4931 4.49463ZM29.4931 13.2476C27.9197 13.2476 26.824 11.9957 26.824 10.2067C26.824 8.41822 27.9197 7.16716 29.4931 7.16716C31.0723 7.16716 32.1809 8.41822 32.1809 10.2067C32.1809 12.024 31.0988 13.2476 29.4931 13.2476Z" fill="#1E1E23" fill-rule="evenodd"/>
<path clip-rule="evenodd" d="M91.0212 10.2067C91.0212 6.89757 93.4377 4.49463 96.7691 4.49463C100.108 4.49463 102.537 6.89757 102.537 10.2067C102.537 13.5159 100.108 15.9184 96.7691 15.9184C93.4377 15.9184 91.0212 13.5159 91.0212 10.2067ZM94.0999 10.2067C94.0999 11.9957 95.1964 13.2476 96.7691 13.2476C98.3751 13.2476 99.4577 12.024 99.4577 10.2067C99.4577 8.41823 98.3486 7.16717 96.7691 7.16717C95.1964 7.16717 94.0999 8.41823 94.0999 10.2067Z" fill="#1E1E23" fill-rule="evenodd"/>
<path clip-rule="evenodd" d="M73.2877 4.69149C72.6921 4.69149 72.2338 4.92935 72.0041 5.36376L71.9173 5.53247L71.7719 5.40593C71.2653 4.96673 70.357 4.4458 68.882 4.4458C65.9472 4.4458 63.9714 6.65394 63.9714 9.94004C63.9714 13.2223 66.0158 15.516 68.941 15.516C69.9402 15.516 70.7298 15.2825 71.3557 14.8077L71.5979 14.6255V14.932C71.5979 16.4053 70.6469 17.218 68.9229 17.218C68.085 17.218 67.3224 17.0137 66.8124 16.8284C66.1465 16.6271 65.7562 16.7936 65.4863 17.4629L65.2371 18.0803L64.8846 18.9822L65.103 19.0987C66.2063 19.6853 67.6427 20.0354 68.941 20.0354C71.6139 20.0354 74.7349 18.6648 74.7349 14.8077L74.7463 4.69149H73.2877ZM69.4983 12.7626C67.7824 12.7626 67.1717 11.2628 67.1717 9.85742C67.1717 9.23822 67.328 7.2201 69.3334 7.2201C70.33 7.2201 71.6582 7.50622 71.6582 9.96136C71.6582 12.2769 70.4828 12.7626 69.4983 12.7626Z" fill="#1E1E23" fill-rule="evenodd"/>
<path clip-rule="evenodd" d="M8.27873 7.66006L8.74064 7.92009C9.86183 8.55236 10.5282 9.79558 10.5282 11.2497C10.5282 13.9505 8.46426 15.6943 5.26648 15.6943L1.51323 15.6951C1.51259 15.6947 1.51196 15.6947 1.511 15.6947C1.51004 15.6947 1.50877 15.6947 1.50686 15.6943H0.000305176V2.06928C0.00984927 1.20959 0.692217 0.514716 1.54507 0.483398L5.20165 0.484267C8.07827 0.484267 9.93688 2.03362 9.93688 4.43397C9.93688 6.00288 9.15079 6.91083 8.68194 7.31479L8.27873 7.66006ZM2.92287 13.1183L5.47772 13.1209C6.74128 13.12 7.52481 12.3473 7.5257 11.0428C7.52481 9.77174 6.72129 8.98598 5.47772 8.98598H3.7354C3.17595 9.06423 2.92287 9.40429 2.92287 10.0583V13.1183ZM2.92287 4.06086V6.63253H5.22245C6.51426 6.63253 6.97394 5.63195 6.97394 4.77444C6.97394 3.64993 6.3024 2.97766 5.18122 2.97766H3.87394C3.22059 3.02072 2.92287 3.35599 2.92287 4.06086Z" fill="#1E1E23" fill-rule="evenodd"/>
<path d="M116.555 4.50586C115.253 4.50586 113.994 5.1168 113.186 6.14129L112.959 6.43003L112.779 6.10695C112.198 5.04506 111.198 4.50586 109.807 4.50586C108.348 4.50586 107.37 5.32118 106.915 5.80603L106.618 6.12868L106.503 5.70427C106.337 5.09333 105.794 4.75675 104.972 4.75675H103.653L103.64 15.7444H106.637V10.8941C106.637 10.4693 106.69 10.0488 106.796 9.60917C107.083 8.43728 107.869 7.17667 109.19 7.30277C110.006 7.38104 110.404 8.012 110.404 9.23087V15.7444H113.422V10.8941C113.422 10.3632 113.472 9.96574 113.591 9.567C113.835 8.44815 114.655 7.30103 115.931 7.30103C116.853 7.30103 117.194 7.82458 117.194 9.23087V14.1381C117.194 15.2483 117.688 15.7444 118.796 15.7444H120.207L120.209 8.72993C120.209 5.9278 118.978 4.50586 116.555 4.50586Z" fill="#1E1E23"/>
<path d="M86.2867 13.3027C87.9847 13.3027 89.2745 11.9403 89.2835 11.9294L89.4544 11.7469L90.7549 13.908L90.6685 14.0142C90.6533 14.0337 89.0351 15.9931 86.0597 15.9931C82.6301 15.9931 80.1428 13.5793 80.1428 10.2519C80.1428 6.92315 82.6574 4.50586 86.1231 4.50586C87.7438 4.50586 90.1521 5.19378 90.1521 7.09057V8.5286L88.51 8.52682C88.3724 8.52682 87.6731 8.4855 87.4421 7.71452L87.4273 7.65712C87.3272 7.31707 86.6865 7.11487 86.1231 7.11487C84.3885 7.11487 83.1766 8.39592 83.1766 10.2288C83.1766 12.3517 84.7396 13.3027 86.2867 13.3027Z" fill="#1E1E23"/>
</g>
<defs>
<clipPath id="clip0_178_13448">
<rect fill="white" height="20.035" width="120.21"/>
</clipPath>
</defs>
</svg>