<?xml version="1.0" encoding="utf-8"?>
<svg xmlns="http://www.w3.org/2000/svg" fill="none" height="36" viewBox="0 0 86 36" width="86">
<path clip-rule="evenodd" d="M42.8486 3.8363C43.4406 3.88183 43.987 4.10951 44.4424 4.47379C45.0343 5.02021 45.2165 5.97644 44.8977 6.75053C43.8049 9.02728 41.1639 10.5299 39.388 11.0308C38.3407 11.304 36.9746 11.304 35.9729 10.8942C35.5175 11.1674 35.1077 12.0781 34.5157 11.7138C33.6961 11.0764 34.4247 10.0291 33.9238 9.30049C33.8327 9.16389 33.5595 9.11835 33.4684 8.89068C32.831 7.43356 33.605 6.06751 34.5157 4.97467C36.0639 3.28988 40.4353 1.42294 42.8486 3.8363ZM37.7943 4.97467C36.9291 5.11127 35.9729 5.52109 35.472 6.11304C34.9711 6.705 34.6068 7.29695 34.9256 7.93444C36.0184 7.11481 36.5648 5.97644 37.7943 5.29342C37.7943 5.15681 37.9764 5.06574 37.7943 4.97467ZM42.9397 5.29342C40.754 5.11128 39.1148 6.75053 37.6121 8.29872C37.5211 8.57193 36.9746 8.84514 37.3844 9.11835C39.4791 9.30049 41.4371 8.70854 42.9397 7.34249C43.3951 6.93267 43.7138 6.38625 43.4861 5.83983C43.3495 5.61216 43.1219 5.38449 42.9397 5.29342Z" fill="#1E1E23" fill-rule="evenodd"/>
<path clip-rule="evenodd" d="M61.7001 14.6733C62.7019 17.1322 63.567 21.0027 61.7001 23.3249C61.1992 23.8714 60.3341 24.4178 59.7421 23.9624C57.6475 22.2776 56.7823 19.9098 55.5073 17.7697C55.3252 17.6786 55.3252 17.9063 55.2341 18.0429C54.7788 20.2286 55.644 23.0517 54.1868 24.7365C53.6404 24.8276 53.094 24.5544 52.9119 23.9624C52.1833 21.7312 52.9574 19.4089 53.1395 17.1777C53.5949 16.0393 53.777 14.7188 54.7333 13.8992C56.327 14.5367 57.0555 16.267 57.9662 17.5875C58.6037 18.5438 59.1501 19.6821 59.9242 20.5473C60.5617 20.2741 60.243 19.4089 60.243 18.8625C59.9698 16.8134 59.4234 14.9465 58.8769 12.9885C58.8314 12.4876 58.5582 11.6225 59.1046 11.3037C60.4707 11.9867 61.1081 13.4439 61.7001 14.6733Z" fill="#1E1E23" fill-rule="evenodd"/>
<path clip-rule="evenodd" d="M52.2288 13.8988C52.2288 14.3541 51.8645 14.9461 51.5458 15.0372C48.5405 15.4925 45.1709 15.2193 42.3477 16.1755C42.2567 16.5398 42.6665 16.5853 42.8941 16.6764C45.3075 17.0407 47.8575 17.1318 50.2253 17.7237C51.4547 18.0425 51.9101 19.4996 52.0011 20.729C52.0467 21.6853 51.6824 22.8692 50.7262 23.5067C48.4039 24.9638 44.8522 24.9182 42.4843 23.5522C41.5736 23.0513 40.7085 22.2317 40.6629 21.2299C40.6629 20.4103 41.0272 19.8183 41.5736 19.4996C43.8504 18.5889 46.628 19.0898 48.586 20.2737C48.7226 20.9112 48.0396 20.8656 47.7209 21.0933C45.5352 22.3683 43.8959 19.6817 41.8924 20.638C41.6192 20.8201 41.3915 21.3665 41.7558 21.5031C44.2602 22.596 46.9923 21.8219 49.4512 21.1388C49.7244 21.0478 50.0887 20.7746 50.0887 20.5013C49.9976 19.4996 48.8592 19.2719 48.1307 18.9987C45.9905 18.4523 43.6227 18.4523 41.346 18.2246C40.8906 18.1335 40.3442 17.8148 40.2076 17.4505C39.9344 16.6764 39.9344 15.6746 40.5263 15.0372C43.4406 12.4417 47.903 12.6693 51.5913 13.3524C51.8645 13.5345 52.1377 13.6256 52.2288 13.8988Z" fill="#1E1E23" fill-rule="evenodd"/>
<path clip-rule="evenodd" d="M38.4773 15.1286C38.7505 18.1339 38.9326 20.9571 38.8415 24.099C38.796 24.5088 38.2951 24.5999 37.9764 24.7365C37.4755 24.8275 36.838 24.7365 36.6103 24.4633C35.8818 23.2794 36.155 21.7312 36.0639 20.3196C36.155 18.0884 36.1094 15.675 36.7469 13.5804C36.8835 13.2617 37.2023 13.034 37.521 13.2161C38.3407 13.5804 38.4773 14.3545 38.4773 15.1286Z" fill="#1E1E23" fill-rule="evenodd"/>
<path clip-rule="evenodd" d="M73.4026 14.6735C73.5392 14.9467 73.7214 15.311 73.4026 15.4931C71.991 16.1306 70.0786 15.8574 68.4393 16.0396C67.984 16.4038 67.6652 17.0413 67.8018 17.6333C67.9384 17.7243 68.1206 17.861 68.2572 17.861C69.2589 17.9065 70.7616 17.4056 71.4446 18.3163C71.6268 18.5895 71.4446 19.6368 70.9893 19.6824C69.7598 19.819 67.7563 19.5457 67.1643 19.819C66.3902 20.3198 66.4813 21.2761 66.2081 22.0957C66.7545 22.46 67.3009 22.0957 67.9384 22.0046C69.1223 21.8225 70.3973 21.4582 71.5357 21.7314C71.7634 22.1412 72.0821 22.5966 71.8544 23.0975C69.8964 24.6912 67.3009 26.2849 64.6144 25.1465C63.6126 24.6912 63.1573 23.143 63.476 21.8225C63.7037 20.8663 64.6599 19.9556 64.068 18.9538C63.9769 18.4984 64.2046 18.1342 64.6144 18.0431C65.6617 18.0431 65.434 16.7681 65.9804 16.1762C65.3885 15.5387 63.8858 15.5387 64.0224 14.2182C64.751 13.8539 65.6162 13.9449 66.4358 13.8539C68.3027 13.4896 70.3518 13.2619 72.2643 13.4896C72.583 13.4441 73.0839 14.2182 73.4026 14.6735Z" fill="#1E1E23" fill-rule="evenodd"/>
<path clip-rule="evenodd" d="M28.5051 7.47891C31.4194 9.84672 35.1532 13.8993 34.6979 18.5439C34.1515 22.2322 30.2355 24.9643 26.9569 25.875C23.7695 26.8313 19.7169 26.7402 16.4384 25.9661C16.2107 26.5581 15.983 27.2866 15.3 27.5598C14.8446 27.6964 14.2982 27.6054 13.9339 27.3322C12.9777 26.4215 13.7518 24.6456 12.3402 24.0992C9.56257 22.9153 6.6028 20.6385 5.19122 17.8153C5.00908 17.2689 5.23675 16.677 5.5555 16.2216C7.74117 14.4913 10.4733 13.8083 13.2054 13.2618C13.342 13.3074 13.2964 13.1252 13.433 13.0342C13.5697 11.1672 13.6607 9.20924 14.2527 7.52444C14.3893 7.29677 14.708 7.2057 14.9357 7.38784C16.666 8.70835 15.8464 11.2128 16.6205 12.9886C19.899 13.1252 23.2231 13.3074 25.8186 15.1743C26.6837 15.9029 26.9114 17.2689 26.6382 18.043C26.365 18.8171 25.4543 19.4091 24.5891 19.4546C24.0427 19.4546 22.9499 19.5001 22.9954 19.0903C23.0409 18.6805 24.9079 17.9519 24.3614 17.36C23.5418 16.4948 19.4437 15.9939 16.8937 15.6752C16.575 15.6297 16.3017 15.7207 16.3017 16.0395C16.2562 18.4073 16.0285 21.0483 16.4384 23.3706C16.4839 23.5072 16.666 23.7349 16.8026 23.7349C21.3106 24.4634 26.0462 24.0536 29.5524 21.4581C31.1917 20.1376 31.7381 18.2707 31.4194 16.2216C30.0533 10.6208 24.1338 7.2057 19.2615 4.97448C14.5259 2.92541 9.24383 1.83257 3.64303 2.10578C2.73233 2.19685 1.32074 2.51559 1.32074 2.83434C1.32074 3.15308 2.91447 3.01648 2.73233 3.65397C2.55019 4.24592 0.910929 3.88164 0.410045 3.74504C-0.0908401 3.60843 -0.0453051 2.87987 0.0912998 2.47006C1.32074 0.28438 4.73587 0.10224 6.28406 0.0111705C14.8446 -0.216504 23.0865 3.06201 28.5051 7.47891ZM13.1143 15.9029C10.9286 15.9484 8.65187 16.1761 6.64834 16.9046C6.23852 17.0413 5.73764 17.4966 6.05638 18.043C6.87601 19.1359 8.05992 20.0466 9.15276 20.684C10.2456 21.3215 11.7027 22.1412 13.0232 22.3233C13.342 20.2742 13.342 18.2707 13.2964 16.1761C13.1598 16.1306 13.2964 15.9939 13.1143 15.9029Z" fill="#1E1E23" fill-rule="evenodd"/>
<path clip-rule="evenodd" d="M78.0927 13.0795C78.0016 15.8116 75.4517 17.4964 75.4517 20.2285C75.5427 20.3195 75.5883 20.4561 75.7249 20.3651C77.7739 18.1338 79.7775 14.9464 82.7828 14.0357C83.5569 13.9902 84.2854 14.6732 84.5586 15.1741C85.606 17.2687 85.3327 20.1829 83.9212 22.0499C82.4185 23.9168 79.823 25.7382 76.8632 25.465C75.6338 28.4703 74.7686 31.6577 74.3133 34.9362C74.0401 35.5737 73.4481 34.9818 73.0838 34.8907C70.5339 32.8872 72.6285 27.5596 72.8106 26.8766C72.9928 26.1935 73.6758 24.5998 74.1767 23.2793C72.9928 21.1392 73.7213 18.5437 74.7231 16.5857C75.4972 15.2651 76.499 13.9446 77.7284 12.9429C77.865 12.8973 78.0016 12.9429 78.0927 13.0795ZM83.1471 16.449C82.7828 16.4035 82.6006 16.9044 82.2819 16.9955C80.8248 18.6347 79.4132 20.274 78.6846 22.232C79.6409 22.3686 80.4605 21.7311 81.3257 21.3668C82.7828 20.4561 83.6935 18.9535 83.6024 17.2231C83.5113 16.9499 83.2837 16.7223 83.1471 16.449Z" fill="#1E1E23" fill-rule="evenodd"/>
</svg>