<?xml version="1.0" encoding="utf-8"?>
<svg xmlns="http://www.w3.org/2000/svg" fill="none" height="23" viewBox="0 0 121 23" width="121">
<g clip-path="url(#clip0_178_13496)">
<path d="M7.59976 5.51836C7.59976 4.16638 8.02353 3.55931 9.43613 3.55931L11.442 3.58693V0.165578C10.764 0.0552375 9.69039 0 8.78632 0C4.5768 0 3.0512 1.93143 3.0512 5.60108V7.78094H0V11.423H3.0512V22.4046H7.59976V11.3953H11.0182L11.3854 7.75332H7.59976V5.51836Z" fill="#1E1E23"/>
<path clip-rule="evenodd" d="M17.8537 7.47754C13.6724 7.47754 11.6948 10.5677 11.6948 14.6514L11.6666 15.5895C11.6666 19.673 13.6724 22.7634 17.8254 22.7634C20.0856 22.7634 21.5264 21.6597 22.148 20.2525V22.4599H26.5271V7.80856H22.1762V10.0435C21.4982 8.60882 20.1138 7.47754 17.8537 7.47754ZM19.1816 19.2867C17.0627 19.2867 16.2433 17.8244 16.2433 15.6447V14.5961C16.2433 12.3888 17.0627 10.9542 19.1816 10.9542C21.0462 10.9542 21.9784 12.2784 21.9784 14.3755V15.8654C21.9784 17.9625 21.0462 19.2867 19.1816 19.2867Z" fill="#1E1E23" fill-rule="evenodd"/>
<path d="M35.9644 7.47754C37.7161 7.47754 39.4111 7.83618 40.3152 8.47087L39.2982 11.6163C38.5919 11.2852 37.4618 10.9265 36.2752 10.9265C33.8173 10.9265 32.7437 12.3061 32.7437 14.6791V15.5343C32.7437 17.9072 33.8173 19.2867 36.2752 19.2867C37.4618 19.2867 38.6201 18.9557 39.2982 18.5969L40.3152 21.7424C39.4111 22.3495 37.7443 22.7357 35.9644 22.7357C30.6248 22.7357 28.2234 19.9215 28.2234 15.4516V14.7618C28.2234 10.2918 30.6248 7.47754 35.9644 7.47754Z" fill="#1E1E23"/>
<path clip-rule="evenodd" d="M40.9089 14.3755V15.6722C40.9089 19.9765 43.056 22.791 48.8194 22.791C50.9948 22.791 53.4526 22.3218 54.6393 21.7149L53.82 18.6798C52.4922 19.2317 50.684 19.5627 48.9889 19.5627C46.4745 19.5627 45.5421 18.6798 45.4574 16.6656H55.0065V14.3203C55.0065 10.2367 52.9442 7.47754 48.2826 7.47754C43.3385 7.47754 40.9089 10.2091 40.9089 14.3755ZM50.9383 13.7684H45.4574C45.4574 11.7819 46.2484 10.5402 48.2826 10.5402C50.2885 10.5402 50.9383 11.8094 50.9383 13.4097V13.7684Z" fill="#1E1E23" fill-rule="evenodd"/>
<path clip-rule="evenodd" d="M71.8442 15.5621C71.8442 19.6458 69.8383 22.736 65.657 22.736C63.3969 22.736 61.8148 21.6324 61.1933 20.2251V22.4325H56.8989V0.441922L61.4475 0.0556641V9.85075C62.0973 8.55389 63.5664 7.50545 65.6853 7.50545C69.8383 7.50545 71.8724 10.5957 71.8724 14.6794L71.8442 15.5621ZM67.2957 14.5689C67.2957 12.4995 66.4763 10.9545 64.301 10.9545C62.4363 10.9545 61.4192 12.2512 61.4192 14.3481V15.8934C61.4192 17.9903 62.4363 19.287 64.301 19.287C66.4763 19.287 67.2957 17.7419 67.2957 15.6725V14.5689Z" fill="#1E1E23" fill-rule="evenodd"/>
<path clip-rule="evenodd" d="M73.341 14.7341V15.4791C73.341 19.7006 75.7989 22.7357 80.7995 22.7357C85.8001 22.7357 88.2579 19.7006 88.2579 15.4791V14.7341C88.2579 10.5126 85.8001 7.47754 80.7995 7.47754C75.7989 7.47754 73.341 10.5126 73.341 14.7341ZM80.7995 10.9542C82.9184 10.9542 83.7376 12.4992 83.7376 14.4305V15.7827C83.7376 17.7142 82.9184 19.2592 80.7995 19.2592C78.6806 19.2592 77.8613 17.7142 77.8613 15.7827V14.4305C77.8613 12.4992 78.6806 10.9542 80.7995 10.9542Z" fill="#1E1E23" fill-rule="evenodd"/>
<path clip-rule="evenodd" d="M89.8127 15.4791V14.7341C89.8127 10.5126 92.2706 7.47754 97.2711 7.47754C102.272 7.47754 104.73 10.5126 104.73 14.7341V15.4791C104.73 19.7006 102.272 22.7357 97.2711 22.7357C92.2423 22.7357 89.8127 19.7006 89.8127 15.4791ZM100.209 14.4305C100.209 12.4992 99.39 10.9542 97.2711 10.9542C95.1523 10.9542 94.333 12.4992 94.333 14.4305V15.7827C94.333 17.7142 95.1523 19.2592 97.2711 19.2592C99.39 19.2592 100.209 17.7142 100.209 15.7827V14.4305Z" fill="#1E1E23" fill-rule="evenodd"/>
<path d="M115.463 7.78066L110.971 14.7614V0.0273438L106.451 0.441221V22.4318H110.971V15.258L115.633 22.4318H120.464L115.576 15.0097L120.266 7.78066H115.463Z" fill="#1E1E23"/>
</g>
<defs>
<clipPath id="clip0_178_13496">
<rect fill="white" height="22.7908" width="120.466"/>
</clipPath>
</defs>
</svg>