<?xml version="1.0" encoding="utf-8"?>
<svg xmlns="http://www.w3.org/2000/svg" fill="none" height="31" viewBox="0 0 95 31" width="95">
<path d="M23.7113 10.9488H12.6702V14.2168H20.4802C20.0925 18.8142 16.2706 20.7528 12.6702 20.7528C8.05439 20.7528 4.02937 17.134 4.02937 12.0381C4.02937 7.08993 7.86975 3.26802 12.6702 3.26802C16.3814 3.26802 18.5785 5.64979 18.5785 5.64979L20.8864 3.26802C20.8864 3.26802 17.9508 0 12.5779 0C5.74647 0.0184634 0.465942 5.7975 0.465942 12.0012C0.465942 18.1126 5.45105 24.0578 12.7625 24.0578C19.2063 24.0578 23.896 19.645 23.896 13.1275C23.896 11.7427 23.7113 10.9488 23.7113 10.9488Z" fill="#1E1E23"/>
<path d="M32.7399 8.58545C28.2163 8.58545 24.9668 12.1304 24.9668 16.2477C24.9668 20.4389 28.1056 24.0393 32.7768 24.0393C37.0234 24.0393 40.476 20.7897 40.476 16.3401C40.4945 11.2072 36.4695 8.58545 32.7399 8.58545ZM32.7768 11.6134C34.9924 11.6134 37.1157 13.4044 37.1157 16.3216C37.1157 19.165 35.0293 21.0298 32.7768 21.0298C30.3027 21.0298 28.364 19.0542 28.364 16.3216C28.364 13.6075 30.2842 11.6134 32.7768 11.6134Z" fill="#1E1E23"/>
<path d="M49.6524 8.58545C45.1289 8.58545 41.8793 12.1304 41.8793 16.2477C41.8793 20.4389 45.0181 24.0393 49.6894 24.0393C53.9359 24.0393 57.3886 20.7897 57.3886 16.3401C57.3886 11.2072 53.3451 8.58545 49.6524 8.58545ZM49.7078 11.6134C51.9234 11.6134 54.0467 13.4044 54.0467 16.3216C54.0467 19.165 51.9604 21.0298 49.7078 21.0298C47.2337 21.0298 45.2951 19.0542 45.2951 16.3216C45.2581 13.6075 47.1968 11.6134 49.7078 11.6134Z" fill="#1E1E23"/>
<path d="M66.1956 8.58545C62.0229 8.58545 58.7918 12.2043 58.7918 16.3031C58.7918 20.9559 62.5768 24.0393 66.1586 24.0393C68.3558 24.0393 69.5374 23.1715 70.4052 22.156V23.6885C70.4052 26.3472 68.7989 27.9535 66.3433 27.9535C63.9984 27.9535 62.7983 26.1995 62.3921 25.2025L59.4195 26.458C60.4719 28.6736 62.5952 31 66.3617 31C70.4975 31 73.6363 28.3966 73.6363 22.9499V9.02857H70.3868V10.3395C69.3897 9.28706 68.0234 8.58545 66.1956 8.58545ZM66.5095 11.6134C68.5589 11.6134 70.6452 13.349 70.6452 16.3216C70.6452 19.3311 68.5589 20.9928 66.4725 20.9928C64.2569 20.9928 62.2075 19.2019 62.2075 16.3401C62.189 13.3859 64.3308 11.6134 66.5095 11.6134Z" fill="#1E1E23"/>
<path d="M88.0192 8.58545C84.105 8.58545 80.8185 11.7058 80.8185 16.3031C80.8185 21.1775 84.4927 24.0762 88.4069 24.0762C91.6749 24.0762 93.6874 22.2853 94.8691 20.679L92.1919 18.888C91.5088 19.9589 90.3271 21.0113 88.4069 21.0113C86.2282 21.0113 85.2312 19.8112 84.6219 18.6664L94.9983 14.346L94.4629 13.0905C93.4659 10.6164 91.121 8.58545 88.0192 8.58545ZM88.1854 11.5396C89.5886 11.5396 90.6041 12.2781 91.0472 13.2013L84.1234 16.0816C83.8095 13.8475 85.9328 11.5396 88.1854 11.5396Z" fill="#1E1E23"/>
<path d="M79.2861 0.8125H75.8888V23.5963H79.2861V0.8125Z" fill="#1E1E23"/>
</svg>