<?xml version="1.0" encoding="utf-8"?>
<svg xmlns="http://www.w3.org/2000/svg" fill="none" height="19" viewBox="0 0 134 19" width="134">
<path clip-rule="evenodd" d="M16.4395 0H18.4108C18.4108 5.17399 16.5599 7.26327 13.6686 8.64154V18.3988H10.6351V9.83386C10.2408 9.97606 9.82463 10.1183 9.40846 10.2605C8.81707 10.4683 8.26949 10.6652 7.75476 10.8512V18.4098H4.72114V12.2403C2.7827 13.4655 1.97228 15.1063 1.97228 18.4098H0.000976562C0.000976562 13.5639 1.65468 11.4199 4.72114 9.86667V0H7.75476V8.60872C7.8303 8.58196 7.90692 8.55464 7.98439 8.52702C8.25509 8.43053 8.53608 8.33037 8.81707 8.23681C9.46322 8.01804 10.0656 7.81021 10.6351 7.6133V0H13.6686V6.30067C15.5414 5.18493 16.4395 3.56601 16.4395 0ZM108.725 0.21318C103.609 0.21318 99.5909 4.143 99.5909 9.17026C99.5909 14.1798 103.609 18.1096 108.725 18.1096C113.841 18.1096 117.859 14.1798 117.859 9.17026C117.842 4.143 113.841 0.21318 108.725 0.21318ZM108.725 14.8171C105.485 14.8171 102.936 12.3212 102.936 9.15254C102.936 5.96623 105.485 3.488 108.725 3.488C111.965 3.488 114.496 5.98395 114.496 9.15254C114.496 12.3389 111.965 14.8171 108.725 14.8171ZM38.8208 0.691161V7.02834H30.2355V0.691161H26.9076V17.7202H30.2355V10.5156H38.8208V17.7202H42.1312V0.691161H38.8208ZM59.3372 9.57745V0.691161H62.7004V9.78982C62.7004 13.7904 61.5676 18.1982 54.8586 18.1982C48.132 18.1982 46.9991 13.8435 46.9991 9.78982V0.691161H50.3093V9.57745C50.3093 12.2327 50.6102 14.9055 54.841 14.9055C59.0716 14.9055 59.3372 12.1618 59.3372 9.57745ZM87.0758 17.7202V0.691161H90.4037V14.2684H98.5642V17.7202H87.0758ZM119.205 0.691161V4.16071H124.551V17.7202H127.896V4.16071H133.118V0.691161H119.205ZM80.119 8.78069C81.1457 7.98412 81.7298 6.79816 81.7298 5.38203C81.7298 3.96589 81.1634 0.673354 75.8706 0.673354H67.126V17.7024H76.437C80.1898 17.7024 82.3317 15.8083 82.3317 12.5158C82.3317 10.9404 81.5705 9.64815 80.119 8.78069ZM75.7113 3.80659C77.5699 3.80659 78.1364 4.47922 78.1364 5.59439C78.1364 6.70965 77.6407 7.50623 75.7821 7.50623H70.4362V3.78887H75.7113V3.80659ZM76.2246 14.6046H70.4362V10.3208H76.2423C77.9593 10.3208 78.7029 10.9934 78.7029 12.5158C78.7206 13.6841 78.2426 14.6046 76.2246 14.6046Z" fill="#1E1E23" fill-rule="evenodd"/>
</svg>