<?xml version="1.0" encoding="utf-8"?>
<svg xmlns="http://www.w3.org/2000/svg" fill="none" height="21" viewBox="0 0 104 21" width="104">
<path d="M4.37308 13.6855C4.37308 14.8785 4.63492 15.7944 4.97717 16.3485C5.42589 17.0743 6.09517 17.3818 6.7775 17.3818C7.65756 17.3818 8.46265 17.1634 10.0142 15.0176C11.2571 13.2976 12.7217 10.8835 13.7072 9.36996L15.376 6.80582C16.5353 5.02505 17.8772 3.04545 19.4156 1.70363C20.6716 0.608439 22.0265 0 23.39 0C25.6793 0 27.8599 1.32661 29.5288 3.81469C31.3552 6.53963 32.2417 9.97188 32.2417 13.5139C32.2417 15.6195 31.8267 17.1667 31.1205 18.389C30.4382 19.5711 29.1083 20.7521 26.8712 20.7521V17.3818C28.7867 17.3818 29.2647 15.6217 29.2647 13.6073C29.2647 10.7368 28.5955 7.55116 27.1211 5.27495C26.0748 3.66041 24.7188 2.67387 23.2271 2.67387C21.6136 2.67387 20.3153 3.89075 18.8561 6.06049C18.0803 7.21326 17.2839 8.6181 16.3897 10.2033L15.4054 11.9471C13.428 15.4533 12.9271 16.2518 11.9384 17.5698C10.2054 19.8775 8.72559 20.7521 6.7775 20.7521C4.46651 20.7521 3.00517 19.7514 2.10012 18.2434C1.3613 17.0146 0.998413 15.4022 0.998413 13.5649L4.37308 13.6855Z" fill="#1E1E23"/>
<path d="M3.65938 4.05264C5.20655 1.66777 7.4393 0 10.0002 0C11.4833 0 12.9576 0.438945 14.4972 1.69602C16.1813 3.07044 17.9762 5.33362 20.2154 9.06357L21.0184 10.4021C22.9567 13.6312 24.0595 15.2925 24.7048 16.0758C25.5349 17.0819 26.1162 17.3818 26.8713 17.3818C28.7868 17.3818 29.2649 15.6217 29.2649 13.6073L32.2419 13.5139C32.2419 15.6195 31.8268 17.1667 31.1206 18.389C30.4383 19.5711 29.1084 20.7521 26.8713 20.7521C25.4806 20.7521 24.2485 20.4501 22.886 19.1647C21.8387 18.1782 20.6142 16.4257 19.6722 14.8503L16.8701 10.1696C15.4642 7.82061 14.1745 6.06918 13.4281 5.27603C12.6252 4.42313 11.593 3.39313 9.94586 3.39313C8.61272 3.39313 7.48059 4.32861 6.53316 5.75953L3.65938 4.05264Z" fill="#1E1E23"/>
<path d="M9.94573 3.39313C8.61259 3.39313 7.48046 4.32861 6.53303 5.75953C5.19338 7.7815 4.37308 10.7933 4.37308 13.6855C4.37308 14.8785 4.63492 15.7944 4.97717 16.3485L2.10012 18.2434C1.3613 17.0146 0.998413 15.4022 0.998413 13.5649C0.998413 10.2239 1.91542 6.74172 3.65925 4.05264C5.20642 1.66777 7.43917 0 10 0L9.94573 3.39313Z" fill="#1E1E23"/>
<path d="M38.8021 0.65625H42.7059L49.3433 12.6642L55.9818 0.65625H59.8008V20.3871H56.6163V5.26517L50.7949 15.7368H47.807L41.9866 5.26517V20.3871H38.8021V0.65625ZM69.7792 8.01293C67.4954 8.01293 66.1199 9.73177 65.7907 11.8602H73.5418C73.3821 9.66766 72.1174 8.01293 69.7792 8.01293ZM62.6333 13.0727C62.6333 8.5942 65.5278 5.33471 69.8346 5.33471C74.0709 5.33471 76.6003 8.55292 76.6003 13.3118V14.1864H65.7907C66.1742 16.5017 67.7105 18.0619 70.1878 18.0619C72.1641 18.0619 73.3994 17.4589 74.5707 16.3561L76.2624 18.4281C74.6685 19.8938 72.6411 20.7391 70.0748 20.7391C65.4126 20.7391 62.6333 17.3394 62.6333 13.0727ZM80.4617 8.29542H77.5303V5.68782H80.4617V1.37551H83.5343V5.68782H87.9879V8.29542H83.5343V14.9046C83.5343 17.1612 84.2557 17.9631 86.0289 17.9631C86.8383 17.9631 87.3023 17.8935 87.9879 17.7795V20.3588C87.1339 20.6 86.319 20.7108 85.4367 20.7108C82.1197 20.7108 80.4617 18.8986 80.4617 15.2707V8.29542ZM100.926 10.8313C100.309 9.27326 98.9321 8.12592 96.9091 8.12592C94.2798 8.12592 92.5968 9.99144 92.5968 13.0304C92.5968 15.9933 94.1461 17.949 96.7831 17.949C98.8561 17.949 100.336 16.7429 100.926 15.2425V10.8313ZM103.998 20.3871H100.982V18.3292C100.139 19.5407 98.6051 20.7391 96.1203 20.7391C92.1241 20.7391 89.4535 17.3937 89.4535 13.0304C89.4535 8.62571 92.1882 5.33471 96.2898 5.33471C98.3172 5.33471 99.9078 6.14524 100.982 7.57616V5.68782H103.998V20.3871Z" fill="#1E1E23"/>
</svg>