<?xml version="1.0" encoding="utf-8"?>
<svg xmlns="http://www.w3.org/2000/svg" fill="none" height="25" viewBox="0 0 91 25" width="91">
<path d="M12.7993 0C11.5701 0 10.2576 0 9.00761 0C9.00761 5.14583 8.98678 8.47917 8.98678 13.6458C7.36178 8.60417 5.73678 5.29167 4.11178 0C2.71594 0 1.86178 0 0.465942 0C0.465942 8.04167 0.465942 16.1042 0.465942 24.1458C1.69511 23.9792 3.00761 23.8125 4.23678 23.6458C4.23678 18.6042 4.23678 15.5 4.25761 10.4375C5.94511 15.4167 6.98678 18.3333 8.67428 23.0625C9.98678 22.9167 11.4451 22.7292 12.7784 22.5833C12.7784 15.0625 12.7993 7.54167 12.7993 0Z" fill="#1E1E23"/>
<path d="M26.966 0C23.4451 0 19.9868 0 16.466 0C16.4452 7.4375 16.4451 14.8542 16.4243 22.2917C19.9451 21.9792 23.4451 21.7083 26.966 21.5C26.966 20.4167 26.966 18.8542 26.966 17.7708C24.6743 17.9167 22.4868 18.0625 20.216 18.2083C20.216 16.2083 20.216 14.5625 20.2368 12.5625C21.9035 12.5417 23.6535 12.5625 25.3618 12.5208C25.3618 11.4375 25.3618 9.85417 25.3618 8.77083C23.6743 8.79167 21.9035 8.8125 20.2368 8.83333C20.2368 6.83333 20.2368 5.75 20.2576 3.75C21.2993 3.72917 22.3202 3.72917 23.341 3.72917C23.5285 3.72917 23.6952 3.72917 23.8827 3.72917C24.0702 3.72917 24.2368 3.72917 24.4243 3.72917C25.2785 3.72917 26.1327 3.72917 27.0077 3.72917C26.9868 2.64583 26.966 1.08333 26.966 0Z" fill="#1E1E23"/>
<path d="M41.1118 0.0209961C37.2576 0.0209961 33.2784 0.0209961 29.4243 0.0209961C29.4243 1.10433 29.4243 2.646 29.4243 3.72933C29.5909 3.72933 29.7576 3.72933 29.9243 3.72933C30.4243 3.72933 30.9451 3.72933 31.4451 3.72933C31.9451 3.72933 32.4659 3.72933 32.9659 3.72933C33.0909 3.72933 33.2159 3.72933 33.3618 3.72933C33.3618 9.7085 33.3409 15.1877 33.3409 21.1668C34.5701 21.1252 35.9034 21.0835 37.1326 21.0418C37.1326 15.0835 37.1534 9.646 37.1534 3.68766C38.4659 3.68766 39.7993 3.68766 41.1118 3.66683C41.1118 2.66683 41.1118 1.0835 41.1118 0.0209961Z" fill="#1E1E23"/>
<path d="M54.1117 0C50.5909 0 47.0909 0 43.5701 0C43.5701 7 43.5701 13.9792 43.5701 20.9792C43.9867 20.9792 44.3826 20.9792 44.7992 20.9792C45.6326 20.9792 46.4867 20.9792 47.3201 20.9792C47.3201 18.0208 47.3201 15.3125 47.3201 12.3333C47.5284 12.3333 47.7367 12.3333 47.9451 12.3333C48.4451 12.3333 48.9242 12.3333 49.4242 12.3333C49.9242 12.3333 50.4242 12.3333 50.9242 12.3333C51.4451 12.3333 51.9451 12.3333 52.4451 12.3333C52.4451 11.2708 52.4451 9.6875 52.4451 8.625C51.9659 8.625 51.4867 8.625 51.0076 8.625C50.4867 8.625 49.9659 8.625 49.4451 8.625C48.9242 8.625 48.4034 8.625 47.9034 8.625C47.7159 8.625 47.5076 8.625 47.3201 8.625C47.3201 6.70833 47.3201 5.64583 47.3201 3.72917C47.7367 3.72917 48.1534 3.72917 48.5492 3.72917C48.9659 3.72917 49.3826 3.72917 49.7992 3.72917C50.2159 3.72917 50.6326 3.72917 51.0492 3.72917C52.0701 3.72917 53.0909 3.72917 54.1117 3.72917C54.1117 2.6875 54.1117 1.0625 54.1117 0Z" fill="#1E1E23"/>
<path d="M56.5701 0.0209961C56.5701 7.0835 56.5493 14.146 56.5493 21.1877C59.9243 21.3127 63.4659 21.4585 66.8201 21.6877C66.8201 20.6043 66.8201 19.0418 66.8201 17.9585C64.6951 17.8335 62.4659 17.6877 60.3409 17.6043C60.3409 11.5627 60.3618 6.0835 60.3618 0.0209961C59.1118 0.0209961 57.7993 0.0209961 56.5701 0.0209961Z" fill="#1E1E23"/>
<path d="M69.9243 0.0209961C69.9451 7.31266 69.9452 14.6252 69.966 21.9168C71.1952 22.021 72.4868 22.1043 73.716 22.2293C73.716 14.8335 73.7368 7.41683 73.716 0.0209961C72.4868 0.0209961 71.1743 0.0209961 69.9243 0.0209961Z" fill="#1E1E23"/>
<path d="M76.9659 0.0209961C78.4868 3.7085 79.8618 7.41683 81.4034 11.3335C79.7993 15.1043 78.1743 18.8335 76.5701 22.4585C77.9034 22.5835 79.2576 22.771 80.5909 22.9377C81.5493 20.6043 82.4034 18.8127 83.3618 16.4377C84.2993 18.9793 85.1743 20.9585 86.1118 23.5835C87.4243 23.7502 89.1326 24.0002 90.4659 24.1877C88.8618 19.9168 87.1118 15.4585 85.5076 11.4377C87.1118 7.646 88.7368 4.021 90.4034 0.0626628C89.0284 0.0626628 87.6326 0.0626628 86.2576 0.0626628C85.2368 2.521 84.5284 4.0835 83.5493 6.41683C82.6326 4.00016 82.0284 2.41683 81.0909 0.0626628C79.7368 0.0209961 78.3409 0.0209961 76.9659 0.0209961Z" fill="#1E1E23"/>
</svg>