<?xml version="1.0" encoding="utf-8"?>
<svg xmlns="http://www.w3.org/2000/svg" fill="none" height="23" viewBox="0 0 49 23" width="49">
<g clip-path="url(#clip0_178_13470)">
<path d="M47.8434 3.82172C47.2313 3.29154 44.9357 1.30298 42.2088 2.00275C38.61 2.94833 36.3823 7.79553 35.604 10.4308C32.045 22.3957 38.1134 21.0905 38.7601 20.9514C38.7797 20.9472 38.7942 20.944 38.8034 20.9424L41.1406 12.9118C41.2449 12.5189 41.3239 11.5617 40.142 11.0215H48.2833C47.2678 11.4189 46.7035 12.0516 46.4542 13.0382L44.0947 21.0511C44.0886 21.0544 44.0812 21.0583 44.0728 21.063C43.5231 21.3596 37.9395 24.3732 32.8824 21.6805C28.0726 19.1344 29.0208 9.62786 32.7987 4.98115C38.7759 -2.35988 47.1598 0.432875 48.7193 0.952327C48.7642 0.967265 48.8034 0.980324 48.8367 0.991207L47.9855 3.94028C47.9614 3.92405 47.9135 3.88245 47.8434 3.82172Z" fill="#1E1E23"/>
<path clip-rule="evenodd" d="M20.6523 8.08777C22.9714 1.93858 18.615 0.255859 15.7897 0.255859H6.43169C7.20736 0.836109 7.07818 1.60518 6.93317 2.06241L1.47377 20.8284C1.25837 21.5825 0.431149 22.3444 -0.000701904 22.4816H7.58239C7.15355 22.3914 6.56448 21.7518 6.78666 20.8889L8.7667 14.0999C8.76639 14.1 17.885 15.425 20.6523 8.08777ZM13.2737 1.98575C14.2681 1.98575 17.0213 2.12838 15.2378 7.71709C13.3878 13.5803 9.26442 12.3781 9.26442 12.3781L12.2978 1.98559L13.2737 1.98575Z" fill="#1E1E23" fill-rule="evenodd"/>
<path clip-rule="evenodd" d="M26.7002 22.4815H31.8184C30.1846 21.9047 27.7679 20.2456 26.7998 19.0691C27.5862 18.1671 28.5394 17.0167 28.7185 14.6817H26.0688C26.0688 14.6817 26.5951 14.9829 26.5951 15.656C26.5951 16.2807 26.3603 17.1292 25.913 17.7331C25.1431 16.4982 24.3036 15.0873 24.0093 13.0144C24.2269 12.8982 24.4634 12.78 24.7121 12.6557C25.6491 12.1877 26.7569 11.6342 27.6636 10.7782C28.7742 9.73033 29.0229 8.77049 29.0378 8.12411V8.04031C29.0378 7.37189 28.8075 6.76052 28.3447 6.27671C27.5862 5.45853 26.3722 5.13679 25.1059 5.37392C24.0729 5.58771 23.2171 6.16715 22.7969 6.59568C21.2288 8.1447 21.0339 10.7211 21.0339 11.8789C21.0339 12.0686 21.0438 12.2449 21.051 12.3739V12.374C21.0536 12.4208 21.0559 12.4613 21.0572 12.4939C20.9834 12.5189 20.8053 12.6 20.8053 12.6C20.6951 12.6436 20.5661 12.6913 20.4221 12.7447L20.422 12.7448C19.1183 13.2279 16.5864 14.1661 15.617 16.5576C15.4819 16.8849 15.2854 17.6245 15.2854 18.479C15.2854 19.1975 15.4198 20.009 15.8558 20.763C16.6255 22.0314 17.8978 22.8198 19.959 22.787C22.1927 22.7566 24.4006 21.1097 24.7811 20.8103C25.1746 21.2061 26.1908 22.2125 26.7002 22.4815ZM23.7133 19.596C23.4141 19.7947 22.2298 20.4417 21.1215 20.5507C20.0816 20.6486 18.3736 20.2272 18.3736 18.0151C18.3736 16.1036 20.302 14.7399 21.323 14.2461C21.7854 16.08 22.7071 18.1671 23.7133 19.596ZM26.7002 7.64499C26.4475 9.43988 24.3037 11.2463 23.7757 11.4771C23.6793 10.4738 23.7136 8.88184 24.4891 7.59232C25.0254 6.73589 25.7043 6.36342 26.2527 6.57104C26.7002 6.73589 26.7541 7.16815 26.7002 7.64499Z" fill="#1E1E23" fill-rule="evenodd"/>
</g>
<defs>
<clipPath id="clip0_178_13470">
<rect fill="white" height="22.7908" width="48.8375"/>
</clipPath>
</defs>
</svg>