<?xml version="1.0" encoding="utf-8"?>
<svg xmlns="http://www.w3.org/2000/svg" fill="none" height="37" viewBox="0 0 123 37" width="123">
<g clip-path="url(#clip0_504_10553)">
<path d="M22.8363 9.85685L25.3382 5.49743C26.0872 4.22426 25.6378 2.60604 24.3643 1.85704C23.0909 1.12279 21.473 1.55761 20.7239 2.83086L18.2221 7.19027C12.8739 5.49743 6.86637 7.66973 3.94508 12.7482C2.08746 15.9691 1.86272 19.6844 3.00132 22.9207L7.63044 14.8757C8.6941 13.018 10.417 11.6998 12.4693 11.1453C14.5368 10.5909 16.694 10.8606 18.5366 11.9396C22.357 14.1416 23.6602 19.0255 21.458 22.8607C19.2557 26.6959 14.372 27.984 10.5367 25.782L13.2034 21.1678C14.4767 21.9168 16.0948 21.4673 16.8438 20.194C17.5929 18.9205 17.1434 17.3027 15.8699 16.5537C14.5966 15.8197 12.9787 16.254 12.2295 17.5272L3.75032 32.2389C3.01615 33.5121 3.45072 35.1303 4.72414 35.8793C5.99763 36.6281 7.61553 36.179 8.36453 34.9054L10.8664 30.5459C16.2147 32.2388 22.2221 30.0668 25.1434 24.988C28.0947 19.9246 26.9861 13.6324 22.8363 9.85685ZM34.1171 13.003H38.237C40.619 13.003 42.5966 14.1865 42.5966 16.9431C42.5966 19.6845 40.6041 20.8832 38.237 20.8832H36.5292V24.7334H34.1172V13.003H34.1171ZM38.1772 18.7559C39.3604 18.7559 40.1246 18.2166 40.1246 16.9281C40.1246 15.6096 39.3306 15.1154 38.1772 15.1154H36.5292V18.7555L38.1772 18.7559ZM46.1471 13.003H53.9074V15.1304H48.5591V17.8119H53.2631V19.8793H48.5591V22.6208H54.1469V24.7482H46.1472V13.003H46.1471ZM58.2067 13.003H60.6188V22.5909H65.922V24.7183H58.2067V13.003ZM68.6336 18.8604C68.6336 15.4151 71.3154 12.8382 74.701 12.8382C78.0866 12.8382 80.7684 15.3852 80.7684 18.8604C80.7684 22.3365 78.0865 24.8831 74.701 24.8831C71.3154 24.8831 68.6336 22.3365 68.6336 18.8604ZM78.2967 18.8604C78.2967 16.6883 76.8434 14.9958 74.701 14.9958C72.5589 14.9958 71.1052 16.6584 71.1052 18.8604C71.1052 21.033 72.5439 22.7259 74.701 22.7259C76.8284 22.7408 78.2967 21.0481 78.2967 18.8604ZM86.7011 15.1304H83.3602V13.003H92.4688V15.1304H89.1278V24.7183H86.716V15.1304H86.7011ZM95.0455 18.8604C95.0455 15.4151 97.727 12.8382 101.113 12.8382C104.498 12.8382 107.18 15.3852 107.18 18.8604C107.18 22.3365 104.498 24.8831 101.113 24.8831C97.7419 24.8831 95.0455 22.3365 95.0455 18.8604ZM104.708 18.8604C104.708 16.6883 103.255 14.9958 101.113 14.9958C98.9703 14.9958 97.5173 16.6584 97.5173 18.8604C97.5173 21.033 98.9703 22.7259 101.113 22.7259C103.27 22.7408 104.708 21.0481 104.708 18.8604ZM114.566 19.2803C113.982 18.7259 113.173 17.6771 113.173 17.6771C113.173 17.6771 113.338 18.9805 113.338 19.8045V24.7184H111.09V12.898H111.315L117.217 18.4563C117.802 18.9955 118.611 20.0589 118.611 20.0589C118.611 20.0589 118.446 18.7408 118.446 17.9319V13.018H120.693V24.8382H120.468L114.566 19.2803Z" fill="black"/>
</g>
<defs>
<clipPath id="clip0_504_10553">
<rect fill="white" height="36.2483" transform="translate(0 0.74707)" width="123"/>
</clipPath>
</defs>
</svg>