<?xml version="1.0" encoding="utf-8"?>
<svg xmlns="http://www.w3.org/2000/svg" fill="none" height="25" viewBox="0 0 103 25" width="103">
<path d="M0 12.3665C0 5.53671 5.4733 0 12.2249 0C18.9766 0 24.4499 5.53671 24.4499 12.3665C24.4499 19.1963 18.9766 24.733 12.2249 24.733C10.9646 24.733 9.74908 24.5398 8.60528 24.1816C9.10363 23.3602 9.84869 22.0138 10.1247 20.9396C10.2733 20.361 10.8863 17.9998 10.8863 17.9998C11.2849 18.7689 12.4495 19.4199 13.6883 19.4199C17.3754 19.4199 20.0319 15.9898 20.0319 11.7279C20.0319 7.64251 16.7363 4.58554 12.4955 4.58554C7.21987 4.58554 4.41798 8.16812 4.41798 12.0691C4.41798 13.8828 5.37259 16.141 6.8994 16.8599C7.13108 16.969 7.25494 16.9209 7.30826 16.6946C7.32592 16.6196 7.37511 16.4175 7.43267 16.181C7.50707 15.8754 7.59545 15.5123 7.64777 15.2921C7.67753 15.1671 7.6629 15.0599 7.56299 14.9374C7.05793 14.3178 6.65318 13.1781 6.65318 12.1152C6.65318 9.38772 8.69487 6.74851 12.1733 6.74851C15.1765 6.74851 17.2797 8.81872 17.2797 11.7797C17.2797 15.125 15.6095 17.4426 13.4367 17.4426C12.2366 17.4426 11.3384 16.4388 11.6264 15.208C11.7511 14.6761 11.9181 14.129 12.0805 13.597C12.3669 12.6587 12.6389 11.7676 12.6389 11.0905C12.6389 10.1406 12.1351 9.34849 11.0921 9.34849C9.86533 9.34849 8.88006 10.6323 8.88006 12.3518C8.88006 13.447 9.24573 14.1879 9.24573 14.1879C9.24573 14.1879 8.03438 19.3697 7.81222 20.3348C7.5664 21.403 7.663 22.9078 7.76983 23.8862C3.22227 22.0843 0 17.6056 0 12.3665Z" fill="#1E1E23"/>
<path d="M41.8982 4.11259C42.9708 4.11259 43.8404 4.99219 43.8404 6.07737C43.8404 7.16245 42.9708 8.04206 41.8982 8.04206C40.8255 8.04206 39.9559 7.16245 39.9559 6.07737C39.9559 4.99219 40.8255 4.11259 41.8982 4.11259Z" fill="#1E1E23"/>
<path d="M44.1933 8.82998H47.312V10.2366H47.3716C48.1265 9.13136 49.0998 8.5286 50.5103 8.5286C52.735 8.5286 54.0461 10.1362 54.0461 12.4269V19.1185H50.8082V13.0901C50.8082 12.0049 50.2719 11.2614 49.2191 11.2614C48.1464 11.2614 47.4312 12.1657 47.4312 13.4316V19.1185H44.1933V8.82998Z" fill="#1E1E23"/>
<path d="M40.2792 8.82998H43.5172V19.1185H40.2792V8.82998Z" fill="#1E1E23"/>
<path d="M76.819 8.68131C76.7266 8.6729 76.6207 8.66915 76.4967 8.66915C75.2651 8.66915 74.4309 9.21169 73.7157 10.4375H73.6562V8.82992H70.5572V19.1183H73.7951V14.4966C73.7951 12.3551 74.9675 11.3628 76.819 11.5359V8.68131Z" fill="#1E1E23"/>
<path d="M92.2389 12.5435C92.3921 12.5704 92.5494 12.598 92.7087 12.6278C94.4966 12.9293 96.6022 13.3914 96.6022 16.0239C96.6022 18.2745 94.6357 19.4399 91.9738 19.4399C89.1104 19.4399 87.2752 18.159 87.0481 16.044H90.1335C90.3315 16.892 90.9774 17.3099 91.9539 17.3099C92.9273 17.3099 93.5431 16.9482 93.5431 16.2851C93.5431 15.4574 92.5556 15.2903 91.3793 15.0913L91.3788 15.0912C91.2416 15.068 91.1018 15.0443 90.9607 15.0191C89.1927 14.7177 87.3055 14.2353 87.3055 11.8241C87.3055 9.65384 89.292 8.52851 91.6958 8.52851C94.576 8.52851 96.1255 9.79454 96.2844 11.8241H93.3046C93.1855 10.8997 92.5696 10.6184 91.6757 10.6184C90.8813 10.6184 90.2654 10.9198 90.2654 11.5629C90.2654 12.197 91.1507 12.3524 92.2389 12.5435Z" fill="#1E1E23"/>
<path clip-rule="evenodd" d="M82.0206 17.0687C80.6896 17.0687 79.9349 16.2047 79.7361 14.8181H87.0464C87.0662 12.7284 86.4704 10.9399 85.2585 9.81465C84.3845 9.01087 83.2324 8.52854 81.7821 8.52854C78.6833 8.52854 76.5579 10.8796 76.5579 13.9542C76.5579 17.0687 78.6238 19.4199 81.9809 19.4199C83.272 19.4199 84.305 19.0783 85.1592 18.4754C86.0531 17.8525 86.6491 16.9683 86.8675 16.044H83.7091C83.4309 16.687 82.8748 17.0687 82.0206 17.0687ZM81.8419 10.8595C82.8947 10.8595 83.6495 11.6432 83.7687 12.8691H79.7561C79.9745 11.6432 80.6103 10.8595 81.8419 10.8595Z" fill="#1E1E23" fill-rule="evenodd"/>
<path d="M102.265 16.6939L102.305 16.6923V19.1202C101.98 19.1844 101.436 19.2389 100.716 19.2389C98.8284 19.2389 97.4775 18.6161 97.4775 16.4056V10.8795H96.4838V8.82991H97.4775V5.57456H100.636V8.82991H102.305V10.8795H100.636V15.7023C100.636 16.5061 101.073 16.7071 101.768 16.7071C101.937 16.7071 102.12 16.6997 102.265 16.6939L102.265 16.6939L102.265 16.6939Z" fill="#1E1E23"/>
<path d="M59.8285 16.697C59.6993 16.702 59.5502 16.7071 59.4109 16.7071C58.7158 16.7071 58.2787 16.5061 58.2787 15.7023V10.8795H59.8285V8.82991H58.2787V5.57456H55.1202V8.82991H54.067V10.8795H55.1202V16.4056C55.1202 18.6161 56.471 19.2389 58.3581 19.2389C58.9967 19.2389 59.4966 19.196 59.8285 19.1415V16.697Z" fill="#1E1E23"/>
<path clip-rule="evenodd" d="M64.8948 8.52857C61.7959 8.52857 59.6705 10.8796 59.6705 13.9541C59.6705 17.0687 61.7363 19.4198 65.0935 19.4198C66.3847 19.4198 67.4176 19.0782 68.2717 18.4755C69.1657 17.8524 69.7616 16.9683 69.9801 16.044H66.8216C66.5436 16.687 65.9873 17.0687 65.1332 17.0687C63.8022 17.0687 63.0474 16.2046 62.8488 14.8182H70.1589C70.1787 12.7283 69.5829 10.9399 68.3711 9.81457C67.4971 9.01079 66.3449 8.52857 64.8948 8.52857ZM64.9544 10.8594C66.0072 10.8594 66.7622 11.6432 66.8813 12.869H62.8686C63.0871 11.6432 63.7228 10.8594 64.9544 10.8594Z" fill="#1E1E23" fill-rule="evenodd"/>
<path clip-rule="evenodd" d="M28.8947 4.75071H34.5176C36.2457 4.75071 37.5171 5.23293 38.3911 6.07695C39.3049 6.94094 39.8214 8.16683 39.8214 9.6136C39.8214 12.3666 37.9342 14.3158 35.0141 14.3158H32.1728V19.1184H28.8947V4.75071ZM34.656 11.5026C35.9274 11.5026 36.6425 10.7389 36.6425 9.59343C36.6425 8.44814 35.9075 7.74482 34.656 7.74482H32.1728V11.5026H34.656Z" fill="#1E1E23" fill-rule="evenodd"/>
</svg>