<?xml version="1.0" encoding="utf-8"?>
<svg xmlns="http://www.w3.org/2000/svg" fill="none" height="48" viewBox="0 0 48 48" width="48">
<circle cx="24" cy="24" fill="#5B564E" r="24"/>
<g filter="url(#filter0_ddi_1_375)">
<path d="M9.6 24C9.6 18.9595 9.6 16.4393 10.5809 14.5141C11.4438 12.8206 12.8206 11.4438 14.5141 10.5809C16.4393 9.6 18.9595 9.6 24 9.6V9.6C29.0405 9.6 31.5607 9.6 33.4859 10.5809C35.1794 11.4438 36.5562 12.8206 37.4191 14.5141C38.4 16.4393 38.4 18.9595 38.4 24V24C38.4 29.0405 38.4 31.5607 37.4191 33.4859C36.5562 35.1794 35.1794 36.5562 33.4859 37.4191C31.5607 38.4 29.0405 38.4 24 38.4V38.4C18.9595 38.4 16.4393 38.4 14.5141 37.4191C12.8206 36.5562 11.4438 35.1794 10.5809 33.4859C9.6 31.5607 9.6 29.0405 9.6 24V24Z" fill="#7C7973"/>
<path d="M9.6 24C9.6 18.9595 9.6 16.4393 10.5809 14.5141C11.4438 12.8206 12.8206 11.4438 14.5141 10.5809C16.4393 9.6 18.9595 9.6 24 9.6V9.6C29.0405 9.6 31.5607 9.6 33.4859 10.5809C35.1794 11.4438 36.5562 12.8206 37.4191 14.5141C38.4 16.4393 38.4 18.9595 38.4 24V24C38.4 29.0405 38.4 31.5607 37.4191 33.4859C36.5562 35.1794 35.1794 36.5562 33.4859 37.4191C31.5607 38.4 29.0405 38.4 24 38.4V38.4C18.9595 38.4 16.4393 38.4 14.5141 37.4191C12.8206 36.5562 11.4438 35.1794 10.5809 33.4859C9.6 31.5607 9.6 29.0405 9.6 24V24Z" fill="url(#paint0_linear_1_375)" fill-opacity="0.2"/>
</g>
<mask height="30" id="mask0_1_375" maskUnits="userSpaceOnUse" style="mask-type:alpha" width="30" x="9" y="9">
<path d="M9.6 24C9.6 18.9595 9.6 16.4393 10.5809 14.5141C11.4438 12.8206 12.8206 11.4438 14.5141 10.5809C16.4393 9.6 18.9595 9.6 24 9.6V9.6C29.0405 9.6 31.5607 9.6 33.4859 10.5809C35.1794 11.4438 36.5562 12.8206 37.4191 14.5141C38.4 16.4393 38.4 18.9595 38.4 24V24C38.4 29.0405 38.4 31.5607 37.4191 33.4859C36.5562 35.1794 35.1794 36.5562 33.4859 37.4191C31.5607 38.4 29.0405 38.4 24 38.4V38.4C18.9595 38.4 16.4393 38.4 14.5141 37.4191C12.8206 36.5562 11.4438 35.1794 10.5809 33.4859C9.6 31.5607 9.6 29.0405 9.6 24V24Z" fill="#5B564E"/>
</mask>
<g mask="url(#mask0_1_375)">
<g filter="url(#filter1_d_1_375)">
<circle cx="30" cy="20.4" fill="white" r="4.8"/>
</g>
<g filter="url(#filter2_d_1_375)">
<path d="M21.6 35.28C21.6 32.5917 21.6 31.2476 22.1232 30.2208C22.5834 29.3177 23.3177 28.5834 24.2208 28.1232C25.2476 27.6 26.5917 27.6 29.28 27.6H30.72C33.4083 27.6 34.7524 27.6 35.7792 28.1232C36.6823 28.5834 37.4166 29.3177 37.8768 30.2208C38.4 31.2476 38.4 32.5917 38.4 35.28V40.8H21.6V35.28Z" fill="white"/>
</g>
<g opacity="0.5">
<g filter="url(#filter3_d_1_375)">
<circle cx="16.7401" cy="24.48" fill="white" r="4.08"/>
</g>
<g filter="url(#filter4_d_1_375)">
<path d="M9.6 37.3079C9.6 35.0229 9.6 33.8804 10.0447 33.0076C10.4359 32.2399 11.06 31.6157 11.8277 31.2246C12.7005 30.7799 13.843 30.7799 16.128 30.7799H17.352C19.637 30.7799 20.7795 30.7799 21.6523 31.2246C22.42 31.6157 23.0441 32.2399 23.4353 33.0076C23.88 33.8804 23.88 35.0229 23.88 37.3079V41.9999H9.6V37.3079Z" fill="white"/>
</g>
</g>
</g>
<defs>
<filter color-interpolation-filters="sRGB" filterUnits="userSpaceOnUse" height="38.8" id="filter0_ddi_1_375" width="36.8" x="5.6" y="8.6">
<feFlood flood-opacity="0" result="BackgroundImageFix"/>
<feColorMatrix in="SourceAlpha" result="hardAlpha" type="matrix" values="0 0 0 0 0 0 0 0 0 0 0 0 0 0 0 0 0 0 127 0"/>
<feOffset dy="3"/>
<feGaussianBlur stdDeviation="2"/>
<feColorMatrix type="matrix" values="0 0 0 0 0 0 0 0 0 0 0 0 0 0 0 0 0 0 0.05 0"/>
<feBlend in2="BackgroundImageFix" mode="multiply" result="effect1_dropShadow_1_375"/>
<feColorMatrix in="SourceAlpha" result="hardAlpha" type="matrix" values="0 0 0 0 0 0 0 0 0 0 0 0 0 0 0 0 0 0 127 0"/>
<feOffset dy="5"/>
<feGaussianBlur stdDeviation="2"/>
<feColorMatrix type="matrix" values="0 0 0 0 0 0 0 0 0 0 0 0 0 0 0 0 0 0 0.05 0"/>
<feBlend in2="effect1_dropShadow_1_375" mode="multiply" result="effect2_dropShadow_1_375"/>
<feBlend in="SourceGraphic" in2="effect2_dropShadow_1_375" mode="normal" result="shape"/>
<feColorMatrix in="SourceAlpha" result="hardAlpha" type="matrix" values="0 0 0 0 0 0 0 0 0 0 0 0 0 0 0 0 0 0 127 0"/>
<feOffset dy="0.5"/>
<feComposite in2="hardAlpha" k2="-1" k3="1" operator="arithmetic"/>
<feColorMatrix type="matrix" values="0 0 0 0 1 0 0 0 0 1 0 0 0 0 1 0 0 0 0.1 0"/>
<feBlend in2="shape" mode="normal" result="effect3_innerShadow_1_375"/>
</filter>
<filter color-interpolation-filters="sRGB" filterUnits="userSpaceOnUse" height="13.6" id="filter1_d_1_375" width="13.6" x="23.2" y="14.6">
<feFlood flood-opacity="0" result="BackgroundImageFix"/>
<feColorMatrix in="SourceAlpha" result="hardAlpha" type="matrix" values="0 0 0 0 0 0 0 0 0 0 0 0 0 0 0 0 0 0 127 0"/>
<feOffset dy="1"/>
<feGaussianBlur stdDeviation="1"/>
<feColorMatrix type="matrix" values="0 0 0 0 0 0 0 0 0 0 0 0 0 0 0 0 0 0 0.1 0"/>
<feBlend in2="BackgroundImageFix" mode="multiply" result="effect1_dropShadow_1_375"/>
<feBlend in="SourceGraphic" in2="effect1_dropShadow_1_375" mode="normal" result="shape"/>
</filter>
<filter color-interpolation-filters="sRGB" filterUnits="userSpaceOnUse" height="17.2" id="filter2_d_1_375" width="20.8" x="19.6" y="26.6">
<feFlood flood-opacity="0" result="BackgroundImageFix"/>
<feColorMatrix in="SourceAlpha" result="hardAlpha" type="matrix" values="0 0 0 0 0 0 0 0 0 0 0 0 0 0 0 0 0 0 127 0"/>
<feOffset dy="1"/>
<feGaussianBlur stdDeviation="1"/>
<feColorMatrix type="matrix" values="0 0 0 0 0 0 0 0 0 0 0 0 0 0 0 0 0 0 0.1 0"/>
<feBlend in2="BackgroundImageFix" mode="multiply" result="effect1_dropShadow_1_375"/>
<feBlend in="SourceGraphic" in2="effect1_dropShadow_1_375" mode="normal" result="shape"/>
</filter>
<filter color-interpolation-filters="sRGB" filterUnits="userSpaceOnUse" height="12.16" id="filter3_d_1_375" width="12.16" x="10.6601" y="19.4">
<feFlood flood-opacity="0" result="BackgroundImageFix"/>
<feColorMatrix in="SourceAlpha" result="hardAlpha" type="matrix" values="0 0 0 0 0 0 0 0 0 0 0 0 0 0 0 0 0 0 127 0"/>
<feOffset dy="1"/>
<feGaussianBlur stdDeviation="1"/>
<feColorMatrix type="matrix" values="0 0 0 0 0 0 0 0 0 0 0 0 0 0 0 0 0 0 0.1 0"/>
<feBlend in2="BackgroundImageFix" mode="multiply" result="effect1_dropShadow_1_375"/>
<feBlend in="SourceGraphic" in2="effect1_dropShadow_1_375" mode="normal" result="shape"/>
</filter>
<filter color-interpolation-filters="sRGB" filterUnits="userSpaceOnUse" height="15.22" id="filter4_d_1_375" width="18.28" x="7.6" y="29.7799">
<feFlood flood-opacity="0" result="BackgroundImageFix"/>
<feColorMatrix in="SourceAlpha" result="hardAlpha" type="matrix" values="0 0 0 0 0 0 0 0 0 0 0 0 0 0 0 0 0 0 127 0"/>
<feOffset dy="1"/>
<feGaussianBlur stdDeviation="1"/>
<feColorMatrix type="matrix" values="0 0 0 0 0 0 0 0 0 0 0 0 0 0 0 0 0 0 0.1 0"/>
<feBlend in2="BackgroundImageFix" mode="multiply" result="effect1_dropShadow_1_375"/>
<feBlend in="SourceGraphic" in2="effect1_dropShadow_1_375" mode="normal" result="shape"/>
</filter>
<linearGradient gradientUnits="userSpaceOnUse" id="paint0_linear_1_375" x1="24" x2="24" y1="9.6" y2="38.4">
<stop stop-color="white"/>
<stop offset="1" stop-color="white" stop-opacity="0"/>
</linearGradient>
</defs>
</svg>