<?xml version="1.0" encoding="utf-8"?>
<svg xmlns="http://www.w3.org/2000/svg" fill="none" height="48" viewBox="0 0 48 48" width="48">
<circle cx="24" cy="24" fill="#397CFF" r="24"/>
<g filter="url(#filter0_ddi_1_373)">
<path d="M9.6 24C9.6 18.9595 9.6 16.4393 10.5809 14.5141C11.4438 12.8206 12.8206 11.4438 14.5141 10.5809C16.4393 9.6 18.9595 9.6 24 9.6V9.6C29.0405 9.6 31.5607 9.6 33.4859 10.5809C35.1794 11.4438 36.5562 12.8206 37.4191 14.5141C38.4 16.4393 38.4 18.9595 38.4 24V24C38.4 29.0405 38.4 31.5607 37.4191 33.4859C36.5562 35.1794 35.1794 36.5562 33.4859 37.4191C31.5607 38.4 29.0405 38.4 24 38.4V38.4C18.9595 38.4 16.4393 38.4 14.5141 37.4191C12.8206 36.5562 11.4438 35.1794 10.5809 33.4859C9.6 31.5607 9.6 29.0405 9.6 24V24Z" fill="#5B92FF"/>
<path d="M9.6 24C9.6 18.9595 9.6 16.4393 10.5809 14.5141C11.4438 12.8206 12.8206 11.4438 14.5141 10.5809C16.4393 9.6 18.9595 9.6 24 9.6V9.6C29.0405 9.6 31.5607 9.6 33.4859 10.5809C35.1794 11.4438 36.5562 12.8206 37.4191 14.5141C38.4 16.4393 38.4 18.9595 38.4 24V24C38.4 29.0405 38.4 31.5607 37.4191 33.4859C36.5562 35.1794 35.1794 36.5562 33.4859 37.4191C31.5607 38.4 29.0405 38.4 24 38.4V38.4C18.9595 38.4 16.4393 38.4 14.5141 37.4191C12.8206 36.5562 11.4438 35.1794 10.5809 33.4859C9.6 31.5607 9.6 29.0405 9.6 24V24Z" fill="url(#paint0_linear_1_373)" fill-opacity="0.2"/>
</g>
<mask height="30" id="mask0_1_373" maskUnits="userSpaceOnUse" style="mask-type:alpha" width="30" x="9" y="9">
<path d="M9.6 24C9.6 18.9595 9.6 16.4393 10.5809 14.5141C11.4438 12.8206 12.8206 11.4438 14.5141 10.5809C16.4393 9.6 18.9595 9.6 24 9.6V9.6C29.0405 9.6 31.5607 9.6 33.4859 10.5809C35.1794 11.4438 36.5562 12.8206 37.4191 14.5141C38.4 16.4393 38.4 18.9595 38.4 24V24C38.4 29.0405 38.4 31.5607 37.4191 33.4859C36.5562 35.1794 35.1794 36.5562 33.4859 37.4191C31.5607 38.4 29.0405 38.4 24 38.4V38.4C18.9595 38.4 16.4393 38.4 14.5141 37.4191C12.8206 36.5562 11.4438 35.1794 10.5809 33.4859C9.6 31.5607 9.6 29.0405 9.6 24V24Z" fill="#60B3FF"/>
</mask>
<g mask="url(#mask0_1_373)">
<g filter="url(#filter1_dddi_1_373)">
<path clip-rule="evenodd" d="M10.5809 14.5141C9.6 16.4393 9.6 18.9595 9.6 24C9.6 29.0405 9.6 31.5607 10.5809 33.4859C11.4438 35.1794 12.8206 36.5562 14.5141 37.4191C16.4393 38.4 18.9595 38.4 24 38.4C29.0405 38.4 31.5607 38.4 33.4859 37.4191C35.1794 36.5562 36.5562 35.1794 37.4191 33.4859C38.4 31.5607 38.4 29.0405 38.4 24C38.4 18.9595 38.4 16.4393 37.4191 14.5141C36.5562 12.8206 35.1794 11.4438 33.4859 10.5809C31.5607 9.6 29.0405 9.6 24 9.6C18.9595 9.6 16.4393 9.6 14.5141 10.5809C12.8206 11.4438 11.4438 12.8206 10.5809 14.5141ZM14.6645 14.6645C13.2 16.1289 13.2 18.486 13.2 23.2V24.8C13.2 29.514 13.2 31.8711 14.6645 33.3355C16.1289 34.8 18.486 34.8 23.2 34.8H24.8C29.514 34.8 31.8711 34.8 33.3355 33.3355C34.8 31.8711 34.8 29.514 34.8 24.8V23.2C34.8 18.486 34.8 16.1289 33.3355 14.6645C31.8711 13.2 29.514 13.2 24.8 13.2H23.2C18.486 13.2 16.1289 13.2 14.6645 14.6645Z" fill="#90B5FF" fill-rule="evenodd"/>
<path clip-rule="evenodd" d="M10.5809 14.5141C9.6 16.4393 9.6 18.9595 9.6 24C9.6 29.0405 9.6 31.5607 10.5809 33.4859C11.4438 35.1794 12.8206 36.5562 14.5141 37.4191C16.4393 38.4 18.9595 38.4 24 38.4C29.0405 38.4 31.5607 38.4 33.4859 37.4191C35.1794 36.5562 36.5562 35.1794 37.4191 33.4859C38.4 31.5607 38.4 29.0405 38.4 24C38.4 18.9595 38.4 16.4393 37.4191 14.5141C36.5562 12.8206 35.1794 11.4438 33.4859 10.5809C31.5607 9.6 29.0405 9.6 24 9.6C18.9595 9.6 16.4393 9.6 14.5141 10.5809C12.8206 11.4438 11.4438 12.8206 10.5809 14.5141ZM14.6645 14.6645C13.2 16.1289 13.2 18.486 13.2 23.2V24.8C13.2 29.514 13.2 31.8711 14.6645 33.3355C16.1289 34.8 18.486 34.8 23.2 34.8H24.8C29.514 34.8 31.8711 34.8 33.3355 33.3355C34.8 31.8711 34.8 29.514 34.8 24.8V23.2C34.8 18.486 34.8 16.1289 33.3355 14.6645C31.8711 13.2 29.514 13.2 24.8 13.2H23.2C18.486 13.2 16.1289 13.2 14.6645 14.6645Z" fill="url(#paint1_linear_1_373)" fill-opacity="0.2" fill-rule="evenodd"/>
</g>
<g filter="url(#filter2_d_1_373)">
<ellipse cx="28.8" cy="24" fill="white" rx="4.8" ry="4.8"/>
</g>
<g filter="url(#filter3_d_1_373)">
<path d="M20.4 37.68C20.4 34.9918 20.4 33.6476 20.9232 32.6208C21.3834 31.7177 22.1177 30.9834 23.0208 30.5232C24.0476 30 25.3917 30 28.08 30H29.52C32.2082 30 33.5524 30 34.5792 30.5232C35.4823 30.9834 36.2166 31.7177 36.6768 32.6208C37.2 33.6476 37.2 34.9917 37.2 37.68V43.2H20.4V37.68Z" fill="white"/>
</g>
</g>
<defs>
<filter color-interpolation-filters="sRGB" filterUnits="userSpaceOnUse" height="38.8" id="filter0_ddi_1_373" width="36.8" x="5.6" y="8.6">
<feFlood flood-opacity="0" result="BackgroundImageFix"/>
<feColorMatrix in="SourceAlpha" result="hardAlpha" type="matrix" values="0 0 0 0 0 0 0 0 0 0 0 0 0 0 0 0 0 0 127 0"/>
<feOffset dy="3"/>
<feGaussianBlur stdDeviation="2"/>
<feColorMatrix type="matrix" values="0 0 0 0 0 0 0 0 0 0 0 0 0 0 0 0 0 0 0.05 0"/>
<feBlend in2="BackgroundImageFix" mode="multiply" result="effect1_dropShadow_1_373"/>
<feColorMatrix in="SourceAlpha" result="hardAlpha" type="matrix" values="0 0 0 0 0 0 0 0 0 0 0 0 0 0 0 0 0 0 127 0"/>
<feOffset dy="5"/>
<feGaussianBlur stdDeviation="2"/>
<feColorMatrix type="matrix" values="0 0 0 0 0 0 0 0 0 0 0 0 0 0 0 0 0 0 0.05 0"/>
<feBlend in2="effect1_dropShadow_1_373" mode="multiply" result="effect2_dropShadow_1_373"/>
<feBlend in="SourceGraphic" in2="effect2_dropShadow_1_373" mode="normal" result="shape"/>
<feColorMatrix in="SourceAlpha" result="hardAlpha" type="matrix" values="0 0 0 0 0 0 0 0 0 0 0 0 0 0 0 0 0 0 127 0"/>
<feOffset dy="0.5"/>
<feComposite in2="hardAlpha" k2="-1" k3="1" operator="arithmetic"/>
<feColorMatrix type="matrix" values="0 0 0 0 1 0 0 0 0 1 0 0 0 0 1 0 0 0 0.1 0"/>
<feBlend in2="shape" mode="normal" result="effect3_innerShadow_1_373"/>
</filter>
<filter color-interpolation-filters="sRGB" filterUnits="userSpaceOnUse" height="38.8" id="filter1_dddi_1_373" width="36.8" x="5.6" y="8.6">
<feFlood flood-opacity="0" result="BackgroundImageFix"/>
<feColorMatrix in="SourceAlpha" result="hardAlpha" type="matrix" values="0 0 0 0 0 0 0 0 0 0 0 0 0 0 0 0 0 0 127 0"/>
<feOffset dy="3"/>
<feGaussianBlur stdDeviation="2"/>
<feColorMatrix type="matrix" values="0 0 0 0 0 0 0 0 0 0 0 0 0 0 0 0 0 0 0.05 0"/>
<feBlend in2="BackgroundImageFix" mode="multiply" result="effect1_dropShadow_1_373"/>
<feColorMatrix in="SourceAlpha" result="hardAlpha" type="matrix" values="0 0 0 0 0 0 0 0 0 0 0 0 0 0 0 0 0 0 127 0"/>
<feOffset dy="5"/>
<feGaussianBlur stdDeviation="2"/>
<feColorMatrix type="matrix" values="0 0 0 0 0 0 0 0 0 0 0 0 0 0 0 0 0 0 0.05 0"/>
<feBlend in2="effect1_dropShadow_1_373" mode="multiply" result="effect2_dropShadow_1_373"/>
<feColorMatrix in="SourceAlpha" result="hardAlpha" type="matrix" values="0 0 0 0 0 0 0 0 0 0 0 0 0 0 0 0 0 0 127 0"/>
<feOffset dy="1"/>
<feGaussianBlur stdDeviation="0.5"/>
<feComposite in2="hardAlpha" operator="out"/>
<feColorMatrix type="matrix" values="0 0 0 0 0 0 0 0 0 0.189812 0 0 0 0 0.316772 0 0 0 0.1 0"/>
<feBlend in2="effect2_dropShadow_1_373" mode="multiply" result="effect3_dropShadow_1_373"/>
<feBlend in="SourceGraphic" in2="effect3_dropShadow_1_373" mode="normal" result="shape"/>
<feColorMatrix in="SourceAlpha" result="hardAlpha" type="matrix" values="0 0 0 0 0 0 0 0 0 0 0 0 0 0 0 0 0 0 127 0"/>
<feOffset dy="0.5"/>
<feComposite in2="hardAlpha" k2="-1" k3="1" operator="arithmetic"/>
<feColorMatrix type="matrix" values="0 0 0 0 1 0 0 0 0 1 0 0 0 0 1 0 0 0 0.1 0"/>
<feBlend in2="shape" mode="normal" result="effect4_innerShadow_1_373"/>
</filter>
<filter color-interpolation-filters="sRGB" filterUnits="userSpaceOnUse" height="13.6" id="filter2_d_1_373" width="13.6" x="22" y="18.2">
<feFlood flood-opacity="0" result="BackgroundImageFix"/>
<feColorMatrix in="SourceAlpha" result="hardAlpha" type="matrix" values="0 0 0 0 0 0 0 0 0 0 0 0 0 0 0 0 0 0 127 0"/>
<feOffset dy="1"/>
<feGaussianBlur stdDeviation="1"/>
<feColorMatrix type="matrix" values="0 0 0 0 0 0 0 0 0 0 0 0 0 0 0 0 0 0 0.1 0"/>
<feBlend in2="BackgroundImageFix" mode="multiply" result="effect1_dropShadow_1_373"/>
<feBlend in="SourceGraphic" in2="effect1_dropShadow_1_373" mode="normal" result="shape"/>
</filter>
<filter color-interpolation-filters="sRGB" filterUnits="userSpaceOnUse" height="17.2" id="filter3_d_1_373" width="20.8" x="18.4" y="29">
<feFlood flood-opacity="0" result="BackgroundImageFix"/>
<feColorMatrix in="SourceAlpha" result="hardAlpha" type="matrix" values="0 0 0 0 0 0 0 0 0 0 0 0 0 0 0 0 0 0 127 0"/>
<feOffset dy="1"/>
<feGaussianBlur stdDeviation="1"/>
<feColorMatrix type="matrix" values="0 0 0 0 0 0 0 0 0 0 0 0 0 0 0 0 0 0 0.1 0"/>
<feBlend in2="BackgroundImageFix" mode="multiply" result="effect1_dropShadow_1_373"/>
<feBlend in="SourceGraphic" in2="effect1_dropShadow_1_373" mode="normal" result="shape"/>
</filter>
<linearGradient gradientUnits="userSpaceOnUse" id="paint0_linear_1_373" x1="24" x2="24" y1="9.6" y2="38.4">
<stop stop-color="white"/>
<stop offset="1" stop-color="white" stop-opacity="0"/>
</linearGradient>
<linearGradient gradientUnits="userSpaceOnUse" id="paint1_linear_1_373" x1="24" x2="24" y1="9.6" y2="38.4">
<stop stop-color="white"/>
<stop offset="1" stop-color="white" stop-opacity="0"/>
</linearGradient>
</defs>
</svg>