<?xml version="1.0" encoding="utf-8"?>
<svg xmlns="http://www.w3.org/2000/svg" fill="none" height="48" viewBox="0 0 48 48" width="48">
<circle cx="24" cy="24" fill="#0098FD" r="24"/>
<g filter="url(#filter0_ddi_1_387)">
<path d="M9.60001 24C9.60001 18.9595 9.60001 16.4393 10.5809 14.5141C11.4438 12.8206 12.8206 11.4438 14.5141 10.5809C16.4393 9.6 18.9595 9.6 24 9.6V9.6C29.0405 9.6 31.5607 9.6 33.4859 10.5809C35.1794 11.4438 36.5562 12.8206 37.4191 14.5141C38.4 16.4393 38.4 18.9595 38.4 24V24C38.4 29.0405 38.4 31.5607 37.4191 33.4859C36.5562 35.1794 35.1794 36.5562 33.4859 37.4191C31.5607 38.4 29.0405 38.4 24 38.4V38.4C18.9595 38.4 16.4393 38.4 14.5141 37.4191C12.8206 36.5562 11.4438 35.1794 10.5809 33.4859C9.60001 31.5607 9.60001 29.0405 9.60001 24V24Z" fill="#60B3FF"/>
<path d="M9.60001 24C9.60001 18.9595 9.60001 16.4393 10.5809 14.5141C11.4438 12.8206 12.8206 11.4438 14.5141 10.5809C16.4393 9.6 18.9595 9.6 24 9.6V9.6C29.0405 9.6 31.5607 9.6 33.4859 10.5809C35.1794 11.4438 36.5562 12.8206 37.4191 14.5141C38.4 16.4393 38.4 18.9595 38.4 24V24C38.4 29.0405 38.4 31.5607 37.4191 33.4859C36.5562 35.1794 35.1794 36.5562 33.4859 37.4191C31.5607 38.4 29.0405 38.4 24 38.4V38.4C18.9595 38.4 16.4393 38.4 14.5141 37.4191C12.8206 36.5562 11.4438 35.1794 10.5809 33.4859C9.60001 31.5607 9.60001 29.0405 9.60001 24V24Z" fill="url(#paint0_linear_1_387)" fill-opacity="0.2"/>
</g>
<g filter="url(#filter1_d_1_387)">
<path d="M29.6 19.6H28.6857V18.9714C28.6857 16.4114 26.6743 14.4 24.1143 14.4C21.5543 14.4 19.5428 16.4114 19.5428 18.9714V19.6H18.6286C17.6228 19.6 16.8 20.4229 16.8 21.4286V30.5714C16.8 31.5771 17.6228 32.4 18.6286 32.4H29.6C30.6057 32.4 31.4286 31.5771 31.4286 30.5714V21.4286C31.4286 20.4229 30.6057 19.6 29.6 19.6ZM24.1143 27.8286C23.1086 27.8286 22.2857 27.0057 22.2857 26C22.2857 24.9943 23.1086 24.1714 24.1143 24.1714C25.12 24.1714 25.9428 24.9943 25.9428 26C25.9428 27.0057 25.12 27.8286 24.1143 27.8286ZM26.9486 19.6H21.28V18.9714C21.28 17.4171 22.56 16.1371 24.1143 16.1371C25.6686 16.1371 26.9486 17.4171 26.9486 18.9714V19.6Z" fill="white"/>
</g>
<defs>
<filter color-interpolation-filters="sRGB" filterUnits="userSpaceOnUse" height="38.8" id="filter0_ddi_1_387" width="36.8" x="5.60001" y="8.6">
<feFlood flood-opacity="0" result="BackgroundImageFix"/>
<feColorMatrix in="SourceAlpha" result="hardAlpha" type="matrix" values="0 0 0 0 0 0 0 0 0 0 0 0 0 0 0 0 0 0 127 0"/>
<feOffset dy="3"/>
<feGaussianBlur stdDeviation="2"/>
<feColorMatrix type="matrix" values="0 0 0 0 0 0 0 0 0 0 0 0 0 0 0 0 0 0 0.05 0"/>
<feBlend in2="BackgroundImageFix" mode="multiply" result="effect1_dropShadow_1_387"/>
<feColorMatrix in="SourceAlpha" result="hardAlpha" type="matrix" values="0 0 0 0 0 0 0 0 0 0 0 0 0 0 0 0 0 0 127 0"/>
<feOffset dy="5"/>
<feGaussianBlur stdDeviation="2"/>
<feColorMatrix type="matrix" values="0 0 0 0 0 0 0 0 0 0 0 0 0 0 0 0 0 0 0.05 0"/>
<feBlend in2="effect1_dropShadow_1_387" mode="multiply" result="effect2_dropShadow_1_387"/>
<feBlend in="SourceGraphic" in2="effect2_dropShadow_1_387" mode="normal" result="shape"/>
<feColorMatrix in="SourceAlpha" result="hardAlpha" type="matrix" values="0 0 0 0 0 0 0 0 0 0 0 0 0 0 0 0 0 0 127 0"/>
<feOffset dy="0.5"/>
<feComposite in2="hardAlpha" k2="-1" k3="1" operator="arithmetic"/>
<feColorMatrix type="matrix" values="0 0 0 0 1 0 0 0 0 1 0 0 0 0 1 0 0 0 0.1 0"/>
<feBlend in2="shape" mode="normal" result="effect3_innerShadow_1_387"/>
</filter>
<filter color-interpolation-filters="sRGB" filterUnits="userSpaceOnUse" height="22" id="filter1_d_1_387" width="18.6286" x="14.8" y="13.4">
<feFlood flood-opacity="0" result="BackgroundImageFix"/>
<feColorMatrix in="SourceAlpha" result="hardAlpha" type="matrix" values="0 0 0 0 0 0 0 0 0 0 0 0 0 0 0 0 0 0 127 0"/>
<feOffset dy="1"/>
<feGaussianBlur stdDeviation="1"/>
<feColorMatrix type="matrix" values="0 0 0 0 0 0 0 0 0 0 0 0 0 0 0 0 0 0 0.1 0"/>
<feBlend in2="BackgroundImageFix" mode="multiply" result="effect1_dropShadow_1_387"/>
<feBlend in="SourceGraphic" in2="effect1_dropShadow_1_387" mode="normal" result="shape"/>
</filter>
<linearGradient gradientUnits="userSpaceOnUse" id="paint0_linear_1_387" x1="24" x2="24" y1="9.6" y2="38.4">
<stop stop-color="white"/>
<stop offset="1" stop-color="white" stop-opacity="0"/>
</linearGradient>
</defs>
</svg>