<?xml version="1.0" encoding="utf-8"?>
<svg xmlns="http://www.w3.org/2000/svg" fill="none" height="35" viewBox="0 0 114 35" width="114">
<g clip-path="url(#clip0_504_10555)">
<path d="M17.1298 0.216797C7.698 0.216797 0.0516357 7.86295 0.0516357 17.2948C0.0516357 26.727 7.698 34.3725 17.1298 34.3725C26.5627 34.3725 34.2082 26.727 34.2082 17.2948C34.2082 7.86357 26.5627 0.217613 17.1296 0.217613L17.1298 0.216797V0.216797ZM24.9618 24.8481C24.6559 25.3498 23.9992 25.5089 23.4975 25.2009C19.4877 22.7517 14.4399 22.197 8.49518 23.5552C7.92233 23.6857 7.35131 23.3268 7.22079 22.7537C7.08966 22.1807 7.44716 21.6096 8.02144 21.4791C14.527 19.9928 20.1073 20.6328 24.609 23.3839C25.1106 23.6918 25.2697 24.3465 24.9618 24.8481V24.8481ZM27.0521 20.198C26.6667 20.8245 25.8468 21.0223 25.2208 20.6369C20.6302 17.8152 13.6325 16.998 8.20274 18.6463C7.49855 18.859 6.7548 18.4621 6.54107 17.7591C6.32898 17.0549 6.72604 16.3126 7.42901 16.0985C13.6313 14.2166 21.3419 15.1282 26.6136 18.3677C27.2397 18.7531 27.4375 19.5729 27.0521 20.1982V20.198ZM27.2316 15.3558C21.7273 12.0865 12.6461 11.7859 7.39087 13.3808C6.54699 13.6368 5.65456 13.1604 5.39883 12.3165C5.14309 11.4722 5.61908 10.5804 6.46358 10.3238C12.4962 8.4925 22.5247 8.84633 28.8618 12.6083C29.6225 13.0588 29.8713 14.0391 29.4206 14.7972C28.972 15.5562 27.989 15.8064 27.2324 15.3558H27.2316ZM46.5157 15.9822C43.5668 15.2791 43.0427 14.7855 43.0427 13.7485C43.0427 12.7688 43.9645 12.1095 45.337 12.1095C46.6666 12.1095 47.9841 12.6102 49.3667 13.6409C49.4075 13.6721 49.4605 13.6845 49.5115 13.6763C49.5646 13.6686 49.6094 13.6402 49.64 13.5976L51.0798 11.5681C51.1389 11.4844 51.1226 11.3692 51.0431 11.3054C49.3973 9.98531 47.5456 9.34353 45.3798 9.34353C42.1964 9.34353 39.9714 11.2542 39.9714 13.988C39.9714 16.9195 41.8905 17.9576 45.2064 18.7588C48.0269 19.4088 48.5041 19.9533 48.5041 20.9265C48.5041 22.0053 47.5415 22.6762 45.9916 22.6762C44.2704 22.6762 42.8653 22.095 41.295 20.7368C41.2562 20.7021 41.2032 20.6879 41.1542 20.6899C41.1012 20.694 41.0543 20.7184 41.0217 20.7572L39.4065 22.6783C39.3392 22.7598 39.3474 22.8781 39.4249 22.9475C41.2521 24.5789 43.4995 25.4396 45.9263 25.4396C49.3565 25.4396 51.5733 23.5654 51.5733 20.6634C51.5794 18.2147 50.1131 16.8586 46.5218 15.9849L46.5157 15.9822V15.9822ZM59.3351 13.0741C57.8484 13.0741 56.6289 13.6598 55.6214 14.86V13.5091C55.6214 13.4025 55.5358 13.3156 55.4297 13.3156H52.7888C52.6827 13.3156 52.5971 13.4025 52.5971 13.5091V28.519C52.5971 28.625 52.6827 28.7127 52.7888 28.7127H55.4297C55.5358 28.7127 55.6214 28.625 55.6214 28.519V23.7816C56.6289 24.9093 57.8484 25.462 59.3351 25.462C62.0984 25.462 64.8964 23.3349 64.8964 19.2687C64.9005 15.2016 62.1025 13.0739 59.3371 13.0739L59.3351 13.0741ZM61.8252 19.2687C61.8252 21.3384 60.5506 22.7843 58.7233 22.7843C56.9185 22.7843 55.5562 21.2731 55.5562 19.2687C55.5562 17.264 56.9185 15.7532 58.7233 15.7532C60.52 15.753 61.8252 17.2311 61.8252 19.2685V19.2687ZM72.0648 13.0741C68.5061 13.0741 65.7183 15.8142 65.7183 19.3129C65.7183 22.7741 68.4877 25.4844 72.0219 25.4844C75.5929 25.4844 78.3888 22.7537 78.3888 19.2687C78.3888 15.7954 75.6112 13.0745 72.0648 13.0745V13.0741V13.0741ZM72.0648 22.8047C70.1722 22.8047 68.7447 21.2833 68.7447 19.2676C68.7447 17.2428 70.1233 15.7734 72.0219 15.7734C73.9267 15.7734 75.3624 17.2942 75.3624 19.3119C75.3624 21.3364 73.9756 22.8047 72.0648 22.8047V22.8047ZM85.9875 13.3156H83.0814V10.3451C83.0814 10.2386 82.9957 10.1517 82.8897 10.1517H80.2487C80.1427 10.1517 80.055 10.2386 80.055 10.3451V13.3156H78.7865C78.6804 13.3156 78.5948 13.4025 78.5948 13.5091V15.7783C78.5948 15.8848 78.6804 15.9718 78.7865 15.9718H80.055V21.8442C80.055 24.2159 81.2358 25.4192 83.5667 25.4192C84.513 25.4192 85.2982 25.2234 86.0384 24.8033C86.0996 24.7706 86.1363 24.7054 86.1363 24.636V22.4743C86.1363 22.4091 86.1017 22.3458 86.0446 22.3112C85.9875 22.2745 85.9161 22.2724 85.8569 22.303C85.3491 22.5579 84.8577 22.6762 84.307 22.6762C83.4607 22.6762 83.0814 22.2908 83.0814 21.4302V15.9729H85.9875C86.0935 15.9729 86.1792 15.886 86.1792 15.7793V13.5103C86.1832 13.4037 86.0976 13.3168 85.9895 13.3168L85.9875 13.3156V13.3156ZM96.1108 13.3272V12.9624C96.1108 11.8891 96.5228 11.4104 97.4446 11.4104C97.9952 11.4104 98.4377 11.5197 98.9333 11.6849C98.9945 11.7041 99.0577 11.6945 99.1066 11.658C99.1576 11.6215 99.1862 11.563 99.1862 11.501V9.27602C99.1862 9.19098 99.1331 9.11573 99.0495 9.09065C98.5275 8.93504 97.8585 8.77536 96.8552 8.77536C94.4182 8.77536 93.1272 10.1487 93.1272 12.7454V13.3042H91.8588C91.7527 13.3042 91.665 13.391 91.665 13.4975V15.7783C91.665 15.8848 91.7527 15.9718 91.8588 15.9718H93.1272V25.0276C93.1272 25.1357 93.2149 25.2213 93.321 25.2213H95.9599C96.068 25.2213 96.1536 25.1357 96.1536 25.0276V15.9725H98.6192L102.396 25.0276C101.968 25.9779 101.546 26.1676 100.971 26.1676C100.506 26.1676 100.014 26.0289 99.5145 25.7536C99.4676 25.7291 99.4105 25.7251 99.3616 25.7393C99.3106 25.7577 99.2677 25.7944 99.2474 25.8433L98.3521 27.8072C98.3092 27.9011 98.346 28.0091 98.4357 28.0581C99.3697 28.5638 100.212 28.78 101.254 28.78C103.204 28.78 104.283 27.8705 105.231 25.4273L109.811 13.5915C109.836 13.532 109.828 13.4647 109.791 13.4118C109.756 13.3594 109.697 13.3278 109.634 13.3278H106.885C106.801 13.3278 106.728 13.3802 106.701 13.4575L103.885 21.4995L100.801 13.4522C100.773 13.3774 100.701 13.3278 100.622 13.3278H96.1108V13.3272V13.3272ZM90.2416 13.3156H87.6006C87.4945 13.3156 87.4069 13.4025 87.4069 13.5091V25.0276C87.4069 25.1357 87.4945 25.2213 87.6006 25.2213H90.2416C90.3476 25.2213 90.4353 25.1357 90.4353 25.0276V13.5099C90.4353 13.4033 90.3496 13.3164 90.2416 13.3164V13.3156ZM88.9364 8.07056C87.8902 8.07056 87.0418 8.9173 87.0418 9.96329C87.0418 11.0099 87.8902 11.8576 88.9364 11.8576C89.9826 11.8576 90.8289 11.0099 90.8289 9.96329C90.8289 8.91751 89.9805 8.07056 88.9364 8.07056ZM112.067 17.0193C111.023 17.0193 110.209 16.1801 110.209 15.161C110.209 14.1419 111.033 13.2931 112.077 13.2931C113.121 13.2931 113.935 14.1321 113.935 15.1504C113.935 16.1695 113.111 17.0193 112.067 17.0193ZM112.077 13.4779C111.125 13.4779 110.405 14.2345 110.405 15.161C110.405 16.0871 111.12 16.8335 112.067 16.8335C113.019 16.8335 113.739 16.0775 113.739 15.1504C113.739 14.2243 113.023 13.4779 112.077 13.4779V13.4779ZM112.489 15.3415L113.015 16.0773H112.57L112.097 15.4022H111.692V16.0773H111.32V14.1268H112.189C112.644 14.1268 112.942 14.3587 112.942 14.749C112.944 15.0688 112.758 15.2642 112.491 15.3415H112.489ZM112.175 14.4615H111.692V15.0784H112.175C112.415 15.0784 112.56 14.9603 112.56 14.7696C112.56 14.569 112.415 14.4615 112.175 14.4615V14.4615Z" fill="#1E1E23"/>
</g>
<defs>
<clipPath id="clip0_504_10555">
<rect fill="white" height="34.2612" transform="translate(0 0.160156)" width="114"/>
</clipPath>
</defs>
</svg>