<?xml version="1.0" encoding="utf-8"?>
<svg xmlns="http://www.w3.org/2000/svg" fill="none" height="50" viewBox="0 0 50 50" width="50">
<g clip-path="url(#clip0_504_10549)">
<path d="M40.4412 21.3235C39.7059 20.9559 38.8236 20.8823 38.0147 21.0294C37.0589 21.1764 36.103 21.7647 35.5147 22.5735C34.853 23.4559 34.5589 24.6323 34.7795 25.7353C35 26.9117 35.8089 28.0147 36.9118 28.5294C37.7206 28.9706 38.6765 29.0441 39.5589 28.897C40.5147 28.6764 41.4706 28.0882 41.9853 27.2794C42.6471 26.397 42.8677 25.2206 42.6471 24.1176C42.353 22.8676 41.5442 21.8382 40.4412 21.3235ZM39.1177 26.25C38.603 26.397 37.9412 26.25 37.5736 25.8088C37.2795 25.4411 37.2059 24.9264 37.353 24.4853C37.5 24.0441 37.8677 23.6764 38.3089 23.6029C39.1177 23.3823 40.0736 23.9706 40.0736 24.8529C40.1471 25.4411 39.7059 26.1029 39.1177 26.25Z" fill="#1E1E23"/>
<path d="M23.3088 21.1028C22.1323 20.6616 20.8088 20.8822 19.7794 21.544C18.897 22.1322 18.3088 23.0146 18.0146 23.9705C20.6617 23.9705 23.2352 23.9705 25.8823 23.9705C25.5882 22.6469 24.5588 21.544 23.3088 21.1028Z" fill="#1E1E23"/>
<path d="M49.0441 18.1616C48.3088 15.5146 47.1324 12.941 45.5147 10.7352C42.5 6.39692 38.0883 3.01457 33.0883 1.32339C29.7794 0.220449 26.25 -0.220727 22.7941 0.0733906C17.353 0.514567 12.1324 2.86751 8.16179 6.54398C4.70591 9.70574 2.20591 13.7499 0.955911 18.2352C2.87018e-05 21.6175 -0.220559 25.2204 0.294146 28.6763C0.735323 31.6175 1.69121 34.4852 3.16179 37.1322C5.66179 41.691 9.63238 45.441 14.3383 47.6469C19.4853 50.0734 25.3677 50.6616 30.8824 49.3381C35.0736 48.3087 39.0441 46.1763 42.2059 43.1616C45.0736 40.441 47.353 36.9852 48.603 33.2352C50.2941 28.4557 50.4412 23.0881 49.0441 18.1616ZM15.8824 30.5146C15.5883 30.5881 15.2941 30.5146 15.0736 30.294C13.6765 28.8969 12.2794 27.4999 10.8824 26.1028C9.55885 27.4263 8.23532 28.7499 6.91179 30.0734C6.6912 30.294 6.54415 30.5146 6.25003 30.5881C5.88238 30.6616 5.51473 30.441 5.36768 30.0734C5.29415 29.7793 5.36768 29.4852 5.51473 29.2646C6.91179 27.8675 8.38238 26.4704 9.77944 24.9999V24.9263C8.45591 23.6028 7.20591 22.3528 5.88238 21.0293C5.66179 20.8087 5.36768 20.5881 5.36768 20.294C5.29415 19.9263 5.58826 19.4852 6.02944 19.4116C6.32356 19.3381 6.61768 19.4852 6.76473 19.6322C8.16179 21.0293 9.55885 22.4263 10.9559 23.8234C12.353 22.4263 13.8236 20.9557 15.2206 19.5587C15.5147 19.2646 16.1765 19.3381 16.3971 19.7057C16.6177 19.9999 16.5441 20.441 16.25 20.6616C14.853 22.0587 13.3824 23.4557 11.9853 24.9263C13.3824 26.3234 14.7059 27.6469 16.103 29.044C16.25 29.191 16.4706 29.4116 16.4706 29.7057C16.4706 29.9999 16.25 30.441 15.8824 30.5146ZM26.9118 25.294C26.5441 25.5146 26.1765 25.5881 25.7353 25.5881C23.1618 25.5881 20.5883 25.5881 18.0147 25.5881C18.1618 26.544 18.6765 27.4263 19.4853 28.0881C20.4412 28.8969 21.9118 29.191 23.0883 28.8969C23.8236 28.6763 24.4853 28.2352 25 27.6469C25.1471 27.4263 25.2941 27.2057 25.5883 27.0587C25.9559 26.8381 26.5441 27.0587 26.6912 27.4999C26.7647 27.794 26.7647 28.0881 26.5441 28.3087C26.103 28.8234 25.5883 29.3381 25 29.7793C24.2647 30.2204 23.3824 30.5146 22.5 30.5881C21.25 30.6616 19.9265 30.3675 18.8971 29.6322C17.7941 28.8969 16.9853 27.794 16.6912 26.544C16.0294 24.3381 16.9118 21.8381 18.75 20.5146C19.9265 19.6322 21.4706 19.2646 22.8677 19.4852C24.0441 19.6322 25.2206 20.2204 26.0294 21.0293C26.8383 21.8381 27.353 22.8675 27.5736 23.9704C27.5736 24.4116 27.353 24.9999 26.9118 25.294ZM31.3236 21.2499C30.9559 21.4704 30.7353 21.8381 30.6618 22.2057C30.5147 22.8675 30.5147 23.5293 30.5147 24.191C30.5147 26.0293 30.5147 27.794 30.5147 29.6322C30.5147 30.0734 30.1471 30.441 29.7059 30.3675C29.2647 30.3675 28.8971 29.9999 28.8971 29.5587C28.8971 26.4705 28.8971 23.3087 28.8971 20.2204C28.8971 19.8528 29.1177 19.4852 29.4853 19.4116C29.9265 19.2646 30.3677 19.5587 30.4412 19.9999C31.103 19.4852 31.9853 19.2646 32.7941 19.4116C33.2353 19.4852 33.4559 19.9999 33.3824 20.3675C33.3089 20.6616 33.0147 20.8822 32.6471 20.8822C32.2794 20.9557 31.7647 21.0293 31.3236 21.2499ZM44.1177 26.3234C43.8236 27.4999 43.0883 28.6028 42.1324 29.3381C41.1765 30.0734 39.9265 30.5146 38.75 30.5146C37.5 30.5146 36.3236 30.1469 35.3677 29.4116C34.4853 28.7499 33.75 27.794 33.4559 26.691C33.0147 25.294 33.0883 23.7499 33.75 22.4263C34.5589 20.7352 36.1765 19.5587 38.0147 19.3381C39.1912 19.191 40.4412 19.4116 41.5441 19.9999C42.6471 20.6616 43.603 21.691 44.0441 22.8675C44.4118 23.9704 44.4118 25.2204 44.1177 26.3234Z" fill="#1E1E23"/>
</g>
<defs>
<clipPath id="clip0_504_10549">
<rect fill="white" height="50" width="50"/>
</clipPath>
</defs>
</svg>