<?xml version="1.0" encoding="utf-8"?>
<svg xmlns="http://www.w3.org/2000/svg" fill="none" height="97" viewBox="0 0 97 97" width="97">
<path d="M3.34483 0H0V3.34483H3.34483V0Z" fill="#323232"/>
<path d="M6.68968 0H3.34485V3.34483H6.68968V0Z" fill="#323232"/>
<path d="M10.0345 0H6.6897V3.34483H10.0345V0Z" fill="#323232"/>
<path d="M13.3793 0H10.0345V3.34483H13.3793V0Z" fill="#323232"/>
<path d="M16.7242 0H13.3793V3.34483H16.7242V0Z" fill="#323232"/>
<path d="M20.0689 0H16.7241V3.34483H20.0689V0Z" fill="#323232"/>
<path d="M23.4138 0H20.069V3.34483H23.4138V0Z" fill="#323232"/>
<path d="M30.1034 0H26.7586V3.34483H30.1034V0Z" fill="#323232"/>
<path d="M33.4483 0H30.1035V3.34483H33.4483V0Z" fill="#323232"/>
<path d="M36.7931 0H33.4483V3.34483H36.7931V0Z" fill="#323232"/>
<path d="M43.4828 0H40.1379V3.34483H43.4828V0Z" fill="#323232"/>
<path d="M46.8276 0H43.4828V3.34483H46.8276V0Z" fill="#323232"/>
<path d="M53.5172 0H50.1724V3.34483H53.5172V0Z" fill="#323232"/>
<path d="M56.862 0H53.5172V3.34483H56.862V0Z" fill="#323232"/>
<path d="M63.5517 0H60.2069V3.34483H63.5517V0Z" fill="#323232"/>
<path d="M76.9311 0H73.5862V3.34483H76.9311V0Z" fill="#323232"/>
<path d="M80.2759 0H76.9311V3.34483H80.2759V0Z" fill="#323232"/>
<path d="M83.6207 0H80.2759V3.34483H83.6207V0Z" fill="#323232"/>
<path d="M86.9655 0H83.6207V3.34483H86.9655V0Z" fill="#323232"/>
<path d="M90.3103 0H86.9655V3.34483H90.3103V0Z" fill="#323232"/>
<path d="M93.6551 0H90.3103V3.34483H93.6551V0Z" fill="#323232"/>
<path d="M97 0H93.6552V3.34483H97V0Z" fill="#323232"/>
<path d="M3.34483 3.34473H0V6.68955H3.34483V3.34473Z" fill="#323232"/>
<path d="M23.4138 3.34473H20.069V6.68955H23.4138V3.34473Z" fill="#323232"/>
<path d="M30.1034 3.34473H26.7586V6.68955H30.1034V3.34473Z" fill="#323232"/>
<path d="M33.4483 3.34473H30.1035V6.68955H33.4483V3.34473Z" fill="#323232"/>
<path d="M36.7931 3.34473H33.4483V6.68955H36.7931V3.34473Z" fill="#323232"/>
<path d="M46.8276 3.34473H43.4828V6.68955H46.8276V3.34473Z" fill="#323232"/>
<path d="M66.8965 3.34473H63.5517V6.68955H66.8965V3.34473Z" fill="#323232"/>
<path d="M76.9311 3.34473H73.5862V6.68955H76.9311V3.34473Z" fill="#323232"/>
<path d="M97 3.34473H93.6552V6.68955H97V3.34473Z" fill="#323232"/>
<path d="M3.34483 6.68994H0V10.0348H3.34483V6.68994Z" fill="#323232"/>
<path d="M10.0345 6.68994H6.6897V10.0348H10.0345V6.68994Z" fill="#323232"/>
<path d="M13.3793 6.68994H10.0345V10.0348H13.3793V6.68994Z" fill="#323232"/>
<path d="M16.7242 6.68994H13.3793V10.0348H16.7242V6.68994Z" fill="#323232"/>
<path d="M23.4138 6.68994H20.069V10.0348H23.4138V6.68994Z" fill="#323232"/>
<path d="M30.1034 6.68994H26.7586V10.0348H30.1034V6.68994Z" fill="#323232"/>
<path d="M36.7931 6.68994H33.4483V10.0348H36.7931V6.68994Z" fill="#323232"/>
<path d="M40.1379 6.68994H36.7931V10.0348H40.1379V6.68994Z" fill="#323232"/>
<path d="M50.1725 6.68994H46.8276V10.0348H50.1725V6.68994Z" fill="#323232"/>
<path d="M60.2069 6.68994H56.8621V10.0348H60.2069V6.68994Z" fill="#323232"/>
<path d="M63.5517 6.68994H60.2069V10.0348H63.5517V6.68994Z" fill="#323232"/>
<path d="M70.2414 6.68994H66.8965V10.0348H70.2414V6.68994Z" fill="#323232"/>
<path d="M76.9311 6.68994H73.5862V10.0348H76.9311V6.68994Z" fill="#323232"/>
<path d="M83.6207 6.68994H80.2759V10.0348H83.6207V6.68994Z" fill="#323232"/>
<path d="M86.9655 6.68994H83.6207V10.0348H86.9655V6.68994Z" fill="#323232"/>
<path d="M90.3103 6.68994H86.9655V10.0348H90.3103V6.68994Z" fill="#323232"/>
<path d="M97 6.68994H93.6552V10.0348H97V6.68994Z" fill="#323232"/>
<path d="M3.34483 10.0347H0V13.3795H3.34483V10.0347Z" fill="#323232"/>
<path d="M10.0345 10.0347H6.6897V13.3795H10.0345V10.0347Z" fill="#323232"/>
<path d="M13.3793 10.0347H10.0345V13.3795H13.3793V10.0347Z" fill="#323232"/>
<path d="M16.7242 10.0347H13.3793V13.3795H16.7242V10.0347Z" fill="#323232"/>
<path d="M23.4138 10.0347H20.069V13.3795H23.4138V10.0347Z" fill="#323232"/>
<path d="M30.1034 10.0347H26.7586V13.3795H30.1034V10.0347Z" fill="#323232"/>
<path d="M33.4483 10.0347H30.1035V13.3795H33.4483V10.0347Z" fill="#323232"/>
<path d="M40.1379 10.0347H36.7931V13.3795H40.1379V10.0347Z" fill="#323232"/>
<path d="M46.8276 10.0347H43.4828V13.3795H46.8276V10.0347Z" fill="#323232"/>
<path d="M56.862 10.0347H53.5172V13.3795H56.862V10.0347Z" fill="#323232"/>
<path d="M66.8965 10.0347H63.5517V13.3795H66.8965V10.0347Z" fill="#323232"/>
<path d="M76.9311 10.0347H73.5862V13.3795H76.9311V10.0347Z" fill="#323232"/>
<path d="M83.6207 10.0347H80.2759V13.3795H83.6207V10.0347Z" fill="#323232"/>
<path d="M86.9655 10.0347H83.6207V13.3795H86.9655V10.0347Z" fill="#323232"/>
<path d="M90.3103 10.0347H86.9655V13.3795H90.3103V10.0347Z" fill="#323232"/>
<path d="M97 10.0347H93.6552V13.3795H97V10.0347Z" fill="#323232"/>
<path d="M3.34483 13.3789H0V16.7237H3.34483V13.3789Z" fill="#323232"/>
<path d="M10.0345 13.3789H6.6897V16.7237H10.0345V13.3789Z" fill="#323232"/>
<path d="M13.3793 13.3789H10.0345V16.7237H13.3793V13.3789Z" fill="#323232"/>
<path d="M16.7242 13.3789H13.3793V16.7237H16.7242V13.3789Z" fill="#323232"/>
<path d="M23.4138 13.3789H20.069V16.7237H23.4138V13.3789Z" fill="#323232"/>
<path d="M53.5172 13.3789H50.1724V16.7237H53.5172V13.3789Z" fill="#323232"/>
<path d="M56.862 13.3789H53.5172V16.7237H56.862V13.3789Z" fill="#323232"/>
<path d="M60.2069 13.3789H56.8621V16.7237H60.2069V13.3789Z" fill="#323232"/>
<path d="M63.5517 13.3789H60.2069V16.7237H63.5517V13.3789Z" fill="#323232"/>
<path d="M76.9311 13.3789H73.5862V16.7237H76.9311V13.3789Z" fill="#323232"/>
<path d="M83.6207 13.3789H80.2759V16.7237H83.6207V13.3789Z" fill="#323232"/>
<path d="M86.9655 13.3789H83.6207V16.7237H86.9655V13.3789Z" fill="#323232"/>
<path d="M90.3103 13.3789H86.9655V16.7237H90.3103V13.3789Z" fill="#323232"/>
<path d="M97 13.3789H93.6552V16.7237H97V13.3789Z" fill="#323232"/>
<path d="M3.34483 16.7241H0V20.0689H3.34483V16.7241Z" fill="#323232"/>
<path d="M23.4138 16.7241H20.069V20.0689H23.4138V16.7241Z" fill="#323232"/>
<path d="M30.1034 16.7241H26.7586V20.0689H30.1034V16.7241Z" fill="#323232"/>
<path d="M40.1379 16.7241H36.7931V20.0689H40.1379V16.7241Z" fill="#323232"/>
<path d="M43.4828 16.7241H40.1379V20.0689H43.4828V16.7241Z" fill="#323232"/>
<path d="M60.2069 16.7241H56.8621V20.0689H60.2069V16.7241Z" fill="#323232"/>
<path d="M66.8965 16.7241H63.5517V20.0689H66.8965V16.7241Z" fill="#323232"/>
<path d="M70.2414 16.7241H66.8965V20.0689H70.2414V16.7241Z" fill="#323232"/>
<path d="M76.9311 16.7241H73.5862V20.0689H76.9311V16.7241Z" fill="#323232"/>
<path d="M97 16.7241H93.6552V20.0689H97V16.7241Z" fill="#323232"/>
<path d="M3.34483 20.0688H0V23.4137H3.34483V20.0688Z" fill="#323232"/>
<path d="M6.68968 20.0688H3.34485V23.4137H6.68968V20.0688Z" fill="#323232"/>
<path d="M10.0345 20.0688H6.6897V23.4137H10.0345V20.0688Z" fill="#323232"/>
<path d="M13.3793 20.0688H10.0345V23.4137H13.3793V20.0688Z" fill="#323232"/>
<path d="M16.7242 20.0688H13.3793V23.4137H16.7242V20.0688Z" fill="#323232"/>
<path d="M20.0689 20.0688H16.7241V23.4137H20.0689V20.0688Z" fill="#323232"/>
<path d="M23.4138 20.0688H20.069V23.4137H23.4138V20.0688Z" fill="#323232"/>
<path d="M30.1034 20.0688H26.7586V23.4137H30.1034V20.0688Z" fill="#323232"/>
<path d="M36.7931 20.0688H33.4483V23.4137H36.7931V20.0688Z" fill="#323232"/>
<path d="M43.4828 20.0688H40.1379V23.4137H43.4828V20.0688Z" fill="#323232"/>
<path d="M50.1725 20.0688H46.8276V23.4137H50.1725V20.0688Z" fill="#323232"/>
<path d="M56.862 20.0688H53.5172V23.4137H56.862V20.0688Z" fill="#323232"/>
<path d="M63.5517 20.0688H60.2069V23.4137H63.5517V20.0688Z" fill="#323232"/>
<path d="M70.2414 20.0688H66.8965V23.4137H70.2414V20.0688Z" fill="#323232"/>
<path d="M76.9311 20.0688H73.5862V23.4137H76.9311V20.0688Z" fill="#323232"/>
<path d="M80.2759 20.0688H76.9311V23.4137H80.2759V20.0688Z" fill="#323232"/>
<path d="M83.6207 20.0688H80.2759V23.4137H83.6207V20.0688Z" fill="#323232"/>
<path d="M86.9655 20.0688H83.6207V23.4137H86.9655V20.0688Z" fill="#323232"/>
<path d="M90.3103 20.0688H86.9655V23.4137H90.3103V20.0688Z" fill="#323232"/>
<path d="M93.6551 20.0688H90.3103V23.4137H93.6551V20.0688Z" fill="#323232"/>
<path d="M97 20.0688H93.6552V23.4137H97V20.0688Z" fill="#323232"/>
<path d="M33.4483 23.4136H30.1035V26.7584H33.4483V23.4136Z" fill="#323232"/>
<path d="M43.4828 23.4136H40.1379V26.7584H43.4828V23.4136Z" fill="#323232"/>
<path d="M50.1725 23.4136H46.8276V26.7584H50.1725V23.4136Z" fill="#323232"/>
<path d="M53.5172 23.4136H50.1724V26.7584H53.5172V23.4136Z" fill="#323232"/>
<path d="M56.862 23.4136H53.5172V26.7584H56.862V23.4136Z" fill="#323232"/>
<path d="M60.2069 23.4136H56.8621V26.7584H60.2069V23.4136Z" fill="#323232"/>
<path d="M63.5517 23.4136H60.2069V26.7584H63.5517V23.4136Z" fill="#323232"/>
<path d="M66.8965 23.4136H63.5517V26.7584H66.8965V23.4136Z" fill="#323232"/>
<path d="M70.2414 23.4136H66.8965V26.7584H70.2414V23.4136Z" fill="#323232"/>
<path d="M3.34483 26.7588H0V30.1036H3.34483V26.7588Z" fill="#323232"/>
<path d="M6.68968 26.7588H3.34485V30.1036H6.68968V26.7588Z" fill="#323232"/>
<path d="M16.7242 26.7588H13.3793V30.1036H16.7242V26.7588Z" fill="#323232"/>
<path d="M20.0689 26.7588H16.7241V30.1036H20.0689V26.7588Z" fill="#323232"/>
<path d="M23.4138 26.7588H20.069V30.1036H23.4138V26.7588Z" fill="#323232"/>
<path d="M40.1379 26.7588H36.7931V30.1036H40.1379V26.7588Z" fill="#323232"/>
<path d="M43.4828 26.7588H40.1379V30.1036H43.4828V26.7588Z" fill="#323232"/>
<path d="M56.862 26.7588H53.5172V30.1036H56.862V26.7588Z" fill="#323232"/>
<path d="M70.2414 26.7588H66.8965V30.1036H70.2414V26.7588Z" fill="#323232"/>
<path d="M80.2759 26.7588H76.9311V30.1036H80.2759V26.7588Z" fill="#323232"/>
<path d="M86.9655 26.7588H83.6207V30.1036H86.9655V26.7588Z" fill="#323232"/>
<path d="M90.3103 26.7588H86.9655V30.1036H90.3103V26.7588Z" fill="#323232"/>
<path d="M93.6551 26.7588H90.3103V30.1036H93.6551V26.7588Z" fill="#323232"/>
<path d="M97 26.7588H93.6552V30.1036H97V26.7588Z" fill="#323232"/>
<path d="M6.68968 30.1035H3.34485V33.4483H6.68968V30.1035Z" fill="#323232"/>
<path d="M10.0345 30.1035H6.6897V33.4483H10.0345V30.1035Z" fill="#323232"/>
<path d="M13.3793 30.1035H10.0345V33.4483H13.3793V30.1035Z" fill="#323232"/>
<path d="M20.0689 30.1035H16.7241V33.4483H20.0689V30.1035Z" fill="#323232"/>
<path d="M33.4483 30.1035H30.1035V33.4483H33.4483V30.1035Z" fill="#323232"/>
<path d="M36.7931 30.1035H33.4483V33.4483H36.7931V30.1035Z" fill="#323232"/>
<path d="M43.4828 30.1035H40.1379V33.4483H43.4828V30.1035Z" fill="#323232"/>
<path d="M46.8276 30.1035H43.4828V33.4483H46.8276V30.1035Z" fill="#323232"/>
<path d="M50.1725 30.1035H46.8276V33.4483H50.1725V30.1035Z" fill="#323232"/>
<path d="M53.5172 30.1035H50.1724V33.4483H53.5172V30.1035Z" fill="#323232"/>
<path d="M56.862 30.1035H53.5172V33.4483H56.862V30.1035Z" fill="#323232"/>
<path d="M60.2069 30.1035H56.8621V33.4483H60.2069V30.1035Z" fill="#323232"/>
<path d="M63.5517 30.1035H60.2069V33.4483H63.5517V30.1035Z" fill="#323232"/>
<path d="M70.2414 30.1035H66.8965V33.4483H70.2414V30.1035Z" fill="#323232"/>
<path d="M76.9311 30.1035H73.5862V33.4483H76.9311V30.1035Z" fill="#323232"/>
<path d="M83.6207 30.1035H80.2759V33.4483H83.6207V30.1035Z" fill="#323232"/>
<path d="M86.9655 30.1035H83.6207V33.4483H86.9655V30.1035Z" fill="#323232"/>
<path d="M90.3103 30.1035H86.9655V33.4483H90.3103V30.1035Z" fill="#323232"/>
<path d="M93.6551 30.1035H90.3103V33.4483H93.6551V30.1035Z" fill="#323232"/>
<path d="M97 30.1035H93.6552V33.4483H97V30.1035Z" fill="#323232"/>
<path d="M10.0345 33.4482H6.6897V36.7931H10.0345V33.4482Z" fill="#323232"/>
<path d="M13.3793 33.4482H10.0345V36.7931H13.3793V33.4482Z" fill="#323232"/>
<path d="M20.0689 33.4482H16.7241V36.7931H20.0689V33.4482Z" fill="#323232"/>
<path d="M23.4138 33.4482H20.069V36.7931H23.4138V33.4482Z" fill="#323232"/>
<path d="M26.7586 33.4482H23.4138V36.7931H26.7586V33.4482Z" fill="#323232"/>
<path d="M30.1034 33.4482H26.7586V36.7931H30.1034V33.4482Z" fill="#323232"/>
<path d="M40.1379 33.4482H36.7931V36.7931H40.1379V33.4482Z" fill="#323232"/>
<path d="M43.4828 33.4482H40.1379V36.7931H43.4828V33.4482Z" fill="#323232"/>
<path d="M53.5172 33.4482H50.1724V36.7931H53.5172V33.4482Z" fill="#323232"/>
<path d="M56.862 33.4482H53.5172V36.7931H56.862V33.4482Z" fill="#323232"/>
<path d="M60.2069 33.4482H56.8621V36.7931H60.2069V33.4482Z" fill="#323232"/>
<path d="M70.2414 33.4482H66.8965V36.7931H70.2414V33.4482Z" fill="#323232"/>
<path d="M80.2759 33.4482H76.9311V36.7931H80.2759V33.4482Z" fill="#323232"/>
<path d="M97 33.4482H93.6552V36.7931H97V33.4482Z" fill="#323232"/>
<path d="M10.0345 36.793H6.6897V40.1378H10.0345V36.793Z" fill="#323232"/>
<path d="M16.7242 36.793H13.3793V40.1378H16.7242V36.793Z" fill="#323232"/>
<path d="M20.0689 36.793H16.7241V40.1378H20.0689V36.793Z" fill="#323232"/>
<path d="M26.7586 36.793H23.4138V40.1378H26.7586V36.793Z" fill="#323232"/>
<path d="M36.7931 36.793H33.4483V40.1378H36.7931V36.793Z" fill="#323232"/>
<path d="M40.1379 36.793H36.7931V40.1378H40.1379V36.793Z" fill="#323232"/>
<path d="M43.4828 36.793H40.1379V40.1378H43.4828V36.793Z" fill="#323232"/>
<path d="M50.1725 36.793H46.8276V40.1378H50.1725V36.793Z" fill="#323232"/>
<path d="M53.5172 36.793H50.1724V40.1378H53.5172V36.793Z" fill="#323232"/>
<path d="M56.862 36.793H53.5172V40.1378H56.862V36.793Z" fill="#323232"/>
<path d="M60.2069 36.793H56.8621V40.1378H60.2069V36.793Z" fill="#323232"/>
<path d="M66.8965 36.793H63.5517V40.1378H66.8965V36.793Z" fill="#323232"/>
<path d="M73.5862 36.793H70.2414V40.1378H73.5862V36.793Z" fill="#323232"/>
<path d="M86.9655 36.793H83.6207V40.1378H86.9655V36.793Z" fill="#323232"/>
<path d="M93.6551 36.793H90.3103V40.1378H93.6551V36.793Z" fill="#323232"/>
<path d="M97 36.793H93.6552V40.1378H97V36.793Z" fill="#323232"/>
<path d="M16.7242 40.1377H13.3793V43.4825H16.7242V40.1377Z" fill="#323232"/>
<path d="M23.4138 40.1377H20.069V43.4825H23.4138V40.1377Z" fill="#323232"/>
<path d="M30.1034 40.1377H26.7586V43.4825H30.1034V40.1377Z" fill="#323232"/>
<path d="M36.7931 40.1377H33.4483V43.4825H36.7931V40.1377Z" fill="#323232"/>
<path d="M43.4828 40.1377H40.1379V43.4825H43.4828V40.1377Z" fill="#323232"/>
<path d="M56.862 40.1377H53.5172V43.4825H56.862V40.1377Z" fill="#323232"/>
<path d="M70.2414 40.1377H66.8965V43.4825H70.2414V40.1377Z" fill="#323232"/>
<path d="M73.5862 40.1377H70.2414V43.4825H73.5862V40.1377Z" fill="#323232"/>
<path d="M93.6551 40.1377H90.3103V43.4825H93.6551V40.1377Z" fill="#323232"/>
<path d="M3.34483 43.4824H0V46.8272H3.34483V43.4824Z" fill="#323232"/>
<path d="M6.68968 43.4824H3.34485V46.8272H6.68968V43.4824Z" fill="#323232"/>
<path d="M20.0689 43.4824H16.7241V46.8272H20.0689V43.4824Z" fill="#323232"/>
<path d="M40.1379 43.4824H36.7931V46.8272H40.1379V43.4824Z" fill="#323232"/>
<path d="M46.8276 43.4824H43.4828V46.8272H46.8276V43.4824Z" fill="#323232"/>
<path d="M50.1725 43.4824H46.8276V46.8272H50.1725V43.4824Z" fill="#323232"/>
<path d="M53.5172 43.4824H50.1724V46.8272H53.5172V43.4824Z" fill="#323232"/>
<path d="M56.862 43.4824H53.5172V46.8272H56.862V43.4824Z" fill="#323232"/>
<path d="M63.5517 43.4824H60.2069V46.8272H63.5517V43.4824Z" fill="#323232"/>
<path d="M76.9311 43.4824H73.5862V46.8272H76.9311V43.4824Z" fill="#323232"/>
<path d="M80.2759 43.4824H76.9311V46.8272H80.2759V43.4824Z" fill="#323232"/>
<path d="M83.6207 43.4824H80.2759V46.8272H83.6207V43.4824Z" fill="#323232"/>
<path d="M86.9655 43.4824H83.6207V46.8272H86.9655V43.4824Z" fill="#323232"/>
<path d="M90.3103 43.4824H86.9655V46.8272H90.3103V43.4824Z" fill="#323232"/>
<path d="M93.6551 43.4824H90.3103V46.8272H93.6551V43.4824Z" fill="#323232"/>
<path d="M97 43.4824H93.6552V46.8272H97V43.4824Z" fill="#323232"/>
<path d="M6.68968 46.8276H3.34485V50.1725H6.68968V46.8276Z" fill="#323232"/>
<path d="M13.3793 46.8276H10.0345V50.1725H13.3793V46.8276Z" fill="#323232"/>
<path d="M16.7242 46.8276H13.3793V50.1725H16.7242V46.8276Z" fill="#323232"/>
<path d="M23.4138 46.8276H20.069V50.1725H23.4138V46.8276Z" fill="#323232"/>
<path d="M26.7586 46.8276H23.4138V50.1725H26.7586V46.8276Z" fill="#323232"/>
<path d="M30.1034 46.8276H26.7586V50.1725H30.1034V46.8276Z" fill="#323232"/>
<path d="M33.4483 46.8276H30.1035V50.1725H33.4483V46.8276Z" fill="#323232"/>
<path d="M40.1379 46.8276H36.7931V50.1725H40.1379V46.8276Z" fill="#323232"/>
<path d="M43.4828 46.8276H40.1379V50.1725H43.4828V46.8276Z" fill="#323232"/>
<path d="M46.8276 46.8276H43.4828V50.1725H46.8276V46.8276Z" fill="#323232"/>
<path d="M50.1725 46.8276H46.8276V50.1725H50.1725V46.8276Z" fill="#323232"/>
<path d="M53.5172 46.8276H50.1724V50.1725H53.5172V46.8276Z" fill="#323232"/>
<path d="M56.862 46.8276H53.5172V50.1725H56.862V46.8276Z" fill="#323232"/>
<path d="M63.5517 46.8276H60.2069V50.1725H63.5517V46.8276Z" fill="#323232"/>
<path d="M86.9655 46.8276H83.6207V50.1725H86.9655V46.8276Z" fill="#323232"/>
<path d="M90.3103 46.8276H86.9655V50.1725H90.3103V46.8276Z" fill="#323232"/>
<path d="M97 46.8276H93.6552V50.1725H97V46.8276Z" fill="#323232"/>
<path d="M3.34483 50.1724H0V53.5172H3.34483V50.1724Z" fill="#323232"/>
<path d="M10.0345 50.1724H6.6897V53.5172H10.0345V50.1724Z" fill="#323232"/>
<path d="M20.0689 50.1724H16.7241V53.5172H20.0689V50.1724Z" fill="#323232"/>
<path d="M26.7586 50.1724H23.4138V53.5172H26.7586V50.1724Z" fill="#323232"/>
<path d="M30.1034 50.1724H26.7586V53.5172H30.1034V50.1724Z" fill="#323232"/>
<path d="M33.4483 50.1724H30.1035V53.5172H33.4483V50.1724Z" fill="#323232"/>
<path d="M40.1379 50.1724H36.7931V53.5172H40.1379V50.1724Z" fill="#323232"/>
<path d="M43.4828 50.1724H40.1379V53.5172H43.4828V50.1724Z" fill="#323232"/>
<path d="M56.862 50.1724H53.5172V53.5172H56.862V50.1724Z" fill="#323232"/>
<path d="M60.2069 50.1724H56.8621V53.5172H60.2069V50.1724Z" fill="#323232"/>
<path d="M66.8965 50.1724H63.5517V53.5172H66.8965V50.1724Z" fill="#323232"/>
<path d="M70.2414 50.1724H66.8965V53.5172H70.2414V50.1724Z" fill="#323232"/>
<path d="M93.6551 50.1724H90.3103V53.5172H93.6551V50.1724Z" fill="#323232"/>
<path d="M97 50.1724H93.6552V53.5172H97V50.1724Z" fill="#323232"/>
<path d="M6.68968 53.5176H3.34485V56.8624H6.68968V53.5176Z" fill="#323232"/>
<path d="M10.0345 53.5176H6.6897V56.8624H10.0345V53.5176Z" fill="#323232"/>
<path d="M13.3793 53.5176H10.0345V56.8624H13.3793V53.5176Z" fill="#323232"/>
<path d="M20.0689 53.5176H16.7241V56.8624H20.0689V53.5176Z" fill="#323232"/>
<path d="M23.4138 53.5176H20.069V56.8624H23.4138V53.5176Z" fill="#323232"/>
<path d="M33.4483 53.5176H30.1035V56.8624H33.4483V53.5176Z" fill="#323232"/>
<path d="M46.8276 53.5176H43.4828V56.8624H46.8276V53.5176Z" fill="#323232"/>
<path d="M53.5172 53.5176H50.1724V56.8624H53.5172V53.5176Z" fill="#323232"/>
<path d="M60.2069 53.5176H56.8621V56.8624H60.2069V53.5176Z" fill="#323232"/>
<path d="M70.2414 53.5176H66.8965V56.8624H70.2414V53.5176Z" fill="#323232"/>
<path d="M73.5862 53.5176H70.2414V56.8624H73.5862V53.5176Z" fill="#323232"/>
<path d="M93.6551 53.5176H90.3103V56.8624H93.6551V53.5176Z" fill="#323232"/>
<path d="M3.34483 56.8623H0V60.2071H3.34483V56.8623Z" fill="#323232"/>
<path d="M6.68968 56.8623H3.34485V60.2071H6.68968V56.8623Z" fill="#323232"/>
<path d="M10.0345 56.8623H6.6897V60.2071H10.0345V56.8623Z" fill="#323232"/>
<path d="M16.7242 56.8623H13.3793V60.2071H16.7242V56.8623Z" fill="#323232"/>
<path d="M30.1034 56.8623H26.7586V60.2071H30.1034V56.8623Z" fill="#323232"/>
<path d="M33.4483 56.8623H30.1035V60.2071H33.4483V56.8623Z" fill="#323232"/>
<path d="M36.7931 56.8623H33.4483V60.2071H36.7931V56.8623Z" fill="#323232"/>
<path d="M40.1379 56.8623H36.7931V60.2071H40.1379V56.8623Z" fill="#323232"/>
<path d="M53.5172 56.8623H50.1724V60.2071H53.5172V56.8623Z" fill="#323232"/>
<path d="M56.862 56.8623H53.5172V60.2071H56.862V56.8623Z" fill="#323232"/>
<path d="M76.9311 56.8623H73.5862V60.2071H76.9311V56.8623Z" fill="#323232"/>
<path d="M80.2759 56.8623H76.9311V60.2071H80.2759V56.8623Z" fill="#323232"/>
<path d="M83.6207 56.8623H80.2759V60.2071H83.6207V56.8623Z" fill="#323232"/>
<path d="M86.9655 56.8623H83.6207V60.2071H86.9655V56.8623Z" fill="#323232"/>
<path d="M93.6551 56.8623H90.3103V60.2071H93.6551V56.8623Z" fill="#323232"/>
<path d="M97 56.8623H93.6552V60.2071H97V56.8623Z" fill="#323232"/>
<path d="M10.0345 60.207H6.6897V63.5519H10.0345V60.207Z" fill="#323232"/>
<path d="M13.3793 60.207H10.0345V63.5519H13.3793V60.207Z" fill="#323232"/>
<path d="M16.7242 60.207H13.3793V63.5519H16.7242V60.207Z" fill="#323232"/>
<path d="M23.4138 60.207H20.069V63.5519H23.4138V60.207Z" fill="#323232"/>
<path d="M30.1034 60.207H26.7586V63.5519H30.1034V60.207Z" fill="#323232"/>
<path d="M33.4483 60.207H30.1035V63.5519H33.4483V60.207Z" fill="#323232"/>
<path d="M40.1379 60.207H36.7931V63.5519H40.1379V60.207Z" fill="#323232"/>
<path d="M46.8276 60.207H43.4828V63.5519H46.8276V60.207Z" fill="#323232"/>
<path d="M50.1725 60.207H46.8276V63.5519H50.1725V60.207Z" fill="#323232"/>
<path d="M53.5172 60.207H50.1724V63.5519H53.5172V60.207Z" fill="#323232"/>
<path d="M70.2414 60.207H66.8965V63.5519H70.2414V60.207Z" fill="#323232"/>
<path d="M90.3103 60.207H86.9655V63.5519H90.3103V60.207Z" fill="#323232"/>
<path d="M97 60.207H93.6552V63.5519H97V60.207Z" fill="#323232"/>
<path d="M16.7242 63.5518H13.3793V66.8966H16.7242V63.5518Z" fill="#323232"/>
<path d="M20.0689 63.5518H16.7241V66.8966H20.0689V63.5518Z" fill="#323232"/>
<path d="M30.1034 63.5518H26.7586V66.8966H30.1034V63.5518Z" fill="#323232"/>
<path d="M50.1725 63.5518H46.8276V66.8966H50.1725V63.5518Z" fill="#323232"/>
<path d="M56.862 63.5518H53.5172V66.8966H56.862V63.5518Z" fill="#323232"/>
<path d="M60.2069 63.5518H56.8621V66.8966H60.2069V63.5518Z" fill="#323232"/>
<path d="M73.5862 63.5518H70.2414V66.8966H73.5862V63.5518Z" fill="#323232"/>
<path d="M93.6551 63.5518H90.3103V66.8966H93.6551V63.5518Z" fill="#323232"/>
<path d="M97 63.5518H93.6552V66.8966H97V63.5518Z" fill="#323232"/>
<path d="M3.34483 66.8965H0V70.2413H3.34483V66.8965Z" fill="#323232"/>
<path d="M6.68968 66.8965H3.34485V70.2413H6.68968V66.8965Z" fill="#323232"/>
<path d="M10.0345 66.8965H6.6897V70.2413H10.0345V66.8965Z" fill="#323232"/>
<path d="M23.4138 66.8965H20.069V70.2413H23.4138V66.8965Z" fill="#323232"/>
<path d="M30.1034 66.8965H26.7586V70.2413H30.1034V66.8965Z" fill="#323232"/>
<path d="M36.7931 66.8965H33.4483V70.2413H36.7931V66.8965Z" fill="#323232"/>
<path d="M53.5172 66.8965H50.1724V70.2413H53.5172V66.8965Z" fill="#323232"/>
<path d="M60.2069 66.8965H56.8621V70.2413H60.2069V66.8965Z" fill="#323232"/>
<path d="M70.2414 66.8965H66.8965V70.2413H70.2414V66.8965Z" fill="#323232"/>
<path d="M73.5862 66.8965H70.2414V70.2413H73.5862V66.8965Z" fill="#323232"/>
<path d="M76.9311 66.8965H73.5862V70.2413H76.9311V66.8965Z" fill="#323232"/>
<path d="M80.2759 66.8965H76.9311V70.2413H80.2759V66.8965Z" fill="#323232"/>
<path d="M83.6207 66.8965H80.2759V70.2413H83.6207V66.8965Z" fill="#323232"/>
<path d="M86.9655 66.8965H83.6207V70.2413H86.9655V66.8965Z" fill="#323232"/>
<path d="M97 66.8965H93.6552V70.2413H97V66.8965Z" fill="#323232"/>
<path d="M30.1034 70.2412H26.7586V73.586H30.1034V70.2412Z" fill="#323232"/>
<path d="M36.7931 70.2412H33.4483V73.586H36.7931V70.2412Z" fill="#323232"/>
<path d="M40.1379 70.2412H36.7931V73.586H40.1379V70.2412Z" fill="#323232"/>
<path d="M46.8276 70.2412H43.4828V73.586H46.8276V70.2412Z" fill="#323232"/>
<path d="M53.5172 70.2412H50.1724V73.586H53.5172V70.2412Z" fill="#323232"/>
<path d="M56.862 70.2412H53.5172V73.586H56.862V70.2412Z" fill="#323232"/>
<path d="M60.2069 70.2412H56.8621V73.586H60.2069V70.2412Z" fill="#323232"/>
<path d="M63.5517 70.2412H60.2069V73.586H63.5517V70.2412Z" fill="#323232"/>
<path d="M66.8965 70.2412H63.5517V73.586H66.8965V70.2412Z" fill="#323232"/>
<path d="M70.2414 70.2412H66.8965V73.586H70.2414V70.2412Z" fill="#323232"/>
<path d="M83.6207 70.2412H80.2759V73.586H83.6207V70.2412Z" fill="#323232"/>
<path d="M97 70.2412H93.6552V73.586H97V70.2412Z" fill="#323232"/>
<path d="M3.34483 73.5864H0V76.9313H3.34483V73.5864Z" fill="#323232"/>
<path d="M6.68968 73.5864H3.34485V76.9313H6.68968V73.5864Z" fill="#323232"/>
<path d="M10.0345 73.5864H6.6897V76.9313H10.0345V73.5864Z" fill="#323232"/>
<path d="M13.3793 73.5864H10.0345V76.9313H13.3793V73.5864Z" fill="#323232"/>
<path d="M16.7242 73.5864H13.3793V76.9313H16.7242V73.5864Z" fill="#323232"/>
<path d="M20.0689 73.5864H16.7241V76.9313H20.0689V73.5864Z" fill="#323232"/>
<path d="M23.4138 73.5864H20.069V76.9313H23.4138V73.5864Z" fill="#323232"/>
<path d="M33.4483 73.5864H30.1035V76.9313H33.4483V73.5864Z" fill="#323232"/>
<path d="M36.7931 73.5864H33.4483V76.9313H36.7931V73.5864Z" fill="#323232"/>
<path d="M40.1379 73.5864H36.7931V76.9313H40.1379V73.5864Z" fill="#323232"/>
<path d="M53.5172 73.5864H50.1724V76.9313H53.5172V73.5864Z" fill="#323232"/>
<path d="M66.8965 73.5864H63.5517V76.9313H66.8965V73.5864Z" fill="#323232"/>
<path d="M70.2414 73.5864H66.8965V76.9313H70.2414V73.5864Z" fill="#323232"/>
<path d="M76.9311 73.5864H73.5862V76.9313H76.9311V73.5864Z" fill="#323232"/>
<path d="M83.6207 73.5864H80.2759V76.9313H83.6207V73.5864Z" fill="#323232"/>
<path d="M86.9655 73.5864H83.6207V76.9313H86.9655V73.5864Z" fill="#323232"/>
<path d="M90.3103 73.5864H86.9655V76.9313H90.3103V73.5864Z" fill="#323232"/>
<path d="M97 73.5864H93.6552V76.9313H97V73.5864Z" fill="#323232"/>
<path d="M3.34483 76.9312H0V80.276H3.34483V76.9312Z" fill="#323232"/>
<path d="M23.4138 76.9312H20.069V80.276H23.4138V76.9312Z" fill="#323232"/>
<path d="M30.1034 76.9312H26.7586V80.276H30.1034V76.9312Z" fill="#323232"/>
<path d="M33.4483 76.9312H30.1035V80.276H33.4483V76.9312Z" fill="#323232"/>
<path d="M40.1379 76.9312H36.7931V80.276H40.1379V76.9312Z" fill="#323232"/>
<path d="M43.4828 76.9312H40.1379V80.276H43.4828V76.9312Z" fill="#323232"/>
<path d="M50.1725 76.9312H46.8276V80.276H50.1725V76.9312Z" fill="#323232"/>
<path d="M60.2069 76.9312H56.8621V80.276H60.2069V76.9312Z" fill="#323232"/>
<path d="M63.5517 76.9312H60.2069V80.276H63.5517V76.9312Z" fill="#323232"/>
<path d="M66.8965 76.9312H63.5517V80.276H66.8965V76.9312Z" fill="#323232"/>
<path d="M70.2414 76.9312H66.8965V80.276H70.2414V76.9312Z" fill="#323232"/>
<path d="M83.6207 76.9312H80.2759V80.276H83.6207V76.9312Z" fill="#323232"/>
<path d="M93.6551 76.9312H90.3103V80.276H93.6551V76.9312Z" fill="#323232"/>
<path d="M97 76.9312H93.6552V80.276H97V76.9312Z" fill="#323232"/>
<path d="M3.34483 80.2759H0V83.6207H3.34483V80.2759Z" fill="#323232"/>
<path d="M10.0345 80.2759H6.6897V83.6207H10.0345V80.2759Z" fill="#323232"/>
<path d="M13.3793 80.2759H10.0345V83.6207H13.3793V80.2759Z" fill="#323232"/>
<path d="M16.7242 80.2759H13.3793V83.6207H16.7242V80.2759Z" fill="#323232"/>
<path d="M23.4138 80.2759H20.069V83.6207H23.4138V80.2759Z" fill="#323232"/>
<path d="M30.1034 80.2759H26.7586V83.6207H30.1034V80.2759Z" fill="#323232"/>
<path d="M56.862 80.2759H53.5172V83.6207H56.862V80.2759Z" fill="#323232"/>
<path d="M60.2069 80.2759H56.8621V83.6207H60.2069V80.2759Z" fill="#323232"/>
<path d="M63.5517 80.2759H60.2069V83.6207H63.5517V80.2759Z" fill="#323232"/>
<path d="M66.8965 80.2759H63.5517V83.6207H66.8965V80.2759Z" fill="#323232"/>
<path d="M70.2414 80.2759H66.8965V83.6207H70.2414V80.2759Z" fill="#323232"/>
<path d="M73.5862 80.2759H70.2414V83.6207H73.5862V80.2759Z" fill="#323232"/>
<path d="M76.9311 80.2759H73.5862V83.6207H76.9311V80.2759Z" fill="#323232"/>
<path d="M80.2759 80.2759H76.9311V83.6207H80.2759V80.2759Z" fill="#323232"/>
<path d="M83.6207 80.2759H80.2759V83.6207H83.6207V80.2759Z" fill="#323232"/>
<path d="M86.9655 80.2759H83.6207V83.6207H86.9655V80.2759Z" fill="#323232"/>
<path d="M3.34483 83.6211H0V86.9659H3.34483V83.6211Z" fill="#323232"/>
<path d="M10.0345 83.6211H6.6897V86.9659H10.0345V83.6211Z" fill="#323232"/>
<path d="M13.3793 83.6211H10.0345V86.9659H13.3793V83.6211Z" fill="#323232"/>
<path d="M16.7242 83.6211H13.3793V86.9659H16.7242V83.6211Z" fill="#323232"/>
<path d="M23.4138 83.6211H20.069V86.9659H23.4138V83.6211Z" fill="#323232"/>
<path d="M33.4483 83.6211H30.1035V86.9659H33.4483V83.6211Z" fill="#323232"/>
<path d="M40.1379 83.6211H36.7931V86.9659H40.1379V83.6211Z" fill="#323232"/>
<path d="M46.8276 83.6211H43.4828V86.9659H46.8276V83.6211Z" fill="#323232"/>
<path d="M53.5172 83.6211H50.1724V86.9659H53.5172V83.6211Z" fill="#323232"/>
<path d="M56.862 83.6211H53.5172V86.9659H56.862V83.6211Z" fill="#323232"/>
<path d="M60.2069 83.6211H56.8621V86.9659H60.2069V83.6211Z" fill="#323232"/>
<path d="M63.5517 83.6211H60.2069V86.9659H63.5517V83.6211Z" fill="#323232"/>
<path d="M66.8965 83.6211H63.5517V86.9659H66.8965V83.6211Z" fill="#323232"/>
<path d="M70.2414 83.6211H66.8965V86.9659H70.2414V83.6211Z" fill="#323232"/>
<path d="M73.5862 83.6211H70.2414V86.9659H73.5862V83.6211Z" fill="#323232"/>
<path d="M93.6551 83.6211H90.3103V86.9659H93.6551V83.6211Z" fill="#323232"/>
<path d="M97 83.6211H93.6552V86.9659H97V83.6211Z" fill="#323232"/>
<path d="M3.34483 86.9653H0V90.3102H3.34483V86.9653Z" fill="#323232"/>
<path d="M10.0345 86.9653H6.6897V90.3102H10.0345V86.9653Z" fill="#323232"/>
<path d="M13.3793 86.9653H10.0345V90.3102H13.3793V86.9653Z" fill="#323232"/>
<path d="M16.7242 86.9653H13.3793V90.3102H16.7242V86.9653Z" fill="#323232"/>
<path d="M23.4138 86.9653H20.069V90.3102H23.4138V86.9653Z" fill="#323232"/>
<path d="M36.7931 86.9653H33.4483V90.3102H36.7931V86.9653Z" fill="#323232"/>
<path d="M40.1379 86.9653H36.7931V90.3102H40.1379V86.9653Z" fill="#323232"/>
<path d="M43.4828 86.9653H40.1379V90.3102H43.4828V86.9653Z" fill="#323232"/>
<path d="M46.8276 86.9653H43.4828V90.3102H46.8276V86.9653Z" fill="#323232"/>
<path d="M53.5172 86.9653H50.1724V90.3102H53.5172V86.9653Z" fill="#323232"/>
<path d="M63.5517 86.9653H60.2069V90.3102H63.5517V86.9653Z" fill="#323232"/>
<path d="M66.8965 86.9653H63.5517V90.3102H66.8965V86.9653Z" fill="#323232"/>
<path d="M70.2414 86.9653H66.8965V90.3102H70.2414V86.9653Z" fill="#323232"/>
<path d="M73.5862 86.9653H70.2414V90.3102H73.5862V86.9653Z" fill="#323232"/>
<path d="M86.9655 86.9653H83.6207V90.3102H86.9655V86.9653Z" fill="#323232"/>
<path d="M90.3103 86.9653H86.9655V90.3102H90.3103V86.9653Z" fill="#323232"/>
<path d="M93.6551 86.9653H90.3103V90.3102H93.6551V86.9653Z" fill="#323232"/>
<path d="M97 86.9653H93.6552V90.3102H97V86.9653Z" fill="#323232"/>
<path d="M3.34483 90.3101H0V93.6549H3.34483V90.3101Z" fill="#323232"/>
<path d="M23.4138 90.3101H20.069V93.6549H23.4138V90.3101Z" fill="#323232"/>
<path d="M30.1034 90.3101H26.7586V93.6549H30.1034V90.3101Z" fill="#323232"/>
<path d="M33.4483 90.3101H30.1035V93.6549H33.4483V90.3101Z" fill="#323232"/>
<path d="M40.1379 90.3101H36.7931V93.6549H40.1379V90.3101Z" fill="#323232"/>
<path d="M43.4828 90.3101H40.1379V93.6549H43.4828V90.3101Z" fill="#323232"/>
<path d="M53.5172 90.3101H50.1724V93.6549H53.5172V90.3101Z" fill="#323232"/>
<path d="M56.862 90.3101H53.5172V93.6549H56.862V90.3101Z" fill="#323232"/>
<path d="M60.2069 90.3101H56.8621V93.6549H60.2069V90.3101Z" fill="#323232"/>
<path d="M63.5517 90.3101H60.2069V93.6549H63.5517V90.3101Z" fill="#323232"/>
<path d="M70.2414 90.3101H66.8965V93.6549H70.2414V90.3101Z" fill="#323232"/>
<path d="M76.9311 90.3101H73.5862V93.6549H76.9311V90.3101Z" fill="#323232"/>
<path d="M80.2759 90.3101H76.9311V93.6549H80.2759V90.3101Z" fill="#323232"/>
<path d="M83.6207 90.3101H80.2759V93.6549H83.6207V90.3101Z" fill="#323232"/>
<path d="M86.9655 90.3101H83.6207V93.6549H86.9655V90.3101Z" fill="#323232"/>
<path d="M93.6551 90.3101H90.3103V93.6549H93.6551V90.3101Z" fill="#323232"/>
<path d="M97 90.3101H93.6552V93.6549H97V90.3101Z" fill="#323232"/>
<path d="M3.34483 93.6553H0V97.0001H3.34483V93.6553Z" fill="#323232"/>
<path d="M6.68968 93.6553H3.34485V97.0001H6.68968V93.6553Z" fill="#323232"/>
<path d="M10.0345 93.6553H6.6897V97.0001H10.0345V93.6553Z" fill="#323232"/>
<path d="M13.3793 93.6553H10.0345V97.0001H13.3793V93.6553Z" fill="#323232"/>
<path d="M16.7242 93.6553H13.3793V97.0001H16.7242V93.6553Z" fill="#323232"/>
<path d="M20.0689 93.6553H16.7241V97.0001H20.0689V93.6553Z" fill="#323232"/>
<path d="M23.4138 93.6553H20.069V97.0001H23.4138V93.6553Z" fill="#323232"/>
<path d="M30.1034 93.6553H26.7586V97.0001H30.1034V93.6553Z" fill="#323232"/>
<path d="M40.1379 93.6553H36.7931V97.0001H40.1379V93.6553Z" fill="#323232"/>
<path d="M50.1725 93.6553H46.8276V97.0001H50.1725V93.6553Z" fill="#323232"/>
<path d="M60.2069 93.6553H56.8621V97.0001H60.2069V93.6553Z" fill="#323232"/>
<path d="M70.2414 93.6553H66.8965V97.0001H70.2414V93.6553Z" fill="#323232"/>
<path d="M73.5862 93.6553H70.2414V97.0001H73.5862V93.6553Z" fill="#323232"/>
<path d="M80.2759 93.6553H76.9311V97.0001H80.2759V93.6553Z" fill="#323232"/>
<path d="M83.6207 93.6553H80.2759V97.0001H83.6207V93.6553Z" fill="#323232"/>
<path d="M93.6551 93.6553H90.3103V97.0001H93.6551V93.6553Z" fill="#323232"/>
</svg>